<?xml version="1.0" encoding="UTF-8"?>
<svg enable-background="new 0 0 361.168 331.604" viewBox="0 0 361.168 331.604" xmlns="http://www.w3.org/2000/svg">
 <path d="m115.848,50.706c-2.556-.972-4.572-.828-6.192.576-1.692,1.332-2.448,3.492-3.384,7.596-.972,4.14-3.24,12.168-2.232,16.884 1.044,4.68 3.636,8.064 8.172,10.728 .828,8.136.396,13.68-1.152,17.172-1.692,3.348-4.032,3.456-8.424,3.096-4.536-.468-10.368-2.124-18.036-5.364 1.8-6.264 2.592-11.34 2.52-15.768-.144-4.392-3.492-7.02-3.096-10.404 .252-3.528 4.392-6.912 5.076-10.152 .576-3.384-2.34-6.3-1.116-9.576 1.332-3.42 7.704-7.128 8.424-10.152 .468-3.132-2.556-6.912-5.328-7.884-2.916-1.044-7.56-.108-11.556,1.98-3.996,2.016-8.172,5.4-12.384,10.152 1.584-10.44 1.584-18.18.288-23.652-1.368-5.472-5.76-7.884-8.46-9.036-2.772-1.188-5.4-.72-7.884,1.692 .288-3.744-.504-6.228-2.808-7.596-2.34-1.44-8.316-1.44-10.728-.576-2.448.828-3.672,2.664-3.672,5.652-4.68-.9-7.92-.9-10.404,0-2.34.9-3.78,2.628-3.924,5.328-4.428-1.152-7.776-.72-10.44,1.152-2.628,1.908-4.14,2.231-5.364,10.116-1.332,7.848-2.124,25.2-2.52,36.36-.504,11.016-2.808,21.096.288,29.556 3.204,8.46 9.216,15.084 18.576,20.556 0,6.48 3.06,13.284 9.576,20.844 6.48,7.596 16.02,15.3 29.016,23.94-4.824,9.828-8.82,22.176-11.844,38.016-3.168,15.805-5.148,34.021-6.48,55.764 2.124,1.404 5.04,2.773 8.748,4.248s7.992,2.881 13.248,4.5c-2.664,4.645-4.68,10.656-6.192,18.037-1.548,7.451-2.448,15.984-2.844,26.172-10.656,3.637-17.496,6.875-21.096,9.863-3.636,2.881-9.324,6.625 0,7.885 9.576,1.152 42.732.828 56.016-.576 12.924-1.477 20.16-4.141 21.708-8.137-.216,1.873.576,3.133 2.52,3.924 1.872.648 4.788.469 8.748.576 3.996.037 11.376,1.801 14.652,0 3.132-1.836 2.124-4.752 3.924-10.979 1.656-6.408 4.788-20.377 6.48-26.785 1.692-6.48 2.916-10.367 3.672-11.809l46.189.289c1.043.721 2.447,4.607 4.5,11.809 1.979,7.164 4.607,24.623 7.344,30.996 2.627,6.084 5.256,4.859 8.424,6.191 3.061,1.367 6.443,1.799 9.863,1.691 3.313-.287 6.697-1.225 10.152-3.096-1.439.576 1.801,1.656 10.115,3.096 8.316,1.369 25.668,4.572 39.277,5.436s34.02.756 41.256-.467c6.84-1.439 4.355-4.861.467-7.488-3.924-2.629-11.627-5.545-23.543-8.461-1.584-9.322-3.313-17.314-5.328-24.803s-4.32-13.789-6.768-19.441c3.852-1.115 7.703-2.52 12.096-4.211 4.283-1.764 8.748-3.779 13.535-6.191l1.98-11.844c6.66,5.039 12.672,7.668 18.576,7.883 5.867.18 14.363-2.52 16.057-6.732 1.402-4.391-.252-13.752-7.057-18.898-6.947-5.186-17.928-9.217-33.768-12.098l-1.693-5.076c12.277-6.119 22.32-13.68 30.42-22.822 8.064-9.252 15.553-22.861 17.748-32.077 2.018-9.252 3.42-15.444-5.363-23.04-9.035-7.776-29.16-17.46-47.592-22.824-18.504-5.328-38.881-8.28-62.244-9l-1.404-14.148c3.24-.864 5.436-3.456 6.732-8.172 1.225-4.824 1.367-14.832.863-19.728-.611-4.86-1.979-7.812-4.248-9 .504-2.988 2.629-5.76 6.229-8.46 3.637-2.664 14.076-4.644 15.48-7.596 1.332-3.096-.324-5.688-7.596-10.692-7.596-5.04-22.068-15.264-36.613-19.44-14.688-4.284-32.65-6.948-49.859-6.192-17.28.756-38.772,5.94-52.128,10.404-13.356,4.392-22.788,11.556-27.036,15.516-4.104,3.6-.252,5.292 1.98,7.02 2.052,1.656 7.2.468 10.44,3.384 3.097,2.915 5.905,7.703 8.425,14.363z" fill-rule="evenodd" stroke="#000" stroke-miterlimit="10" stroke-width=".036"/>
 <path d="m40.644,116.334c-6.876,1.44-13.068.36-18.576-3.096-5.724-3.456-12.096-8.676-14.652-17.748-2.52-9.432-.072-27.144 0-37.44-.037-10.296-1.008-18.468.288-23.688 1.332-5.256 3.816-7.74 7.596-7.596 .54,6.732 1.152,12.42 1.98,17.46 .756,5.04 1.692,9.036 2.808,12.384-.864-12.132-1.044-20.808-.54-26.46 .396-5.616 1.188-5.472 3.348-7.056 2.196-1.656 5.292-2.592 9.576-2.808 0,6.66.288,12.672.864,18.576 .504,5.832 1.44,11.052 2.52,16.056-.072-13.428.072-23.004.288-29.556 .18-6.516-.468-7.056 1.116-9 1.584-2.016 6.3-3.06 8.172-2.556 1.692.324 1.656-1.26 2.268,5.364 .468,6.768.792,18.036.828,34.632 .576-2.268 1.368-5.976 1.98-11.268 .576-5.364 1.368-12.168 1.98-20.556 3.636-.792 6.408-.18 8.172,1.692 1.728,1.836 2.052,5.4 2.52,9.576 .504,4.14-.324,10.872.288,15.192 .432,4.284 3.024,6.66 2.52,10.44-.54,3.78-2.412,7.596-5.616,11.844 1.188,1.368 2.592,1.836 3.924,1.404 1.332-.504 3.204-1.224 4.248-4.248 .828-3.132-.828-10.044 1.404-14.076 2.232-4.176 8.676-8.352 12.096-10.152 3.312-1.764 6.912-1.296 7.884-.54 .828.576-1.26,2.628-2.52,4.212-1.332,1.512-4.5,1.944-5.076,4.788-.648,2.736 1.764,8.352 1.404,11.844-.504,3.384-4.032,3.6-4.212,8.424-.324,4.824 3.384,14.184 2.52,20.016-.936,5.76-2.916,10.548-7.884,14.076-5.184,3.384-16.488,7.344-22.248,6.192-5.832-1.44-11.16-7.704-12.096-13.788-.828-6.084 6.804-19.332 6.768-22.248-.252-2.952-5.58,1.008-7.632,4.788-2.088,3.78-5.112,11.772-4.788,17.748 .252,5.868 2.412,11.412 6.48,17.172z" fill="#e9bdb0" fill-rule="evenodd" stroke="#000" stroke-miterlimit="10" stroke-width=".036"/>
 <path d="m112.211,79.434c-.9.396-2.772-3.564-3.132-6.192-.576-2.7-.108-6.588.288-9.288 .252-2.808 1.044-5.76 1.98-6.768 1.044-1.044 2.088-1.08 3.96.864 1.692,1.836 2.556,7.2 6.48,10.404 3.888,3.168 7.2,6.444 16.596,8.712 9.36,2.196 27.18,4.176 38.88,4.536 11.484.144 20.736-1.116 29.843-3.096 9.037-2.124 18.037-5.544 23.941-8.748 5.688-3.204 7.92-9.216 10.439-10.404 2.412-1.26 3.779-.18 4.5,3.096 .648,3.312.18,13.104-.289,16.596-.574,3.312-1.836,5.004-2.807,3.672-1.045-1.44-2.125-10.62-3.096-11.844-1.08-1.296-3.098-1.728-2.846,4.248 .252,5.904 4.178,22.104 4.537,31.248 .18,9.036-.576,18.072-2.844,22.824-2.34,4.644-8.029,5.688-10.693,5.076-2.627-.9-4.283-10.152-5.363-9.288-1.26,1.008 1.152,11.448-1.943,15.192-3.205,3.6-11.016,6.408-17.209,6.48-6.408-.144-14.975-6.012-20.268-6.48-5.292-.432-4.464,3.384-11.268,3.96-6.984.468-22.896,1.656-29.844-1.152-6.948-2.952-9.504-14.652-11.556-16.056-2.16-1.404.432,6.696-1.116,7.632-1.656.864-5.724.108-8.46-2.556-2.844-2.88-7.416-7.2-8.172-14.076-.792-7.02 3.024-18.756 3.672-27.036 .576-8.352-.036-18.684-.288-22.248-.432-3.6-1.044-.684-1.692,1.116-.646,1.872-1.438,8.856-2.23,9.576z" fill="#e9bdb0" fill-rule="evenodd" stroke="#000" stroke-miterlimit="10" stroke-width=".036"/>
 <path d="m147.132,85.086c-5.688,1.476-10.62,4.14-14.94,8.424-4.428,4.176-11.052,15.048-10.98,16.632 .108,1.44 7.2-5.4 11.556-7.596 4.248-2.268 8.568-4.428 13.788-5.652 5.148-1.332 10.512-1.944 16.632-1.98 1.944,3.348 4.284,5.652 7.02,7.056 2.7,1.368 5.796,2.016 9.288,1.116 3.455-1.008 7.309-3.348 11.557-7.02 3.852-.576 8.027-.252 12.383,1.116 4.428,1.332 9.18,4.428 13.824,6.768 4.5,2.124 11.125,6.732 13.213,6.48 2.051-.432 3.168-3.852-1.117-8.172-4.391-4.32-12.744-10.044-25.055-17.46 4.68,3.924 8.566,7.344 11.807,10.404 3.133,3.06 8.641,7.812 7.344,7.596-1.547-.396-10.188-7.704-15.227-9.576-5.041-1.98-9.648-2.628-14.365-1.944 2.701-3.168 3.924-5.184 3.672-6.192-.395-1.08-3.059-1.512-5.363.252-2.34,1.8-5.148,8.388-8.424,10.44-3.384,1.908-8.064,2.232-11.268,1.116-3.24-1.224-5.4-5.94-7.884-8.172-2.772-2.412-6.84-5.256-7.632-5.076-.792.252.468,2.556 3.384,6.768-4.392-.864-9.216-.252-14.616,1.692-5.436,1.908-16.02,9.216-17.748,9.864-1.728.468 3.672-3.636 7.02-6.48 3.203-2.844 7.199-6.264 12.131-10.404z" fill-rule="evenodd" stroke="#000" stroke-miterlimit="10" stroke-width=".036"/>
 <path d="m141.768,80.298c-1.872.072-4.032-.36-6.48-1.152-2.52-.9-5.292-2.16-8.46-3.924 .72,4.392 2.268,7.02 4.788,7.884 2.555.828 5.759-.108 10.152-2.808z" fill-rule="evenodd" stroke="#000" stroke-miterlimit="10" stroke-width=".036"/>
 <path d="m210.203,81.702c3.133-.684 6.049-1.44 8.461-2.268 2.377-.864 4.535-1.8 6.191-2.808-.539,5.328-2.088,8.424-4.5,9.288-2.555.828-5.76-.576-10.152-4.212z" fill-rule="evenodd" stroke="#000" stroke-miterlimit="10" stroke-width=".036"/>
 <path d="m183.167,74.358c-2.736-.18 9.432-.612 16.633-3.384 7.164-2.988 22.967-13.968 25.883-13.788 2.664.144-2.232,12.06-9.287,14.94-7.271,2.772-30.385,2.448-33.229,2.232z" fill="#a1a1a1" fill-rule="evenodd" stroke="#000" stroke-miterlimit="10" stroke-width=".036"/>
 <path d="m237.816,53.802c-6.229-3.132-12.564-5.76-19.152-7.884-6.66-2.196-13.32-3.888-20.268-5.076l1.404-6.192c8.314.72 15.588,2.736 21.959,5.904 6.373,3.204 11.592,7.524 16.057,13.248z" fill="#ff0" fill-rule="evenodd" stroke="#000" stroke-miterlimit="10" stroke-width=".036"/>
 <path d="m117.54,53.802c6.192-3.132 12.528-5.76 19.152-7.884 6.624-2.196 13.284-3.888 20.268-5.076l-1.404-6.192c-8.352.72-15.624,2.736-21.96,5.904-6.408,3.204-11.628,7.524-16.056,13.248z" fill="#ff0" fill-rule="evenodd" stroke="#000" stroke-miterlimit="10" stroke-width=".036"/>
 <path d="m160.632,21.402c-.864,3.024-1.044,5.796-.54,8.46 .432,2.628.9,5.904 3.348,7.344 2.304,1.296 8.424-.324 10.728.54 2.304.72 3.096,2.088 2.808,3.96 .036-2.16 1.116-3.528 3.384-3.96 2.232-.504 7.595,2.088 10.117,1.116 2.555-1.116 4.104-4.104 4.787-7.02 .541-2.988.072-6.192-1.404-10.152-6.012-1.656-11.592-2.448-17.171-2.52s-10.837.72-16.057,2.232z" fill="#ff0" fill-rule="evenodd" stroke="#000" stroke-miterlimit="10" stroke-width=".036"/>
 <path d="m153.324,15.786c5.868-2.268 12.528-3.492 20.268-3.672 7.668-.252 16.164.648 25.632,2.556l-2.809,5.616c-4.031-2.376-9.145-3.6-15.48-3.672-6.408-.072-13.788.864-22.536,3.096-1.691-1.296-3.383-2.592-5.075-3.924z" fill="#ff0" fill-rule="evenodd" stroke="#000" stroke-miterlimit="10" stroke-width=".036"/>
 <path d="m119.231,45.63c-1.764-5.544-4.068-9.576-7.308-12.384-3.276-2.844-10.836-2.304-11.844-4.212-1.116-2.016-1.872-4.14 5.652-7.632 7.632-3.744 25.488-10.656 39.132-13.788 13.5-3.096 28.224-5.112 41.399-4.5 13.033.648 24.264,3.42 36.613,8.172 12.275,4.608 30.959,15.3 36.611,19.44 5.473,4.068-1.621,3.024-3.637,4.788-2.088,1.584-5.975,3.168-8.459,5.328-2.592,2.16-4.752,4.788-6.768,7.884-4.105-4.284-9.506-7.56-16.346-10.404-6.875-2.736-14.939-4.896-24.479-6.192l-.865-9.036c4.824-2.988 7.129-5.472 7.057-7.308-.107-1.836-2.592-3.023-7.596-3.96-5.184-1.188-14.041-2.771-22.249-2.52-8.172.216-22.464,1.8-26.208,3.924-3.78,1.98-2.556,4.932 3.672,8.46l-.864,9.864c-6.372,1.188-12.06,3.024-17.748,5.364-5.612,2.304-10.869,5.256-15.765,8.712z" fill="#00f" fill-rule="evenodd" stroke="#000" stroke-miterlimit="10" stroke-width=".036"/>
 <path d="m25.452,119.574c.036,3.924 2.808,9.18 8.712,16.056 5.868,6.876 14.472,14.94 26.208,24.768 5.868-10.692 9.108-15.66 9.864-15.192 .756.576-2.88,8.568-5.652,18.288-3.024,9.756-8.856,23.832-11.808,39.168-2.88,15.191-4.86,32.004-5.652,51.264 1.08,3.924 11.232,7.164 30.996,9.863 19.944,2.701 59.004,5.186 86.76,6.193 27.468.936 52.308,1.115 77.437-.865 25.092-2.16 48.707-6.047 72.107-11.807-1.729-15.336-3.564-28.26-5.652-39.744-2.195-11.557-6.984-26.82-6.73-28.441 .359-1.475 3.131,4.717 8.711,19.152 9.396-2.771 17.568-8.676 25.344-18 7.705-9.432 19.008-27.719 20.305-37.763 .936-10.044-.432-14.868-13.824-21.96-13.535-7.128-49.896-16.848-66.168-20.556-16.271-3.816-26.137-4.428-30.42-1.98 .648,7.128.035,13.104-1.691,18.324-1.836,5.076-5.221,9.108-9.037,12.384-3.889,3.168-7.561,5.04-14.076,7.02-6.695,1.98-14.723,3.636-25.055,4.536-10.441.72-24.769,1.548-36.613,0-11.988-1.8-26.136-6.156-34.092-9.864s-9.54-6.876-12.96-11.844c-3.456-5.004-5.94-11.016-7.596-18.036-6.192-.252-10.98-.756-14.652-1.656-3.636-.936-6.12-2.16-7.308-3.672-3.312,4.032-9.504,7.128-19.152,9.576-9.722,2.376-22.215,3.924-38.306,4.788z" fill="#00f" fill-rule="evenodd" stroke="#000" stroke-miterlimit="10" stroke-width=".036"/>
 <path d="m218.664,161.802c.432-4.968 22.824-6.732 22.824-6.732 1.332-5.724 3.061-10.332 5.039-13.824 1.908-3.708 3.24-8.604 6.77-7.308 3.383,1.44 7.99,6.552 13.822,15.768 10.908-1.08 18.361-1.224 22.789-.288 4.248.792 4.535,2.628 3.096,5.652-1.584,3.06-5.291,7.236-11.809,12.672 9.865,13.283 13.248,20.844 10.693,23.363-2.736,2.34-11.521-.611-26.748-9-10.189,9.037-17.1,12.924-21.42,11.809-4.176-1.225-5.617-7.416-3.924-18.863 0,0-21.564-8.244-21.132-13.249z" fill-rule="evenodd" stroke="#000" stroke-miterlimit="10" stroke-width=".036"/>
 <path d="m223.451,162.954c.434-5.004 21.133-5.652 21.133-5.652 .072-3.6.721-7.02 2.232-10.404 1.367-3.42 3.527-10.692 6.48-9.864s6.479,5.58 10.979,14.652c10.656-.936 17.893-.936 21.996,0 4.033.936 3.854,3.276 2.232,5.616-1.691,2.232-5.725,4.86-12.096,7.884 10.367,13.14 14.4,20.701 12.385,22.824-2.125,2.016-10.297-1.404-24.805-10.404-8.928,8.82-14.939,12.709-18.576,11.809-3.6-1.045-4.535-6.732-2.809-17.461 .001-.001-19.583-4.032-19.151-9z" fill="#ff0" fill-rule="evenodd" stroke="#000" stroke-miterlimit="10" stroke-width=".036"/>
 <path d="m148.92 156.68c7.075 0 12.816 4.661 12.816 10.404s-5.741 10.404-12.816 10.404c-7.074 0-12.816-4.662-12.816-10.404s5.742-10.404 12.816-10.404" fill-rule="evenodd" stroke="#000" stroke-miterlimit="10" stroke-width=".036"/>
 <path d="m148.92 159.55c5.048 0 9.144 3.323 9.144 7.417s-4.096 7.416-9.144 7.416-9.144-3.324-9.144-7.416 4.097-7.417 9.144-7.417" fill="#ff0" fill-rule="evenodd" stroke="#000" stroke-miterlimit="10" stroke-width=".036"/>
 <path d="m201.96 158.12c7.074 0 12.814 4.661 12.814 10.403s-5.74 10.404-12.814 10.404c-7.076 0-12.816-4.66-12.816-10.404s5.74-10.403 12.816-10.403" fill-rule="evenodd" stroke="#000" stroke-miterlimit="10" stroke-width=".036"/>
 <path d="m201.84 160.99c5.047 0 9.145 3.323 9.145 7.417s-4.098 7.416-9.145 7.416-9.145-3.322-9.145-7.416 4.098-7.417 9.145-7.417" fill="#ff0" fill-rule="evenodd" stroke="#000" stroke-miterlimit="10" stroke-width=".036"/>
 <path d="m203.64 192.2c7.074 0 12.816 4.662 12.816 10.404s-5.742 10.404-12.816 10.404-12.816-4.66-12.816-10.404 5.742-10.404 12.816-10.404" fill-rule="evenodd" stroke="#000" stroke-miterlimit="10" stroke-width=".036"/>
 <path d="m203.52 195.07c5.049 0 9.145 3.322 9.145 7.416s-4.096 7.416-9.145 7.416-9.143-3.322-9.143-7.416 4.096-7.416 9.143-7.416" fill="#ff0" fill-rule="evenodd" stroke="#000" stroke-miterlimit="10" stroke-width=".036"/>
 <path d="m205.8 224.6c7.074 0 12.814 4.662 12.814 10.404s-5.74 10.404-12.814 10.404-12.816-4.662-12.816-10.404 5.742-10.404 12.816-10.404" fill-rule="evenodd" stroke="#000" stroke-miterlimit="10" stroke-width=".036"/>
 <path d="m205.92 227.43c5.047 0 9.145 3.338 9.145 7.453 0 4.113-4.098 7.451-9.145 7.451s-9.145-3.338-9.145-7.451c1e-3 -4.116 4.099-7.453 9.145-7.453" fill="#ff0" fill-rule="evenodd" stroke="#000" stroke-miterlimit="10" stroke-width=".036"/>
 <path d="m147 225.56c7.075 0 12.816 4.66 12.816 10.404s-5.741 10.402-12.816 10.402c-7.074 0-12.816-4.66-12.816-10.402s5.741-10.404 12.816-10.404" fill-rule="evenodd" stroke="#000" stroke-miterlimit="10" stroke-width=".036"/>
 <path d="m146.88 228.31c5.048 0 9.144 3.322 9.144 7.416s-4.096 7.416-9.144 7.416-9.144-3.322-9.144-7.416 4.097-7.416 9.144-7.416" fill="#ff0" fill-rule="evenodd" stroke="#000" stroke-miterlimit="10" stroke-width=".036"/>
 <path d="m146.04 192.8c7.075 0 12.816 4.66 12.816 10.402s-5.741 10.404-12.816 10.404c-7.074 0-12.816-4.66-12.816-10.404s5.741-10.402 12.816-10.402" fill-rule="evenodd" stroke="#000" stroke-miterlimit="10" stroke-width=".036"/>
 <path d="m146.16 195.51c5.047 0 9.144 3.338 9.144 7.453 0 4.113-4.097 7.451-9.144 7.451s-9.144-3.338-9.144-7.451c0-4.115 4.096-7.453 9.144-7.453" fill="#ff0" fill-rule="evenodd" stroke="#000" stroke-miterlimit="10" stroke-width=".036"/>
</svg>
