<?xml version="1.0" encoding="UTF-8"?>
<svg viewBox="0 0 1228 814" xmlns="http://www.w3.org/2000/svg">
 <g fill-rule="evenodd">
  <path d="m586 357v-1h1v1q0 1 1 1t1 1v1q-1 0-2 1t-7 6l-6 4v-1q0-1 2-2 0-1-1-2h-2v-1h1l2-1 5-3q5-3 5-4z" fill="#b3714f" stroke="#b3714f"/>
  <path d="m622 453h2v1h-2l2 1 1 1h2l1 1 1 1t-9 0q-10 0-12 0-2-2-4-2-3 0-8 2l-6 2v1h-2v-1h1l-1-1h-1v-3h1v-1h1v-1h1v-1h1v-1l5-1q6-1 15 0t11 2z" fill="#b57351" stroke="#b57351"/>
  <path d="m244 702h1v10l1 9 1 1q1 0 0 3t-1 6v3-4q0-4 1-6 0-1-2 1-3 2-3 3t-1 20v20h-1v1h-4v-1h-2l2-1h2v-5q0-6 0-26v-21h3v-1l1-2v-6q0-5 2-4z" fill="#788d8c" stroke="#788d8c"/>
  <path d="m922 710l3-5v8h1l1-1h1l2-1h1l-2 4q-1 4-4 13-3 8-3 9t-1 5v3h1l2 1h6l1-1h1v2h-13l-13-1-1-1v-1h2v1h1v1h4l1-1h1v-3q0-3 1-9t3-12 4-11z" fill="#bcbcbc" stroke="#bcbcbc"/>
  <path d="m747 708l1-2 4 2q5 2 8 3 4 0 4 1t5 2 5 2 9 4 11 6q2 2 1 4 0 1 1 1 2 1 2 1v2h2l-1 1-1 1h-3v-1h-1v-2h-3v-2h1q1-1-2-1-2 0-2 0l-1 1h-1q0 1 0 1h-2q-1 0-1-1h-1v-1h-2v1q0 1-1 19l-1 18v-18q0-19-1-20-1-2-11-7l-11-5-1-1h-2v40h-1v-11q-1-10-1-20v-12t-1 0-3-1h-2v-1q0-2 1-2t2-2z" fill="#c59b82" stroke="#c59b82"/>
  <path d="m457 772h337q2 0 14 1h12v1h-50t-71 1l-71 1-1 2v1h-2v-1q-1 0-1 0 0-1-1-1v-1h-5q-5 0-6 1v1h-2v-2q0-1-138-2h-139v-1h64l60-1z" fill="#4a5e5e" stroke="#4a5e5e"/>
  <path d="m577 611h2l2 1-1 1q0 2 1 3 1 0 3 0 1-2 4-2t4 1h2v1t1 0h5q5 0 8 1h4v1q1 0 14 0 13-2 13-2l5 1q5 1 7 1t3 0 0 1h1q0 1 1 1h7l23 1q24 1 25 11 1 9 2 10 0 0 1 1v1q1 2 2 2t1 1v1h-1t0 1h-1q-1 1-2 1t-2 6q-1 7-21 7h-20v-1t-1 0h-50l1 3q1 3 2 3 0 1 0 5t-1 5q-1 0-1 0v1l-1 1-1 2-6 1h-5v-1h-1v-1l-1-1-1-1v-1q0-2 0-5t0-5l2-3v-4h-1v-1h-7v1l-1 4v4q-1 0-1 11v10l-1-5-1-5v-10q0-9-1-9v-1h-54q-8 0-11-4l-2-3v-1q0-1-2-6l-2-4h2q1 0 2-1 1 0 2-9v-10l3-1q3-1 3-1l2-1q1-1 10-1 9-2 18-2h10q1 0 1-1 1 0 1-1v-2q1 0 1-1zm35 60q4 0 4 3t-4 3-3-3 3-3z" fill="#0b0a0a" stroke="#0b0a0a"/>
  <path d="m656 519q2-1 2 1t-2 2q-2-1-2-2t2-1z" fill="#e4a987" stroke="#e4a987"/>
  <path d="m664 361h1q1 1 1 0l3 1q3 2 3 2t2 1h2v1l2 1q0 1 0 2-1 1-1 1h-3q-4 0-7-2l-3-1v-1t-2-2l-1-1 1-1q1 0 2-1z" fill="#b87855" stroke="#b87855"/>
  <path d="m731 613v-1h1q1 0 2 1l1 1q1 0 21 0t26 0h6v4h-1v1h-1v1h-4q-3 0-24 0h-22t-1-1l-1-1h-4v-1t2-1q1 0 1-1t-1-1-1-1z" fill="#c98868" stroke="#c98868"/>
  <path d="m540 562h1l3 2q4 2 6 2t2 1q1 1 2 2l1 1h3q2 2 2 2h1l2 1 2 1h1v1h1v1h4q4 1 5 2 0 2 8 2 8 2 8 2 1 0 6 1h5v1h1v1h1v1h1l-1 1q0 1-1 3-2 0-2 1l-1 4q-1 4-1 11v7h-1v1h-1l-2 1h-2v-1t-1 0q-1-1-1-1h-1q-1-1-4-1t-4-2l-1-1q0-1-3-1t-3-2q-1-1-8-2-7-2-12-2-5-1-5-2-1-1-2-2h-2t-4-2q-4-1-5-3l-2-2v-1q0-2-4-3-3-1-3-3-1-3-2-4-1 0-1-7l-1-7h-1t0-1h-2v-1l1-1q1-1 3 1 1 0 2-6 2-6 2-6 2 0 6 5t4 5z" fill="#ebeaea" stroke="#ebeaea"/>
  <path d="m532 591h4l2 2q1 2 5 3 4 2 4 2v2q0 2 1 2 2 1 2 2v1h1v1h4q4 2 9 2 4 2 7 2h3v1l1 2v2h-1v1h-10q-9 0-18 2-9 0-10 1l-2 1h-5v-1h-1v-1h-1v-1h-1v-1h-1l-1-1h-1v-1q1-2 1-4 1-1 2-1 1-1 2-2 0-2 0-6t-3-7q-3-2-6-4l-3-2h-2l-1-1h-1l-1-1h-1v-2h2l5-1q5-1 6-1 1-1 1 2 1 2 3 4t5 3z" fill="#dcdbdb" stroke="#dcdbdb"/>
  <path d="m666 403h1l5 4q5 5 6 5l-1 2q-1 3-2 3h-1q-1-1-3-2l-2-2v-1q-1 0-1 0 0-1-3-4l-2-2 1-1q1-1 2-1 0 0 0-1z" fill="#af704d" stroke="#af704d"/>
  <path d="m1194 790h2v3l2 2q2 2 2 3h-2v1t-1 0h-1q0-1-2-2l-2-2h-1v-1h-1v-3h1q0-1 3-1z" fill="#567373" stroke="#567373"/>
  <path d="m1198 524l2-2h3l-1 1q0 1 1 1t1 1l-2 3q-2 2-2 8v6h4q4 0 5 0h1v1q0 1-1 1l-1 1h-1v1h-3v2q0 1 1 2v1h-2v-1q-1-2-3-2-3-1-3-2t-2-2q-2 0-2-7 1-7 2-7 1-1 1-2 0-2 2-4z" fill="#516b6b" stroke="#516b6b"/>
  <path d="m679 107l1 1q2 2 13 4t14 3 3 1h1t1 1v1q1 0 4 1l4 1h1l-3 1q-3 1-3 2v2q0 1 1 1 0 0 1 0v2h-1q-1 0-3-2-1-1-16-4l-14-2v6l1 6v1l1 2v2h-1v-2h-1v-1h-1v-2l-1-7q-1-7-1-9 0-3-4-4l-3-2h-2v-2h4q4 0 4-1z" fill="#444" stroke="#444"/>
  <path d="m650 300l2 2q1 2 6 1t5-1q-1 0-1-1v-1h1q1 0 1 0v2t1 0l1 1h1v1q-1 0-2 1l-2 1h-17l2-3q1-3 2-3z" fill="#75401e" stroke="#75401e"/>
  <path d="m750 164v-121l1 1q1 2 2 0 1-1 1 47 2 48 2 207t1 220l1 61v1h1l1 1 2 1h4l1-1h1v2h-8l-8-1-1-2-1-1v-77q0-76-1-76v-24h1v-53q0-53 0-59v-6t0-120z" fill="#91b0b0" stroke="#91b0b0"/>
  <path d="m1216 2h4l1 2q1 3 1 11 0 9 0 9v4l-1-2v-2h-3t0-5q0-4-1-7l-2-2-1-4q-1-4 2-4z" fill="#759696" stroke="#759696"/>
  <path d="m614 782l4-1h1v1h1l3 2q3 2 3 3h1q0 1 1 1v1q0 1-4 4-3 3-6 4l-4 1v-1h-1v-1h-3v-6q0-6 4-8z" fill="#89a9a9" stroke="#89a9a9"/>
  <path d="m593 413h2l1 1h6q6 1 6 5t0 5v1t-1 1-2 2q-2 0-6 0t-5-2v-2t-3 0h-3t-1 2q-1 0-5 2t-5 4-3 2h-6v1l-1 1v2l2 1q1 1 2 3l1 1v1h-3v-1h-1v-1h-1l-1-1h-1v-2h-1q-1-1-2-1v1h-1v-1h-1v-1h-1v-1q1 0 1-2t0-3l-1-1 4-4q3-5 4-6l3-3q4-3 4-4h1q1 0 1-1 0 0 1 0v-1h3q3-1 8 1 4 2 5 1z" fill="#f6b792" stroke="#f6b792"/>
  <path d="m921 778h1l4 4q3 4 4 5 1 0 0 5-2 6-4 7-1 1-1 1-1 0 1-2 0-2-2-2t-3 0l-1 2t-1 1q0 1-1 1h-1v-1q0-1 1-1 0 0 0-1l1-1h1v-1t2-1q0-1 1-4 1-2-3-6l-4-4h-2q-2-1-2-2t4-1q4 1 5 1z" fill="#405555" stroke="#405555"/>
  <path d="m603 302v-1 2q0 1-1 2-2 1-1 4 0 3 2 4 1 1 1 3-1 2-1 4 0 0 1 1 0 1 1 2v1h-1q-1 0-2-2-2-2-12-3l-10-1t-10-1h-9v-2h3l3-1h1v-1l1-1t1-1h1l10-1q10 0 13-2 4-1 4-2t1-1q1-1 1-1l1-1q1-1 2-1z" fill="#eaaa86" stroke="#eaaa86"/>
  <path d="m222 38h10l2 1q2 1 3 11t1 338v348q0 20 0 26v5h-2l-2 1h-6q-7 0-9-1h-2v-364q0-364 5-365z" fill="#bedada" stroke="#bedada"/>
  <path d="m1217 0h11v804h-1v1h-1v1h-2l-1 1q-1 1-1 1h-1v-1q1-1 1-2v-1t0-10v-25t0-115q0-116-1-116t-1-2q-1-2 0-2t2-2v-7t1-128v-251l-1-122t0-9q0-8-1-11l-1-2t-2-1l-1-1z" fill="#2b3535" stroke="#2b3535"/>
  <path d="m565 466h2v1l-1 1v1q0 1 1 1t3 1h2q0 1-3 1t-3 3v3h-1v-2l-1-1v-1q0-1-2-2-1 0-1-2-1-1-2-1h-2v-1q0-1 3-1 3 1 4 0l1-1z" fill="#c08465" stroke="#c08465"/>
  <path d="m564 366h11q1 1 1 2 0 0-1 1v1h-1t0 1h-12v-1h-1l-3-2q-3-2 6-2z" fill="#a46744" stroke="#a46744"/>
  <path d="m594 290h3q2 0 1 2 0 1-1 2v1h-1q0 1-3 3l-3 2h-2q-1 0-2 2 0 1-2 1h-5l-2-1h-1v-4h-1l1-1 1-1h5q5-2 8-4 4-2 4-2z" fill="#493021" stroke="#493021"/>
  <path d="m618 776h5v1q1 0 1 1 0 0 0 1h1v1q1 1-2 1l-2 1v-1h-1v-1h-4q-3 0-4-1v-2q1-1 6-1z" fill="#1e2626" stroke="#1e2626"/>
  <path d="m1218 280v-1q0-1-2-1-2 1-3 4l-1 2h1q1 1 1 0 1-2 2-2h1v2q-1 0-3 2t-6 3q-5 1-9-2l-3-3-1-1v-1h3q2 1 3 2 0 1 4 0 3-1 4-2 1 0 1 0v-1t1-1q1 0 1 0v-1t1-1l3-1q3-1 3 1-1 2-1 2z" fill="#495f5f" stroke="#495f5f"/>
  <path d="m746 36l-1-1 2 1q1 2 2 1t2-2h1v1t-1 4l-1 3v121q0 120 0 120v-4q0-4-1-5v-24q-1-23-2-23-2 0-3-1-2-2-3-2-1-1-1 1-1 1-6 1-4 1-6 3l-1 2h-7v1h-1v1h1v1h1v1h2v1h1v2q-1 1-8 1-6 0-10-1-3-1-4 1-2 0-16 1t-16-1q-2 0-8-1-5-1-6 1-1 0-12 2-11 0-13 2-2 0-5 2t-5 2q-1 0-5-2-4-1-4-2t-4-2q-4-2-9-2t-10 2q-5 0-9 0-5 0-22 0-18 0-21 1t-7 1-9 2-9 2q-4 1-5 6t-1 6h-1v1h-1v6h-1v-3l-1-3v-1h1l-1-1h-1v-25h1v-4l1-8 1-8v-1h1v-1h1v-2h1l1-1h1v1h-1v3q2 2 2 2v1h8q7 0 8-3 2-3 2-3 1 0 2-1h1l3-1q2-2 4-2h3l-2 1h-2v2h16q17 0 18 1 1 2 2 1t3-1h1v-4l1-4v-8h1l1 7q0 7 1 7 0 0 17 1h17v-1q1-1 1-10v-9l2 11q1 10 18 10 16 0 26-1l10-1h1l-7-1-7-1h-2v-2h13q12 0 15-1t3-3v-2h1v1h1v3q0 2 2 3 1 1 18 1h18v-2h-1v-1h-1q0-1 0-1t-1-7l-1-7 2 6q1 7 5 8 5 1 5 2v1h3l3 1h3v-1h1v-33q0-32-1-34l-1-2 1-2q1-2 2-4v-47q-1-46-1-47zm-28 188q7 0 7 2 0 1-7 1t-6-1q0-2 6-2zm-96 16v4h-2q-1 0-4 0l-2-1-1-1-1-2-1-1q-1-1-2-3 0-1 3-2 3 0 3 2 0 1 4 0 3 0 3 4z" fill="#4b3120" stroke="#4b3120"/>
  <path d="m742 448v2q-1 0-2 1h-2v-1t-1 0l1-2q0-2 2-3 2 0 2 3z" fill="#e5aa87" stroke="#e5aa87"/>
  <path d="m438 630v-2h3l1 7q0 7 3 8 2 1 4 2l2 1h1v3h-1v1h-1l-1 1-1 1h-4q-3 0-5-1l-2-1t-1-1q-2 0-2-1v-2l-1-2v-6l1-3q0-1 1-1h1v-1h1v-1h1v-2z" fill="#e2a07c" stroke="#e2a07c"/>
  <path d="m292 644l2-2v2q0 2-3 5t-6 4-3 1-1 0v1l-2 5q-3 4-3 4 0 1-1 3l-1 2v1h-3v-7h2v-1q1-1 1-4 0-4 2-6t7-3 5-2 1-1 3-2z" fill="#908f8f" stroke="#908f8f"/>
  <path d="m598 661v-1h7v1h1v4l-2 3q0 2 0 5t0 5v1l1 1 1 1v1h1v1h-1q-2-1-4-1-1-1-1-5l-1-4v1h-2v10h-1v-19l1-4z" fill="#b2b0b0" stroke="#b2b0b0"/>
  <path d="m808 582v-1h3l1 1q1 0 13 2t16 4q5 2 20 7 16 5 17 5 1 2 8 2h7l1 1v2h-1v1h-1v6h-5v1h-3q-4-1-6-1-1-2-8-3-8-1-20-3-12-1-12-2t-6-1l-5-1v1q-1 0-1 1 0 2-1 2h-1v-1t-2-5q-2-4-4-5t-3-4l-1-3v-1h-1v-1h-1v-1h-1v-1h-2v-1h-1v-1z" fill="#1e1d1c" stroke="#1e1d1c"/>
  <path d="m594 324h3v1h1v1h2v2t-2 3l-3 3h-1t0 1v1q0 2-3 3t-3 2-3 2-4 2l-1 1-2 1h-2v-1l-1-1v-1l2-1 2-1h1l3-4q3-3 4-6t1-3 1-1l1-2q2-2 4-2z" fill="#ded1d6" stroke="#ded1d6"/>
  <path d="m540 307h2l-1 2q-1 1 0 2t2 2v1h-1q-1 0-4 2t-6 6l-4 3h-1q-1 1-2 1t-2 0 0-2l1-2v-1l1-1v-2l1-1 1-1q1 0 4-3t5-5q2 0 4-1z" fill="#633f29" stroke="#633f29"/>
  <path d="m500 705v-1h4v3t-1 1v1h1v1h12v-1q1-1 2-1h1l-1 1q0 1-7 2t-8 17v17h-1v-4l-1-14q-1-14-1-15l-1-1v-5l1-1z" fill="#73817e" stroke="#73817e"/>
  <path d="m749 274v1q1 1 1 5v10q0 6 0 59v53h-1v1h-2v-1l1-1v-8q0-8-1-51-1-44-3-50-4-7-4-12-2-5-3-6-2 0-5-3-2-3-3-17t-2-15l-2-1v1h-1v-2h-1v-1h7v-1h1v-1h4v4l1 5v1h1v1h1v-1l1-1 1-1-1-5q0-5 3-5t4 1q2 1 2 21t1 20z" fill="#452f20" stroke="#452f20"/>
  <path d="m595 469l2-3h6t-3 1q-2 1-2 2v3h3q3 0 5 3 3 3 6 3t3 1v1h-1q-1 0-4-1l-2-1h-2q-2 0-6 0h-3l-1-1-1-1h-2v-1h-1v-1q0-2 3-5z" fill="#d89573" stroke="#d89573"/>
  <path d="m986 341v-305t0 318v317-7q0-8-1-10 0-1-4-1h-4v-1q-1 0-1 0 0-1-1-1 0-1-1-1l-1-1h1q1 0 1-2v-2l1 1q1 2 4 2t4 0h1v-1l1-1v-305z" fill="#757575" stroke="#757575"/>
  <path d="m649 298v-1l5 1q4 0 5 1l1 1h2v1h1v2h-1q-1 1-5 1t-5-2l-2-2v-1q0-1-1-1z" fill="#a0694c" stroke="#a0694c"/>
  <path d="m689 437v-4l1 3q2 2 2 2l3 8q3 9 4 12v2h-1q-1 0-2 0 0 0-1 1t-3 1-4-1-4-2l-3-1t0-1h1v-1t1-2q1-1-2-1l-3 1v-1h1l1-1h1q1 0 2-3 1-2 2-3 1 0 2-2v-3h1q1 0 1-4z" fill="#d29876" stroke="#d29876"/>
  <path d="m598 294h1v1q-1 1-1 1v1h-1v1h-1l4 2q3 0 3 1v2h-1q0 1 0 1h-2t0-2-4 0l-4 2-2-1-2-1v-2h2l3-2q3-2 3-3h1q0-1 1-1z" fill="#bc8161" stroke="#bc8161"/>
  <path d="m680 434h1t1 1v1q0 1-2 2t-2 2v1h-1v1h-2v-1h-1v-2l2-2q2-3 4-3z" fill="#b27f63" stroke="#b27f63"/>
  <path d="m566 442h2v1h1v1h1l2 1q2 1 2 2v2l-1 1-1 1v1h-2q-1 0-2-2v-2q0-1-2-2-1 0-1-2t1-2z" fill="#c08b6d" stroke="#c08b6d"/>
  <path d="m958 634h1l3 1q2 1 6 3 4 3 5 4t1 2h-2q-1 0-1 1h-1q0-1 0-2-1-1-2-1h-4l-1-1q-1-1-3-1-2-2-2-3l-1-2h1q0-1 0-1z" fill="#999" stroke="#999"/>
  <path d="m804 755h1q0 1-3 1h-3v1l-1 1v3l-1 1v1q-1 0-1-3v-4l-1 4-1 4v-3l-1-3q0-3-4-3l-4 1h-2v-2h11v-1q1-1 4-1 2 0 4 2 1 0 2 1z" fill="#9a9999" stroke="#9a9999"/>
  <path d="m565 459v3h-1t-2 0q-1 0-2-1l-1-1 1-2q1-2 3-1 1 0 2 2z" fill="#845941" stroke="#845941"/>
  <path d="m667 457h-1q-2 0-2 1t1 2v1h-1q-2-1-4-1-1-2-6-2t-14 0h-11l-1-1-1-1h-2l-1-1-2-1h2v-1h1l1-1 5-1q5-1 14-1 8 0 13 2 4 2 7 3 2 1 2 2z" fill="#b77554" stroke="#b77554"/>
  <path d="m1193 273v-1h1v2h2v3h1v-1h1l1 2q1 2 2 3l1 1h3q3 0 4-1h1v1q0 1-4 2-5 1-5 0-1-1-2-2-1 0-1 1l-1 1q-1-1-1-1v-1t-1 0h-1v-1l-1-3v-5z" fill="#435b5b" stroke="#435b5b"/>
  <path d="m1182 401v-366l2 1q2 2 2 4t1 109l1 107v-2q0-3 1-3v-1h1v8q0 7 1 12v4h2v4l1 3v1h1t1 1q0 1 0 1h1l3 3q3 3 8 2 4-1 6-2 0-1 1-2v-1q1 0 1 0v-1h1l2-1q1-2 2 6t1 122v121q-1 1-5-3t-9-5l-5-1h-3l-2 2q-2 2-2 4 0 1-1 2-1 0-2 7 0 7 2 7 2 1 2 2t3 2q2 0 3 1t1 1 0 1h2l1-1h1v-1h1v-1h1l2-1q3-1 3-2t1-1 1-1h1v-1h1v-1h1v-1h1v1h1v243l-1 1-1 1v-1h-1v1h-1v-1h-1v-1h-1t-2-4q-2-2-8-3l-6-1-1 2q-1 1-1 3 0 3 0 3h1l-1 1q-2 1-2 3v2h-2q-3 0-3 1h-1v3h1v1h1l2 2q2 1 2 2h1v1l1 1v1l1 2v1h-17q-18 1-25 1h-195q-9 0-24-1l-16-1h-1v-1h1v-1h2v-1t1-1 1-1q2-1 4-7 1-5 0-5-1-1-4-5l-4-4v-3h50q49-1 130-1h82v-4q0-4 0-2 0 1-1 1h-1v-1q0-1 0-367z" fill="#7fa1a1" stroke="#7fa1a1"/>
  <path d="m800 572l5 3q5 3 5 4v1h-1q-1 0-1-1t-2-1h-2v2h-2q-2 0-2-4v-4z" fill="#deb7a1" stroke="#deb7a1"/>
  <path d="m598 486v4l-2-1q-2 0-2-4t2-4 2 1 0 4z" fill="#e6aa87" stroke="#e6aa87"/>
  <path d="m724 239h1v-1l2 1q1 1 2 15t3 17q3 3 5 3 1 1 3 6 0 5 4 12 2 6 3 50 1 43 1 51v8l-1 1v1l-1 5q0 5-2 8 0 4-1 5v1h-5t-1-1q-1 0-1-1 0-2-2-1t-2 0-2 1-7 4-12 2-10 0l-3-2h-1v-1h-1v-1h-1v-1h-1v-1h-1l-1-1h-4q0-1-5-4l-5-3q-1 0-6-5l-5-4v-1q-1 0-3-2l-3-2t-3-1q-2 0-4 3t-4 4h-3l-2 1h-6q-4 1-10 4l-6 3-3 1h-4v-1t-1 0h-1t0-1-3-1q-3-2-3-3t-2-1h-2q-2 0-9-1h-7v-5t1 0 1-4v-4h-4l-1 1-1 1h-1v1h-1l-2 3q-2 3-3 4v1h-1q0 1 0 1-1 0-1 1h-1q0 1 0 1h-2t0 1h-1q-1 1-3 2l-2 2h-1q0 1-4 3-4 4-10 8-5 4-9 12t-8 9l-4 1h-2q-1 0-1 1-1 1-2 0l-1-1h-2q-1 0-4 0-4 0-4-2-1-2-2-4-2-3-4-4h-1v-1q0-1-1-1h-1t1-2 2-2 1-2q1-1-2-2-3-2-3-7t0-7q-1-2-1-2 0-2 1-4 2-2 0-2-1-1-2-16v-19h1v-1h1v-8l1-2v-2h2l1 1q0 1 1 1t2 0q1 2 3 2t2-2q0-1 1 0 0 2 7 3 6 1 11 5t8 5 3 2 2 1q1 0 8-1h18t1-1l5-4q6-3 7-4 1-2 2-2v-1l4-5q3-4 5-7 1-3 5-7 3-3 4-4v-1q1 0 1-1 0 0 1 0v-1q1 0 1-1t-2-4l-3-4q-1-1-1-1v-1t-1 0q-1-1-1-1v-1q0-1 1-1 0-1 1-3 0-2-1-3-2-1-2-2-1-1 0-4l1-3t1 0v-1q1 0 0-1v-1q0-1-3-1l-4-2h1v-1h1v-2t1-1l2-2q1-1 2-2l1-1v-1l1-1 1-1v-1l-1-1v-2h-3v1l-1 1v1h-1l-1 1h-1t-2 2l-1 2h-1t-4 2q-3 2-8 4h-5l-1 1-1 1h-1t-4 2l-3 1h-3q-2 1-2 1t-8 1q-7 1-10 3l-2 1h-2q-2 1-4 1-2 2-5 5t-4 3l-1 1-1 1v1l-2 2q-3 2-3 5v2h-1v1h-1v3h3l1-1q2-1 2-2h1v-1h2v1h1v2h-1v1h-1v1l-1 1v1h-6q-5-1-8-1t-3 3l-1 3h-2v-1h-1v-1h-1v-1h-1v-17q0-17 1-35v-18h1v-6h1v-1h1q0-1 1-6t5-6q4 0 9-2t9-2 7-1 21-1q17 0 22 0 4 0 9 0 5-2 10-2t9 2 4 2h1l5 2q4 2 6 1 1-1 5-3t15-2q11-2 12-2 1-2 6-1 6 1 8 1 2 2 16 1t16-1q1-2 4-1 4 1 10 1 7 0 8-1zm-78 48l1 1q1 0 1 0v1l8 3q8 3 8 3 0 1 1 1h1l8 2q7 2 14 3t8 2q0 1 0 1h1l3 1q3 1 7 2 3 2 4 3 0 1 3 2 2 0 4 4t3 6v1q1 0 1 1v1h1q1 0 1 1 0 2-1 2-1 1-1 0l-5-2q-5-2-5-2 0 2 2 5 3 3 4 3t6 1h5l2 1q3 1 4 5 1 3 0 4t-1 1-8 2q-7 2-8-2-1-3-4-2h-3q-1 1-1 1v1t-1 0h-2q-2 0-4 1t-5 1h-3v-1q-1 0-1 0-1 1-1 1-1 0-12 1l-11 1h-1q-1 0-2-2-1-1-4-2l-3-2-1 1h-2l-1-1h-4v1l1 2v3h1v1h1v1h1l4 4q4 5 4 6v1h2l3 1q3 2 3 2t2 1h2l5-1q5-1 6-2 1 0 5 0h5v2l-1 1v1h-2l-2 1-1 1h-1l-2 1q-2 1-2 1-1 0-4 1t-4 0l-1-1h-3q-4 0-7-2l-3-1h-1q-1-1-5-3-5-2-6-6l-1-4q-1-1-1-2l-1-1h-1v-2l-1-1-1-2t-2-4l-2-3q-1-1-1-1h-1t0-1l-1-1h-1v-1h-2v-2h-1v-1h-2v1h-1v13q0 12 2 16 0 3 1 8 1 6 1 7v1h1v1h1v5h-4v-1h-1v-1h-1v-1h-1v-1h-1v-2q0-3-2-4 0-1 0-22t1-24q1-2 4-3t7-2h4v1q-1 0-1 1l3-1q2 0 2-1t2-1 2-1q-1-1-1-1-1 0 1-1l1-1 12-1 12-1h1v-1h-1v-1h-2v-1h-1v-1h-4q-3 0-4-1 0-1-8-1l-9-1q0 1-2 1t-3-3v-3h-1t0-1q-1 0-1-3 0-4 0-6l-1-3-2-3q-1-3-1-6 0-2 2-3 1 0 2 3 0 3 2 4 2 0 2 1z" fill="#f8bb98" stroke="#f8bb98"/>
  <path d="m640 423h1v1q1 1 1 1v2h-1v1h-1l-2 1h-1v2h-1l-2-1h-1v-1h1v-1h1v-1h1l1-2q1-1 3-2z" fill="#b88265" stroke="#b88265"/>
  <path d="m30 533h1v5q-1 5-1 6l-2 2q-1 2-2 2h-1t-1-1q-1 0-1-1-1-1 1-4l2-4t1-1q1 0 1-1v-2q1 0 2-1z" fill="#587575" stroke="#587575"/>
  <path d="m348 36h53l34 1q34 1 34 86t-1 86q-1 0-2 8 0 8-2 13 0 5-1 6-1 0-1 4v24q2 16 2 22 2 6 2 8 0 3 0 5t1 8q2 5 2 6 1 0 1 2v2h-1v1h-3q-2 0-2 1h-2q-1 1-3 1t-2 1v1h-1t0 1v1q-1 0-1 1l-1 1q-2 0-3 3t-2 8 0 13 1 9q1 1 1 1h1v3q1 3 2 4 0 1 0 1h1l1 4q0 5 2 8 2 4 5 8 4 4 5 4 2 1 2 87v88t-1 0q0 1-11 1-11 2-15 4l-4 3h-1q-2 1-4 1t-4 2q-1 2-2 5t-4 4l-4 1t-1 0v1q-1 0-5 2-5 1-10 3-4 0-11 3t-14 5q-7 1-17 5-12 4-15 5-3 2-3 3-1 1-4 1t-8 2l-5 2v1h-1v1h-1l-1 1-3 1q-3 1-7 4-4 2-6 3-1 1-2 2l-2 1-1 1-1 1v2h-2l-3 2q-3 2-3 2l-2 2q-2 2-3 2t-1 1-5 2-7 3-2 6q0 3-1 4v1h-2v3h-1v5l-1 1h-1v1l-1 1-1 1-2 5q-2 5-3 8t-2 4q0 1-1 1t-2 5q-2 5-3 9-2 3-3 4-1 0-1 5v4h-1l-1 1h-1l-1-9v-572q1-101 1-102v-1h1q1 1 25 0 23-1 76-1z" fill="#fdfdfd" stroke="#fdfdfd"/>
  <path d="m827 603v-1l5 1q6 0 6 1t12 2q12 2 20 3 7 1 8 3 2 0 6 1h6q2 0 2 1 1 2 13 4t13 1q2 0 3 2 1 1 3 2h3q0 1 1 1v2h1l5 2q4 0 5 2 1 0 5 1 5 1 6 1h1l1 2q1 0 3 1h2l1 2q0 1 2 3 2 0 3 1l1 1h2v1l1 1v1h-1l-1 1h-1q-1 0-6 5-6 5-10 6l-5 1-1 1h-2v-1t-1 0q-1-1-1-1h-1q-1-1-5-1-3-2-14-4-11-4-12-5 0-1-5-3-5-1-21-4-16-2-17-4-1 0-9-1-9-1-14-3l-5-2h-2v-2q1-1 0-6-1-4-2-9-2-5-3-7l-1-3z" fill="#e8e7e7" stroke="#e8e7e7"/>
  <path d="m981 700h5v20q0 9-7 12-7 2-13 4-5 2-14 3-8 1-12 3t-6 2l-2 1q-1 1-1 1h-7l-2-1h-1v-3q1-4 1-5t3-9q3-9 4-13l2-4 6-2q6-1 15-3t16-3 8-2q0-1 5-1z" fill="#e9e9e9" stroke="#e9e9e9"/>
  <path d="m434 664v4l1 1 1 1v1h1v1h1v1h1v1h1v1h1v1h2t3 1l4 1h2v4h-1l-1 1-1 1h-1l-1 1-1 1h-4q-5 0-9-2h-4v-1q1 0 0-5l-1-5v-3q0-4 1-5t3-1q2-1 2 0z" fill="#de9d79" stroke="#de9d79"/>
  <path d="m629 422v1h-1q-2 1-4 3l-3 2h-1v4q0 3 2 4 0 1 1 1v1h1v4h-2l-1-1h-1v-2h-1v-1h-3t0-2q1-2 0-2l-2-1t0-1-1-1v-1q-1 0-1 0v-2h-2v-1l-1-1v-2h1l2-1q3-1 4-1 0 0 0 1h1l1-1q2 0 6 0t5 0z" fill="#c28665" stroke="#c28665"/>
  <path d="m683 323l-1-2h2q1 1 6 1h4v1h1v1h1l-1 2q-1 1-1 2v1q-1 1-1 1h-1t0 1v3q0 2-4 5-3 3-10 3l-8 2v4h-1q-1 0-2-2-1-1-4-2l-3-2-1 1h-1v-2l1-1h1v-3h-1v-1h-1v-1l-1-1v-1h2v1l1 1v1h1v1h1v1h5v-1h-1v-1h-1q-1 0-1-4v-4h2v1h1v1h1q1 2 6 1 6 0 5-1-1 0-1-1h2q2 0 2-2-1-1-1-2t1 0q2 0 1-2z" fill="#694730" stroke="#694730"/>
  <path d="m587 400h1v5h7q7 1 9 1h1t-7 1l-6 1v4h2v1h-1q-1 1-5-1-5-2-8-1l-2 1h-1l-1 1h-1v-1l1-1v-1h2v-1h1v-1h1v-1l3-3q3-2 3-3t1-1z" fill="#dd9b78" stroke="#dd9b78"/>
  <path d="m801 352h3v7h1l-1 2q-2 2-3 8t-5 11q-2 5-3 5v-1q-1 0-1 0 0 1-1-1l-1-2h1v-1h1v-1l1-3q1-2 1-4 0-1 1-1t1-5q1-4 2-4t2-5v-5h1z" fill="#89766a" stroke="#89766a"/>
  <path d="m871 687v-1l7 1q6 1 12 2 6 2 15 5 10 2 15 3h4v2h1v1h1v2q0 1-1 2v1l-3 5q-2 5-4 11t-3 12-1 9v3h-1l-1 1h-5q-1-1-1-1v-1t-1 0h-11t0-2-1-6-3-6q-2-3-4-8-2-6-6-14t-6-10q-3-3-4-2v1-2q0-2-1-3h1v-2q0-3 1-3z" fill="#e6e6e6" stroke="#e6e6e6"/>
  <path d="m749 427v-1q1 0 1 76v81h-1q-1 0-2-5l-1-5v-1t-1 0h-6q-6 0-7 1 0 1-2 1h-1l1-1q0-1 0-1h1t1-1v-3q0-2 1-3t0-6l-1-5h4t0 1h1l3 1q2 1 3 1 0 1 1 1h2v-1l1-37v-46q-1-8-1-9t0-9l1-9v-1q1-1 1-10l1-8v-1z" fill="#292c2b" stroke="#292c2b"/>
  <path d="m792 731h-2t-2 1q0 1-1 6 0 6 1 6t1-1h1l1-1q2 0 2 0v2l1 3v4l-1 1-1 1v1h-4q-4 0-4 1-1 1-1 1v6l1 6 4 1h4v3h-40v-1h-1v-1h1v-1h12l13-1h1l1-18q1-18 1-19v-1h2v1h1q0 1 1 1h2t0-1h1l1-1t2 0q3 0 2 1z" fill="#212323" stroke="#212323"/>
  <path d="m1210 267q0 1 0 1h1l1 1q2 1 2 2v1h1q1 1 1 2-1 0-1 1h-1q0 1 0 1 0 1-1 2h-1t0 1q-1 1-1 1-1 1-1 1-1 1-1 1h-7l-1-1q-1-1-2-3l-1-2v-4q0-4 2-4 1 0 1-1t4-1 5 1z" fill="#88a7a7" stroke="#88a7a7"/>
  <path d="m454 577l4-1t1 0v2q-1 2-1 2h-4q-4 0-4-1-1-1 4-2z" fill="#9e5e3a" stroke="#9e5e3a"/>
  <path d="m578 332h-3q-1 0 1-4 2-3 3-2 1 0 0 3t-1 3z" fill="#a79488" stroke="#a79488"/>
  <path d="m18 523l5-1 1 3q2 3 0 3h-3q-1-1-1-1v-1t-1 0l-2 1q-2 1-3 1 0 0-1 0v1h-1q-2 0-2-1v-2t2-1q1-1 6-2z" fill="#283434" stroke="#283434"/>
  <path d="m520 489l1-2 1 2q2 3 6 3 4 1 4 4t0 4v2q0 1-2 2l-2 1v2h-1v-1q0-1-3-1h-2v-3h-1v-2q-1-1 0-4t-1-4q0-1 0-3z" fill="#c89473" stroke="#c89473"/>
  <path d="m15 786l4-2h1l5 4q5 4 6 2 1-1 1-1v1q0 2-1 3v1h-2q-2 0-4 2-1 2-3 5 0 3-1 2 0-1-2-1-2-1-3 0 0 2-1 2l-1 1h-8v-5h1v-1h1l1-1h1v-1l1-5q1-4 4-6z" fill="#81a2a2" stroke="#81a2a2"/>
  <path d="m772 648h5v-1h1v6h-1v1h-1v1h-1v1h-2v-1h-1v-1t-11 0l-11-1v-1h17v-1h1v-1h-1l-4-1q-4-1-4-1h5q6 0 8 0z" fill="#d79573" stroke="#d79573"/>
  <path d="m1202 528l2-3 3 1q3 2 5 4 2 3 3 4l1 1v1l-1 1q0 1-3 3l-2 2q-1 0-1 1h-3q-4-1-5-1h-1v-6q0-6 2-8z" fill="#86a6a6" stroke="#86a6a6"/>
  <path d="m572 481v-3h1q1 1 2 4 0 2 1 2 2 0 2 1l-1 1q-1 0-1 2t2 2q2-1 2-2v-1 3q1 2 2 2 2 1 2 2 0 2 1 4l1 1v3h2v1-3h2v-1q0-1 1-1l1-1h2t1-1l2-2q3-2 3-2t1 1h1l2 2q2 2 2 2v3q0 4 0 4l-2-2q-3-2-5-2-1 0-1 2t2 3q1 0 0 4 0 4 0 6 2 2 2 3v2h1v1h1v1h1v2l-3 1q-4 1-4 3t2 2h3l-1 1q0 1-1 3t-2 4q-1 1-1 1v-1q0-1-2-1-2-1-3 2t-2 2l-1-1-1-1-1-1v5q2 4 2 4 0 1 0 1h1v1q0 1-1 1l-2-1v1t-1-2-2-2q-2 1-2 5v3l1 1v1l1 1q1 1 1 1v2t-2 0-4-1l-2-1v-1h-1v-1q-1 0-2-1l-1-1t-1-1h-1v-1q0-2 1-4l1-2-1-1v-1h-2q-2 0-3 2v3h-1v-1h-1v-1h-1v-1h-1v-1h-1v-1q1-1 1-4v-4h-2v1t-1 1q-1 2-3 1l-3-1v-1q-1 0-1-1-2-1-2-3t1-5l1-2h-4v2q-1 2-2 2h-1t-1-1q-1 0-1-1-1-1-3-3l-3-2v-1q-1 0-1 0v-1h-1v-1h-1v-2h5v-1h1v-2h-3q-3 0-3 1t-3 0l-3-1v-2l-1-1-1-1v-1l-1-2v-1h1v-2l2-1q2-1 2-2v-1h2v2h1v1h2l1-1h1v-5q0-4 6-4t7-1q0-1 0-2h1l3 3q2 2 2 3h1v1h1v2h4l1-2v-3h-1l-1-1h-1t-1-1-2-3l-1-3v-1h-1l-1-1v-3h4v-1h1v-1h3v1l-1 1v1h1l2-1q1 0 2-1l1 2q1 1 1 2h1q0-1 1-1t0-3zm-1 12q2-1 3 0 0 1 1 4 0 3-2 1-2 0-3-3-2-2 1-2zm9 23q0-2 2 0 2 0 3 3 1 2 0 2-1 1-2-1t-2-2-1-2z" fill="#e6ac88" stroke="#e6ac88"/>
  <path d="m646 468l3-1h3q0 1 0 1h1v2q0 2-5 4l-5 1h-5v-2l1-1v-1h1q1-1 1-1l2-1q3-1 3-1z" fill="#9f613e" stroke="#9f613e"/>
  <path d="m1023 36l79-1h80q0 1 0 1h1v732h-1t0 1h-74q-74-1-75-4t-2-3l-1-1v-1q0-2-1-4t-3-8q-2-7-3-38l-1-30v-87q0-87 0-308v-241q0-8 1-8z" fill="#fcfcfc" stroke="#fcfcfc"/>
  <path d="m702 558h3l1 1q0-1 0-1h2v2t-12 6l-11 5q-1 0-1-1v-1l1-2q1-3 3-3 1 0 1-1h1v-1h4q4-1 4-2 1-2 4-2z" fill="#917d70" stroke="#917d70"/>
  <path d="m499 307v1q1 2 1 32v245h1v1h1v-1l1-1v-2l1 1q0 1 2 1 3 0 4 1v1h1l1 1q0 1 0 1-1 0-2 0-2 0-8 0h-16q-10 0-11-1t-7-1l-5-2h9l1-1h1v-6l1 3q0 2 10 2t11 0h2v-138q0-137 1-137z" fill="#7b817c" stroke="#7b817c"/>
  <path d="m630 413h3v2h2l-1 2q0 2 0 2v2q0 2-3 2h-2v-1q-1 0-5 0t-6 0l-1 1v-1q-1 0-1 0v-3q0-3 2-3h3v-1h4q4 0 4-1 1-1 1-1z" fill="#a16342" stroke="#a16342"/>
  <path d="m572 406h1v1q0 1-2 2l-2 1v1h-1v1q-1 2-1 2h-1t0 1q-1 1-3 3l-2 2q-1 0-5 6-4 5-5 6h-1l1 4q1 3 1 3 0 1 0 1h1v1h-1q0 1-2 1-3 0-4 4t-2 4-2 1v1t-1-1q0-1-2-1h-9v-6l4-1q4-1 8-9t9-12q6-4 10-8 4-2 4-3h1l2-2q3-3 4-3z" fill="#c98a69" stroke="#c98a69"/>
  <path d="m478 721t-1 1h-1q-1 0-1 22l1 23v1h16l36 1h36v1h-68v1l1 1h-45q-5 0-5-1v-1h-1q-2 0-2-2v-2h1v2h24v-1h1v-7q0-6-1-6 0 0-9-1-10-1-11 2t-2 4l-1 1t0-4v-5q1-1 1-1 1 0 1-4v-6h1v4l1 5q0 1 10 1h10v-12q0-11-4-12h-4l4-2q5-2 8-2 4-2 4-1z" fill="#484f4e" stroke="#484f4e"/>
  <path d="m504 573v-1h3v1h1v1h1v1h1v4q0 4 1 4h1v1h-2v1q-1-1-4-1-2 0-2-1l-1-1v-4l1-5z" fill="#c8997b" stroke="#c8997b"/>
  <path d="m770 774l68 1q68 1 68 3v3l-1 1q-1 2-1 10 0 7 2 9 3 3 2 3h-1l-30 1-30 1h-188q-13 0-23-1l-10-1h-1v-1h1v-1l1-1q1-1 2-3l1-1v-1t2-2q0-1 1-4 1-2-3-6l-3-5v-1l1-2 71-1q71-1 71-1z" fill="#88adad" stroke="#88adad"/>
  <path d="m604 584l-1-1h1l6 1q6 2 6 3t-1 1-1 1-1 4v3l-1 5q0 5 0 8v4h-1v1h-5v-1h-1v-9q1-8 1-10 0-3-2-3h-2q0-1 2-3t1-2-1-2z" fill="#ccc" stroke="#ccc"/>
  <path d="m1214 10h1l2 2q1 3 1 7 0 5 0 5-1 0-2 2t-4 2q-2 0-3 2t-3 2q-3 0-3-1v-3q1-1 1-2v-1l4-2q3-1 4-3 2-1 1-4-1-4-1-4t0-1h1q1-1 1-1z" fill="#445a5a" stroke="#445a5a"/>
  <path d="m434 707q0-7 2-7 3 0 4 4 0 4 4 8 4 5 0 6-4 0-7-2t-3-9z" fill="#da9876" stroke="#da9876"/>
  <path d="m577 557h1v1l2 1q2 1 4 1t2 0v-1h2q2 0 3 3 1 2 3 4 2 1 2 2v1h-3q-3 0-3-1t-5-2q-4 0-7-4l-3-3 1-1q0-1 1-1z" fill="#845d49" stroke="#845d49"/>
  <path d="m697 436l1 1q2 1 2 3v1h1v1h5t0 1h1l-1 1q0 2-2 2-1 0-1 2t2 3q1 1 1 3 0 3-2 4 0 1 0 3t0 3q-1 0-2 1v1h-1l-1-1v-1l-1-2v-4q-1-3-4-12l-3-8h2q2 0 2-1t1-1z" fill="#b27455" stroke="#b27455"/>
  <path d="m547 660h46v1q1 0 1 9v21q0 11-4 13-3 2-37 3l-34 1q-1 0-1 0v1t-1 1h-13v-1h-1v-1h1v-1l1-1h1l1-1 1-1h1t3-2q2-2 7-8 5-5 7-6 2-2 2-4 0-3-2-3-1 0-2-3v-4t-1 0 0-2v-1l4-4q4-3 11-5 8 0 8-1 1-1 1-1z" fill="#eae9e9" stroke="#eae9e9"/>
  <path d="m913 8v-1h1l2 1q1 2 2 2h1v1q1 0 2 1 1 2 2 4 1 3-4 7-4 3-5 5 0 2-2 3l-2 1t1-3q1-2 0-2l-1-1h1t-2-1l-2-1v-6q0-7 2-8 1 0 2 0v-1q1 0 1-1 0 0 1 0z" fill="#84a4a4" stroke="#84a4a4"/>
  <path d="m563 556l-4-5h2q0 1 1 1l4 3q3 3 6 4h3l3 3q3 4 7 4 5 1 5 2t2 1q2-1 2-1h1t1 1l3-1q3-1 4-2 1 0 8 0t7 0h1v1h1v1h1v1h-6l-6 1h-2q-2 0-1 2 0 2 9 1 9 0 9-1 0 0 0-1l2 1q3 0 6 1l2 1h4v1l-1 2-1 2v1h-2l-1 1-1 1h-1v1h-33q-5-1-6-1 0 0-8-2-8 0-8-2-1-1-5-2h-4v-1h-1v-1h-1l-2-1-2-1h1v-1h-1v-1h1v-1h2l3 1h3v-4l-1-2-1-1v-1h-1v-1q-1 0-4-5z" fill="#a2735b" stroke="#a2735b"/>
  <path d="m546 319h2l-2 2q-2 2 1 3 2 0 3 0 0 0 1-1h1v1t-4 1l-3 1v2h5v2q-1 0-4 0l-3 1h-1q0-1 0-1h-1l-1-1h-1v-1l-1-1v-1h-1v1h-1v-1l4-4q3-2 6-3z" fill="#9c6c54" stroke="#9c6c54"/>
  <path d="m648 501v-1h4v4h-1l-1 1h-1v2l1 1q2 0 1 3 0 3-1 5-2 2-3 2h-1v-1h-1v-1q1-1 1-4 1-4 0-4h-1l-1-1v-1l1-2q1-1 2-2l1-1z" fill="#b07e61" stroke="#b07e61"/>
  <path d="m620 665l-1-3h50t1 1v1t1 0l21 2q20 0 22 3 2 2 2 3 0 2 0 2h-1q-1 1-1 2v10q1 8 5 11t6 3 2 1h1v1h1l1 1 1 1h2v2h-2l-14 1h-14v-1q-1 0-1 0h-10q-10 0-11-1t-42-1l-41-2-1-9v-9h1v-10h2v-1l1 4q0 4 1 5 2 0 4 1h6l6-1 1-2 1-1v-1t1 0q1-1 1-5t0-5q-1 0-2-3z" fill="#e9e9e8" stroke="#e9e9e8"/>
  <path d="m501 180l1-53v1l1 2v3l3-1q3 0 4-1t4-1h2v1l1 18v20h-1q0 1 0 1l-1 16q-1 15-2 19-1 3-3 4h-2l-1 1h-1v2h-1v1h-1v1l-1 8-1 8v4h-1v-54z" fill="#070606" stroke="#070606"/>
  <path d="m580 516q0-2 2 0 2 0 3 3 1 2 0 2-1 1-2-1t-2-2-1-2z" fill="#c69071" stroke="#c69071"/>
  <path d="m594 426v-1 1q1 2 5 2t6 0q1-1 2-2t1-1h1v1l1 1v1h2v1h-4v3q0 2-2 3 0 1-1 2l-1 1h-4v-1t-2-1q-2-2-4-5l-1-3t1-2z" fill="#c99272" stroke="#c99272"/>
  <path d="m745 577v-5h1q1 0 2 6 0 5 1 5h1l1 2v2q0 1-3 1h-3t-2-1-3-2q0-1 2-1h1v-1h1q1-1 1-6z" fill="#8e6146" stroke="#8e6146"/>
  <path d="m654 426l2-2h3q3 0 3 2-1 2-4 3-2 0-2 1 0 2-1 3v1h-1q-1 0-1-3-1-2 1-5z" fill="#b88567" stroke="#b88567"/>
  <path d="m645 414h3l-3 4q-3 5-3 6v1t-1-1v-5h-1l-1-1h-2v-1l-1-1v2h-2v1t0-2l1-2 3-1q4 0 7 0z" fill="#cf8d6c" stroke="#cf8d6c"/>
  <path d="m608 333h1v1q-1 1-1 2-2 1-5 4-4 4-5 7-2 3-5 7l-4 5q0-1-1-1t-1-1v-2l1-1v-1h1v-1h1v-4h-4l-1 1q-1 1-7 1h-6v-1l1-1v-1h5l2-1 1-1q1-1 4-2t3-2 3-2 3-3v-1t1-1h5t0 1l1 2q0 2 3-1 3-2 4-3z" fill="#996854" stroke="#996854"/>
  <path d="m587 392h3v4q-1 4-1 4-1 0-1 0h-1v-1q-1-1-1-1 0-1-1-1-1-1-2 1-1 1-5 4l-4 4v-1q0-1 2-2l1-1 3-4q2-2 2-3h1v-1h1l1-1 1-1h1z" fill="#e19f7d" stroke="#e19f7d"/>
  <path d="m484 37l7-1 3 1q4 1 4 1t1 134v135q-1 0-1 137v138h-2q-1 0-11 0t-10-2l-1-3v-438q0-100 1-101 1 0 9-1z" fill="#b9d3d3" stroke="#b9d3d3"/>
  <path d="m376 685h1l-1 2q-1 1-2 2-1 0-2 2-1 1-2 2-1 0-2 3-1 4-2 4 0 1-1 2v1h-1q-2 0-4 3t-3 8q-1 4-3 7t-5 5q-3 1-4 1v1h-1t-6 1-14 3q-7 2-13 3l-6 1-1-1-1-1h1v-11q0-11 0-15t1-4q1-1 1-2t6-2 6-2 8-2q8-2 14-4 6-1 12-3 6-1 13-3t7 0q1 1 2 1t1-1 1-1z" fill="#e2e2e2" stroke="#e2e2e2"/>
  <path d="m736 701l5 2q5 2 6 2 0 1 1 1l-1 2q-1 2-2 2t-1 2v1h3q3 0 3 1v1h-1q-1-1-1-1h-1t-2 0-6-2-21-3l-16-1v-2h34v-5z" fill="#ad8977" stroke="#ad8977"/>
  <path d="m5 526v-4h1v7h1v1h1v-1t1-1l1-1v1q0 1 1 1 1-1 2-1h1v1q0 1-2 2-3 1-2 1h1l1 4q0 4 1 5l1 1h4q3 0 6-2l2-2-2 4q-2 3-1 4 0 1 1 1 1 1 1 1h-2q-1 1-2 2l-1 1v1h-2q-2 0-3-2-1-1-3-2h-3v-1h-1v-1l-1 4q-1 4-1 31v27-34q0-33 0-36v-7l-1-5z" fill="#698b8b" stroke="#698b8b"/>
  <path d="m609 494v1q-1 1-2 1l-1 1t-2-2l-2-2v-2q0-1 2-1 2 1 4 2 0 1 1 2z" fill="#b9876b" stroke="#b9876b"/>
  <path d="m738 422l-2 2q-2 1-2 5t1 5l1 1v3l-1 2v2q0 2-2 2h-2v1h-1v1l1 1 1 1v1h1v1h3v4l-2 1-1 1h-1l1 3q0 3 1 3 0 1 0 2-2 2 2 4 4 1 4 4 0 2 1 3 2 1 2 2 1 1 1 1l-1 5q-1 5-3 5-1 1-1 2v1q-1 0-1-1t-1-1q-1 1-1 3v4h1l-1 1v1h-1l-1-1v-1h-1v-1h1v-1t-1-1-5-1q-5-2-8-1-2 0-2 3v5h-2v-2h-1v1h-1v-2q0-2-1-3t-3 1q-2 0-4 0l-2-1h-1l-1-1h-1v-1h-1v-4h2v1q0 1 2 1 2-1 2-2t-1-1q-1-1-1-2t1-1q1-1 1-2l1-2v-1q-1-2-2-4-2-2-1-2 2-1 2-4t-1-4h-1q0-1 0-3t0-3q2-1 2-4 0-2-1-3-2-1-2-3t1-2q2 0 2-2l1-1v-1q-1 0-1 0 0-1 0-4t-5-8l-4-4v-1h-1v-1h-1v-1h-1v-1h-1v-1h-1v-1h-1v-1h1l1 1h1v1h1v1h1v1h1v1h1l3 2q3 0 10 0t12-2 7-4 2-1 2 0 2 1q0 1 1 1 1 1 1 1zm-16 44q2 0 2 2 1 2 2 2 2 0 2 2t-4 0q-3-2-3-3-1-2 1-3zm11 12q2-1 1 2 0 2-2 2-1 0-1-2 1-2 2-2z" fill="#e8ad8a" stroke="#e8ad8a"/>
  <path d="m666 412h2t0 1h1l2 2q2 1 3 2h1q0 1 1 1h1v1h1v1l4 2q3 4 5 6 1 3 2 4v5q0 4-1 4h-2q-2 1-3 1t0-2 0-4l-1-1v-1t-1 0h-1q-2 0-4 3l-2 2v3l1 1q1 1 2 3v1l-1 1q-2 1-2 3t2 2h2v1h2q1 0 1-1h1q2 0 1 1-1 2-1 2v1h-1q0 1 0 1l1 2q0 2-2 2-1 0-1 1h-1q0-1-4-2-5-2-5-3t-1-1h-1q0-1-2-2-3-1-7-3-5-2-13-2-9 0-14 1l-5 1-1 1h-3q-2-1-11-2t-15 0l-5 1v1h-1v1h-1v1h-1v1h-1v1h-1q-1 1-8 4l-8 3v1h-1v1h-4v-1l1-1v-2h-1v-1h1l1-1q1 0 3 0h1v-1h1v-2h-1v-1h-3q-2 0-2-2v-1h-1v-2h1v1l1-2q1-1 1-1v1q1 2 2 2h2v-1l1-1 1-1v-2q0-1-2-2l-2-1h2v-1h2q1-1 1-3 1-2-1-4l-2-2h2q2 0 3-2t5-4 5-2q1-2 1-2h1v2q0 1 1 1 1 1 2 1h1l1 3q2 3 4 5 2 1 2 1v1h4l1-1q1-1 1-2 2-1 2-3v-3h4v2h1v1h1v1q-1 1-2 1t-2 2v2h9v1h1v2h1l1 1h2v-4h-1v-1q-1 0-1-1-2-1-2-4v-4h1l3-2q2-2 4-3h3q3 0 3-2v-3h2v-2l1 1v1h2l1 1h1v4h-1q-2 1-3 2l-1 2h-1v1h-1v1h-1v1h1l2 1h1v-2h1l2-1h1v-1h1v-3q0-1 3-6l3-4h1t1-1l1 1q1 0 4-2 3-3 6-2 4 2 5 2zm-12 14l2-2h3q3 0 3 2-1 2-4 3-2 0-2 1 0 2-1 3v1h-1q-1 0-1-3-1-2 1-5z" fill="#f1b38e" stroke="#f1b38e"/>
  <path d="m710 330h3q1 1 1 4v2h-1q-1 0-1 1v1t-1 2v2h-1t0 1q-1 1-1 1h-2q-2 0-4 1t-5 1h-3v-1q-1 0-1 0l4-1q4-2 6-4t2-4q0-3-2-3-1 0-1-1v-1l3-1q3 0 4 0z" fill="#825a50" stroke="#825a50"/>
  <path d="m30 275v-1h1v1h1v1l1-1 1-1v124q0 125 1 129v7q-1 2-1 8v7t-1-3-2-2h-1q0-1 0-6v-4q1 0 1-1v-2q-1-2-1-4-2-2-4-3l-3-2-5 1q-5 1-6 2-2 1-2 1v1l-1 1q-1 1-1 1v1h-1v-1h-1v-7h-1v-120l1-119v-1h2v1h1v1q1 1 2 3 2 1 7 2 4 1 7-2 3-2 5-5l1-4v-1q-1-1-1-2z" fill="#89aeae" stroke="#89aeae"/>
  <path d="m608 780l2-2h2v1q1 1 4 1h2v1l-4 1q-4 2-4 8v6l1 2q1 2 0 2 0 0-1 1h-1v-1q-1 0-1 0v-1q0-1-1-1t-2-3l-1-3v-4q0-3 1-4 0-1 1-1t2-3z" fill="#455a5a" stroke="#455a5a"/>
  <path d="m402 699l2 1q2 1 6 9 4 7 6 9t2 2v2q-1 0-2 1h-1q0-1-3-3-4-2-6-7l-2-5h-1v-1h-1q0-1 0-4l-1-3h1t0-1z" fill="#9a8072" stroke="#9a8072"/>
  <path d="m402 649h1l-1 19q-2 18-1 19t1 7v5q0 1 0 1h-2q-1 0-3-6-1-6-3-18v-11l-2 1q0 1-1 2l-1 1v-5h1l1-1q1-1 2-3 0-2 3-2t3-1v-1l1-4q0-3 1-3z" fill="#9b877a" stroke="#9b877a"/>
  <path d="m643 104h1t1 0v-1l1 1q2 0 2 1l1 3q1 2 2 3 1 0 1 5v5h1v1h2v2h-2l-1-1h-1v-5q-1-4-1-4 0-1-16-2-16 0-18 6v6l-1 4-1 4v-15q0-13 1-14t13-1 13 1 2 1z" fill="#464646" stroke="#464646"/>
  <path d="m597 669v24l1 9 41 2q41 0 42 1t11 1h10t0 1h1l16 1q16 2 20 4t6 2 3 0h1t1 1v11q0 10 1 20v16l1 6v2h-2v-1h-1v-1h-1v1h-1v1h-2v-1h1v-9q0-8 0-9t-9-2q-8-1-33-1-26-2-26-3-1-1-32-1h-30v1q0 1 0 1v1h-2q-1-1-4 0h-2v-1t0-1-4-1h-6v1l-1 11v11q0 1 1 1v2h-1v-1q-1 0-1 0-1-1-16 0l-16 1v-1h27q2-1 3-13v-12h-4q-2 0-3 0-1 2-33 2l-31 1h-1q-1 1-10 1h-8l-1-2v-18q1-16 7-17l7-1h1t0-1q1-1 1-1l34-1q34-1 37-3 4-2 4-13v-11l1 5 1 5v-10q0-11 1-11z" fill="#080909" stroke="#080909"/>
  <path d="m681 436v-2h1q1 0 2 3 0 3 2 4h1v3q-1 2-2 2-1 1-3 4-1 2-1 3h-3q0-1 0-1 1 0 2-4 1-3 0-3-2 0-2 1l-1 1v-1q-1-2-2-3l-1-1v-3 2h1v1h2v-1h1v-1q0-1 1-2 1 0 2-2z" fill="#daa17f" stroke="#daa17f"/>
  <path d="m704 594h2q2 1 2 2v2t-2 1-2 2q-1 1-4 1-4 0-4 1v1q-1 0-2-2v-1l1-2q1-1 4-3t5-2z" fill="#8f8e8e" stroke="#8f8e8e"/>
  <path d="m523 321l2-2v1l-1 1v1l-1 2q-1 2 0 2t2 0 2-1h1v1h-1v1h-1v1h-1v1h-1q0 1-2 2l-1 1h-3v-3h1v-1h1v-2q0-3 3-5z" fill="#bf8666" stroke="#bf8666"/>
  <path d="m910 782l3-2h3l4 4q4 4 3 6-1 3-1 4-2 1-2 1v1h-1l-1 1q0 1 0 1-1 0-1 1h-1q0 1-2 1h-2v-1h-1v-1h-1l-1-1-1-1-1-6q0-6 3-8z" fill="#85a5a5" stroke="#85a5a5"/>
  <path d="m470 567v1q0 1-1 2-1 0 0 4 1 5-3 5-5-1-5-1h-1t0-1h-1v-1q-1 0-1 0t-10-1h-9l4-3q4-2 15-4 11 0 11-1 1 0 1 0z" fill="#efbe9f" stroke="#efbe9f"/>
  <path d="m706 479h1l-1 2q0 1-1 2-1 0-1 1t1 2q1 0 1 1t-2 2q-2 0-2-1v-1h-2v2q-1 1-2 1 0 0-2 0l-1 1v-3l1-4v-1h1q0-1 1-1l2-2q2-1 2-2 1 0 2 0 2 0 2 1z" fill="#bc886a" stroke="#bc886a"/>
  <path d="m620 594h3l1 1 1 1h1l-1 5q-1 5-1 5 0 1-1 1v1h-5q-1 0-2-5l-1-4 1-2q1-3 4-3z" fill="#9a9b9a" stroke="#9a9b9a"/>
  <path d="m344 728l1 1q1 0 1 2 1 1 2 1t1 0h1l-1 2q0 2-2 4-3 2-2 4 1 1 1 2h-2q-1 0-1-1h-1v3q-1 3-2 3t-2 4q0 5-1 5t-1 2q0 1-1 2l-1 1v1l-1 2v2h2l6 1h6v2h-2l-2 1h-6v1h-41v-1h-9v-2h3v-1h7l7-1h2v-2h-1v-1h-1q0-1-1-8t-1-9q-2-2 0-7l1-5h2l6-1q6-1 13-3 8-2 14-3t6-1z" fill="#171818" stroke="#171818"/>
  <path d="m796 686h-1l-1-1-1-1h-2v-1h-1v-5l4-1q4-2 8-6 4-5 5-5t2 5-4 9q-4 4-5 5-2 1-4 1z" fill="#d99573" stroke="#d99573"/>
  <path d="m612 432v-2h1q1 1 1 2t0 1l2 1q1 0 0 2 0 2 0 2h-6v-2q0-1 2-2 1 0 0-2z" fill="#cd9371" stroke="#cd9371"/>
  <path d="m972 644h2t1 0v3q0 2-1 2h-2q0-1 0-2l-1-2q0-1 1-1z" fill="#8a8787" stroke="#8a8787"/>
  <path d="m752 36v-1h21l3 1q4 0 4 10v11l1 1 1 1v242l-1 3q-1 3-1 53v50l1 4 1 4v126h-1q-1 0-2 19-1 20-6 20t-5 1l-1 1h-5l-2-1-1-1h-1v-1l-1-61q-1-61-1-220t-2-207q0-48-1-47-1 2-2 0l-1-1 1-3q1-4 1-4z" fill="#aec7c7" stroke="#aec7c7"/>
  <path d="m750 678v-1l9 1q9 0 9 1t2 1h2l2 1 2 1h1v1h1v5h-2l-1-1-1-1h-4q-3 0-4-1t-8-1l-6-1h-2q-2-1-2-1t0-2q0-1 1-1t1-1z" fill="#af704e" stroke="#af704e"/>
  <path d="m839 666l1-8 4 3q4 3 4 4v1h-2q-2-1-2 14 1 16 0 16-2 1-3 4-1 4-2 4t-1 1-1 1h-1t0 1h-1q-1 0 0-3l1-2 1-4q1-3 1-14 0-10 1-18z" fill="#9e8c80" stroke="#9e8c80"/>
  <path d="m628 794l1 2q1 1 1 1l-1 1q-1 2-2 3l-1 1v1h-1v1h1l10 1q10 1 23 1h13l-10 1q-11 1-22 1t-51 0l-40-2h5q6 0 32-1h25l1-1q2 0 2-1t4-2q3-1 6-4 4-3 4-3z" fill="#374545" stroke="#374545"/>
  <path d="m602 283v-1h3v2l1 1v1l-1 1-1 1v1l-1 1q-1 1-2 2l-2 2h-1t0 1h-1v-1q1-1 1-2 1-2-1-2h-2l1-2q2-2 2-2h1l1-1h1v-1l1-1z" fill="#ad7e61" stroke="#ad7e61"/>
  <path d="m609 332v1h-1q0 1 0 1-1 0-1 1h-1q0 1-2 2-3 2-3 0l-1-2q0-1 0-1v-2q1-2 4-2 2-2 3-1t2 3z" fill="#8e5740" stroke="#8e5740"/>
  <path d="m732 571q1 1 7 1h6t1 1v5q-1 4-2 5h-4q-4 1-10 1h-5q-1 0-1 2v2t-1-2v-2t-1-1h-1v-1l1-1v-1h2l1-2q1-2 2-2t1-1 1-1h1q2 0 1-1 0-1 0-1t1-1z" fill="#d3a68a" stroke="#d3a68a"/>
  <path d="m1002 34h12v1l-12 1q-12 0-12 79t0 339v260l-1 2-1 2v-6h-1v-1h-1v-11h-5q-5 0-5 1-1 1-8 2t-16 3-15 3l-6 2h-1l-2 1h-1l-1 1h-1v-9q1-1 1-2v-2h-1v-1h-1v-2h-4q-5-1-15-3-9-3-15-5-6-1-12-2l-7-1v1q-1 0-1 3v2h-3v-1q-1-1-2-3l-1-2t-2-1q-3 0-3 1 0 2-1 1l-2-1v-2q0-2-3-8-2-5-3-5t-2-3v-3q0-1-4-4l-4-3q0-1-2-6-2-4-4-9l-1-5v-1h-1v-7h3l5 2q5 2 14 3 8 1 9 1 1 2 17 4 16 3 21 4 5 2 5 3 1 1 12 5 11 2 14 4 4 0 5 1h1q0 1 0 1h1t1 1q0 1 2 1h3l1 1h1v3q-1 2-1 4v2h-1v1h-1v1l-1 1-1 1v4l10-1q10-1 22-3t12-2v-318q0-318 0-318-1 0-3-1h-2 4q4-1 17-1z" fill="#101111" stroke="#101111"/>
  <path d="m400 609h6q2 0 1 5-1 4-1 12-2 8-2 10 0 1-1 2-1 0-2 0v1q-1 0-1 1h-2q-3 0-8 2-5 0-11 3t-13 3q-8 2-19 4t-14 3-4 3q-1 0-11 3l-11 3t-3 0h-4l-1-2q-1-1-2-7t-1-9q1-4 3-4t3-1v-1h1l3-1 2-1 3-2q3-2 10-5 7-2 8-3 1 0 5-1 5-1 5-1l3-1q2-1 6-3 5 0 14-3 10-3 15-3 5-1 6-2 0-1 5-2 6 0 6-1 1-1 6-2z" fill="#e8e8e8" stroke="#e8e8e8"/>
  <path d="m1 0h1l2 5q3 5 4 3 2-1 2-1v-1l1 1q1 0 2 1-1 1-2 2l-1 1-1 1-1 1v1h-2v6q0 6-1 127v123l-1 2h-2v-126q0-126-1-133l-1-7v-3q0-3 1-3z" fill="#323e3e" stroke="#323e3e"/>
  <path d="m652 348v-1h1v1h1v1h1v1h1l4 5q5 5 6 6 0 1-2 1l-3 1q0-1-1-2-2-2-4-3h-2v-1q0-1-2-2l-1-1q-1-1-1-2l-1-1v-1l1-1v1h1v-1h1v-1z" fill="#b47451" stroke="#b47451"/>
  <path d="m392 666l2-1v11q2 12 3 18 2 6 3 6h1l1 3q0 3 0 4h1v1h1l2 5q2 5 6 7 3 2 3 3l1 1q1 2 2 2h1l1 1 1 1h1l3 2q4 2 7 4t8 2h7v-1h1v-1h1l1-1h1v1l1 1v1h-1v1h-1v1l-1 1v1h-1v3h-1v1h-1q-1 0-4 0-2 0-3 0-1 2-19 2-17 0-18-1l-1-1q-1-1-1-1h-1l-1-1t-3-2-7-8q-4-7-6-8-1 0-1-16v-16h1t1-5 3-10l2-5t1-2l1-1 1-1q1-1 1-2z" fill="#e9e9e9" stroke="#e9e9e9"/>
  <path d="m782 562v-18l1 16q1 15 7 15t7-1q1 0 2-1h1v3q0 4 2 4h2v-2h2q2 0 2 1h1q0 1 1 1 0 0 1 0v1h-3v2h1v1h2v1h1v1h1v1h1v1h-6q-5 0-6-1t-8-3q-8-2-11-1h-3v-1h1t0-1q1 0 1-19z" fill="#b07c60" stroke="#b07c60"/>
  <path d="m658 398h3l3 2q2 2 3 2v1h-1q0 1 0 1-1 0-2 1l-1 1h-1t0-2q-1-1-2-1-2-1-3-3t1-2z" fill="#b87553" stroke="#b87553"/>
  <path d="m746 682h2t2 1h2q0 1-9 1l-9 2v13q2 1 2 1v6h-3v-2h-2l-1-1-1-1h-1v-1h-1q0-1-2-1t-6-3-5-11v-9 1l1 2v1h1l1-1h1v-1l1-1q0-2 3-2 4 0 7 1t9 2 6 2q1 1 2 1z" fill="#df9f7e" stroke="#df9f7e"/>
  <path d="m401 36l3-1h46q41 1 41 1l-7 1q-8 1-9 1-1 1-1 101v100t-1 3-2 2h-1v-2q0-2-2-3l-1-1h-1v-1l-1 3-1 4h-1v1h-1v-5q0-4 1-4 1-1 1-6 2-5 2-13 1-8 2-8 1-1 1-86t-34-86l-34-1z" fill="#576261" stroke="#576261"/>
  <path d="m299 732v1h1v1h1v1h1v1h1l-1 5q-2 5 0 7 0 2 1 9t1 8h1v1h1v2h-2l-7 1h-9q-2-1-2-2-1-1-6-2-4-1-10-2l-6-1v-1h-1q0-1-9-1l-8-1v-1q0-1 0-12v-15q0-3 1-6t0-3l-1-1h1l1-1h1l2 1h2l1-1q0-2 12-1t16 2q3 1 6 4 2 3 6 5t5 2z" fill="#e6e6e6" stroke="#e6e6e6"/>
  <path d="m608 0h609l1 1q2 1 2 1h-4q-3 0-2 4l1 4h-1t-1 1h-1q-1-1-3-3t-4-1q-3 1-5 2t-2-3q0-3-1-3h-1l-1-1h-7q-2 0-134 0-131 0-131 2v2q1 1 1 2v2h-1v1h-1v-1h-4q-1 0-2-2l-2-1v-1t-1 0v1h-1q0 1 0 1-1 0-1 1h-1q-1 1-1 1h-1l-1-1h-1v-3t1-2q1-1-1-2h-284l1 2q1 2 1 3 0 0 0 1v1h-1l-1 1h-1q-1 0-2-2t-5 0l-3 2h-2v-1h-1v-2t1-1h1q1-1 1-2-1-1-1-1v-1h-9l3-1q4-1 4-1z" fill="#3e4e4e" stroke="#3e4e4e"/>
  <path d="m554 440l-2 6q-2 7-3 8l-1 1v1q-1 0-1 1h-1q-2-1-3-3l-1-2v-1q1-1 2-1t2-4 4-4q2 0 2-1t1-1q1-1 1 0z" fill="#a16647" stroke="#a16647"/>
  <path d="m557 432l2-2 1 1q0 1 0 3t-1 2v1h1v1h1v1h1v-1q1 0 2 1h1v2h1l1 1h-1q-1 0-1 2t1 2q2 1 2 2v1t-1 1l-1 2v-1h-1v1q-1 0-1-1t-3-1q-3-1-3 0 0 2 2 2 1 1 0 2v2l-1 2q-1 2 0 2l1 1q1 1 2 1 2 0 2 0h2v2l-1 1v1l-1 1q-1 1-4 1h-2q-1 0-1 1v1q1 2 1 5v3h-1v-2l-1-2-1 1-1 1h-2v-1h1v-1h1v-2q0-1-2-2-1 0-1-2l1-2v-2q0-1-3-1t-4 0h-2v-1h1v-3l1-1q1 0 2 0v-1q0-1 1-1v-1l1-1q1-1 2-7l2-6q1 0 1-1 0 0 1-2 1-3 2-6z" fill="#e9ab88" stroke="#e9ab88"/>
  <path d="m692 496l3-5v1q0 1 2 2 2 0 3 2 2 2 3 1t1-3v-1l2 1q2 0 4 0 2-2 3-1t1 3v2h1v-1h1v2h1l-2 4q-1 4-1 6v3h1l1 1 1 1h-2v1h-3q-1-1-2-1h-2v3q0 1 1 3 1 1 1 2-1 0-1 1h-1q0 1 0 1-1 0-4 1-4 1-7 6l-3 5v1l-1 1h-5v-1h2l1-1h1v-3h-1v1h-1v-2q0-1 0-3t3-3l3-2-1-1v-1h-1q-2 0-4 0h-2v-2q0-3 0-4v-2q1 0 2 0h2t1-2v-2h-1q-1 0-1-1-1-1-3-2l-2-1v-1l1-1q0-2 1-2 2 0 4-6zm8 19q1-1 2 2 0 2-2 2t-2-2 2-2z" fill="#e4a986" stroke="#e4a986"/>
  <path d="m580 609h2l1 1q1 2 4 2t4 1h1q0 1 0 1h1v1h-1q-1-1-4-1t-4 2q-2 0-3 0-1-1-1-3l1-1h-1q-2 0-3 0h-1v-1q0-1 1-1t3-1z" fill="#535756" stroke="#535756"/>
  <path d="m682 460l-1-2 3 1q2 1 4 2t4 1 3-1 1-1q1 0 2 0h1v2l1 2v1l1 1v2q-1 1-4 0h-5l1 5q0 5 0 6t0 2h-1q0 1 0 1h-1q-1 0-1-1l-1-1h-1v-2h-3v-1h-1v-1l-1-2q-1-2-2-4l-1-2h1q1 0 2 1 1 0 1-2t-2-3l-3-1q0-1 1-1 2 0 2-2z" fill="#d09675" stroke="#d09675"/>
  <path d="m522 566v-1h2q0 1 0 1h1l1 7q0 7 1 7 1 1 2 4 0 2 3 3 4 1 4 3v1h-4q-3-1-5-3t-3-4q0-3-1-2-1 0-6 1l-5 1v-1h8v-1q0-1-2-3v-4l2 1q2 0 2 2v1h2v-6q0-6-1-6t-1-1z" fill="#878786" stroke="#878786"/>
  <path d="m378 692l1-1h1q0 1 0 1h1v16q0 16 1 16 2 1 6 8 4 6 7 8t3 2l1 1h1v1h1v1l-1 1-2 1h-2v-1l-1-1v-1h-3q-2 0-5-3-3-2-4-5t-2-4l-2-2v-1q-1-1-1-2t-1-18v-17q1 0 1 0z" fill="#6c6c6c" stroke="#6c6c6c"/>
  <path d="m1021 682l1-2 1 30q1 31 3 38 2 6 3 8t1 4v1l-2 1q-2 0 0 3t1 3q-1 1-1 2v2h-2q-3 0-66 0l-64 1v-1h-6v-1h-1v-1h9v-1h3l3-1h1v-1h1v-2l-1-1-1-1q0-1-4-7l-3-6h-1v-2l-1-2v-2h10t1 1q0 1 0 1h13q12 0 12 0 1 0 1 0v-1l2-1q2 0 6-2t12-3q9-1 14-3 6-2 13-4 7-3 7-12v-9h1v1h1v6l1-2 1-2 1 27q1 27 14 27t14-42 2-42v-2zm-46 87h-10v-2q0-2 5-3 4 0 10-1 6 0 5 3 0 2-10 3z" fill="#111313" stroke="#111313"/>
  <path d="m551 526h3l-1 2q-1 3-1 5t2 3q0 1 1 1v1l3 1q2 1 3-1 1-1 1-1v-1h2v4q0 3-1 4v1q0 1 1 1v2h-3v1l1 1v2h-2v-3h-1v-1h-1v-1t-1-1q0-1-3-4-4-2-6-6l-1-4h-2v-1q0-1 1-1h2q1 0 2-2v-2h1z" fill="#a37359" stroke="#a37359"/>
  <path d="m574 298h2v4h1l2 1h2q0 1-1 1h-1v1h-1v3h-1l-1 1-2 1h-3v1h-1q-1 1-1 1h-1t0 1h-2q-2-1-4-1-3 0-6 2l-4 1v-1h3v-1h1v-4l6-1q6 0 5-2 0-2-1-2 0-1 0-2 0 0 1 0v-1l3-1q4-2 4-2z" fill="#663d24" stroke="#663d24"/>
  <path d="m624 494h1v-1h1v1l1-1q1-1 1-1l-1 6q-1 7-1 8v2l1 1 1 1t2 0h4q0 1 1 0t1-2l1-2q1-1 2-1h1q0 1 1 1h1v2h4q1 0 0 4 0 3-1 4v2l1 2 4 2q5 2 6 2t2 1l-1 3q-1 2-1 3v2q0 1 2 1 2-1 2-2t2-2 2-2 1 0q1 0 3 0t2 1h-2q-1 1-2 2v2h1l1 1h1l1-1h1v-1q1-1 0-2v-1q1 0 1-1v-2h5v1h1v2l-1 1v2h3v1l-2 1q-2 0-2 2t1 2v2h-1v4h3t-1 1-2 3q0 2-3 3l-3 1-1 1q-1 1-2 3l-2 1h-1q0 1-1 1-1 1-4 1t-3 3q-1 2-15 3l-14 1h-9t-7 0-8 0q-1 1-4 2l-3 1v-1t-1 0v-1q-1-1-2-2t-2-3q-1-3-3-3h-2v-1t-1-1l-1-1v-1h1l1-1h1q1 0 1-2v-3l2 1q1 0 1-1v-1h1q2 0 2-1t2 0q1 1 3 1h2v-1l1-1v-2h-1t-1-1q-2-1-2-3v-1t0-2 1-1q1 0 2-2t1-3l1-1h1q1 0 2 0t2-1q0-1-1-3l-2-2v-2h5q6 0 6-1h1v-1h2v-1h1v-3h-1v-1h-1v-1h-1v-1h-1v1h-1l-1-1q-1 0-1 1t-1 1-1-1q1-2-3-2h-3v-2l1-1v-5t0-4v-3l1-1q1 0 2-1v-1h1q1 0 2 1 0 1 2-1t4-1 4 1q1 0 2 0zm7 16h1v1h-1v1h-1v1-1q0-2 1-2zm5 8q1 0 2 1 0 2-1 3-2 0-2-2-1-2 1-2zm16 7q0-1 1-1t1 1-1 1-1-1zm-24 1q4 0 4 1t-4 1q-5 1-5 0 1-2 5-2zm-24 11q2-1 2 1 0 1-2 1-2 1-2-1 0-1 2-1zm61 1q1-1 0 2-1 4-1 1t1-3zm-39 6q2 0 2 2 0 1-2 1-3 0-3-1 1-2 3-2zm-2 11q2-1 2 1 0 1-2 2-2 0-2-2 0-1 2-1z" fill="#e6ac88" stroke="#e6ac88"/>
  <path d="m691 601h3v1q1 2 2 2 0 1-4 2-3 0-8 3-6 3-13 4l-7 1h-1t-1 1v1h-3q-2 0-2-1l-1-1h1l3-1 2-1 1-2q1-2 7-2 7-2 12-4 6-2 9-3z" fill="#7a7a7a" stroke="#7a7a7a"/>
  <path d="m642 294l-1-3h1q0 1 0 1h1t1 1l2 2q2 1 2 2h1v1q1 0 1 1v1q-1 0-2 3l-2 3v2h2v1h1q0 1-2 1t-3-3v-3h-1t0-1q-1 0-1-3 0-4 0-6z" fill="#bb7b5a" stroke="#bb7b5a"/>
  <path d="m586 457h1v2h1l1 1h-1v1h1v1q-1 0-6 3t-8 4l-3 2h-2q-2-1-3-1t-1-1v-1l1-1v-1h2v-1h1v-1l8-3q7-3 8-4z" fill="#b27351" stroke="#b27351"/>
  <path d="m1202 523l1-1 5 1q5 1 9 5t5 3v1q-1 2-2 2t0 2q0 2 1 2t1 116q0 115 0 115v-228h-1v-1h-1v1h-1v1h-1v1h-1q0 1-1 1t-1 1-3 2l-2 1h-1v1h-1v1h-1l-1 1h-1v-1h-1v-4h3v-1h1v-1t1 0v-1q1 0 1-1l2-2q3-2 3-3l1-1v-1l-1-1q-1-1-3-4-2-2-5-4l-3-1q0-1-1-1t-1-1z" fill="#4f6767" stroke="#4f6767"/>
  <path d="m686 538l1-1q0 1 1 1v1q0 1 1 3 1 1-1 3t-6 5q-3 3-3 4t-4 1q-4 1-5 2l-1 2h-1q0-1-2-1l-1-1 2-1q1-2 2-3l1-1 3-1q3-1 3-3 1-2 2-3t1-1h4l1-1h1v-3q1-2 1-2z" fill="#875d48" stroke="#875d48"/>
  <path d="m474 239v78h-2q-1 1-2 1h-1v-1h1v-2q0-2-1-2 0-1-2-6-1-6-1-8t0-5q0-2-2-8 0-6-2-22v-19h1v-1h1l1 2q1 2 1 0 0-1 2-1 1-1 2-1h1q1 1 2-2t1-3z" fill="#42423d" stroke="#42423d"/>
  <path d="m798 649l-7 1-1-1q0-2 3-3 4-2 6-7t4-5q1 1 3 4 2 2 0 6t-8 5z" fill="#dd9a77" stroke="#dd9a77"/>
  <path d="m718 224q7 0 7 2 0 1-7 1t-6-1q0-2 6-2z" fill="#271608" stroke="#271608"/>
  <path d="m781 541h1v21q0 19-1 19 0 1 0 1h-1v1q0 1-6 2t-14 2h-9v-2l-1-2v-4l1 1 1 2h8q7 0 7 0 1 0 1 0v-1q0-1 5-1t6-20q1-19 2-19z" fill="#775f50" stroke="#775f50"/>
  <path d="m411 624l3-13v7l1 4 1 4v-2q0-1 1-1 0-1 1 0 0 1 1-1l1-1v-1h2v5h-1v-1h-1v10q0 10 2 11t2 0 1 3l1 4 1-1 1-1h1l1-1h2v-3q0-4 1-4v2l1 2v2q0 1 2 1 1 1 1 1h-1q-2 1-2 3t-1 2v-1h-2v1l1 1-1 1h-1v2l2 1q2 1 2 2 0 0 1 2v2h-1v-2q0-1-2 0-2 0-3 1t-1 5v3l1 5q1 5 0 5v1h4q4 2 9 2h4l1-1 1-1h1l1-1 1-1h1v-4h-2l-4-1q-3-1-3-1h1q2 0 2-1t6-1q5 0 5 1 1 1 1 0t2-1q1 0 2 1 0 1 1 1t2 0v-1h1v1h4l2 1h1v1h-5l-2 1q-1 1-4 1l-2 2-1 2-1 2v1l1 1 1 2h4v-1h1v-1l5-1q6-1 6-2t2-1q1 0 1-1h1l1 1h9q10 0 12-1h1v1l1 1v6q0 5-1 5t-1 1-2 2-1 1 0 1h-1v6h1v4h-1q-2 1-2 1t-8 3-8 5q-1 2-2 2h-1v-1q0-1-3 0t-8 3l-4 2t-1 1-6 1l-5 2h-1l2 2q1 1 1 2v1l-1-1v-1h-1l-1 1h-1v2h-2v-1q0-1 1-2 0-1-6-1t-6-2q-1-1-3-2-3-2-6-3-4-1-4-2t-2-1l-2-1v-1t-2-2-6-9q-4-8-6-9l-2-1v-5q0-6-1-7t0-19l1-18q1 0 1-1h1q0-1 0-1 1 0 1-1h1v-4q0-4 1-5 1 0 4-14zm23 83q0-7 2-7 3 0 4 4 0 4 4 8 4 5 0 6-4 0-7-2t-3-9z" fill="#f7b692" stroke="#f7b692"/>
  <path d="m721 586l2-2v2q1 2 1 2v1q1 1 4 2 4 1 5 0h1v1q0 1-2 2-2 0-2 2-2 2-1 5 0 3 1 4 1 0 2 3 2 4 2 4v1h-2v-1t-1 0h-4q-4 0-5 1-1 0 0 2v2h-2q-1 1-3 1-2 1-2 0l1-1v-1h-1v-1h1v-2h-1v-1h-1v-1q0-1-2-4 0-3 3-9l4-6q1 0 1-2 1-2 0-2t1-2zm6 8v-1q1 0 1 1 0 0-1 0z" fill="#d99e80" stroke="#d99e80"/>
  <path d="m893 744h2v2l1 2v2h1l3 6q4 6 4 7l1 1 1 1v2h-1v1h-1l-3 1h-8l-5-1h-2v-4l1-1q1-1 1-3 0-1 2-2 1 0 2-7 0-7 1-7z" fill="#d1d1d1" stroke="#d1d1d1"/>
  <path d="m646 287l1 1q1 0 1 0v1q-1 1-3 0-2 0-1 2v2h-1q-1 0-1-1l-1-1-2-3q-1-3-1-6 0-2 2-3 1 0 2 3 0 3 2 4 2 0 2 1z" fill="#93664b" stroke="#93664b"/>
  <path d="m500 478v-108h2v16q1 15 2 16 2 0 0 2-1 2-1 4 0 0 1 2 0 2 0 7t3 7q3 1 2 2 0 2-1 2t-2 2-1 2h-1q0 1 0 66v64h4l4-2q4-1 5-1h7v2l-1 1q-1 0-1 1t0 1v1q0 1 0 1h1q1 1 1 7v6h-2v-1q0-2-2-2l-2-1v4q2 2 2 3v1h-9q-1 0-1-4v-4h-1v-1h-1v-1h-1v-1h-3v1l-1 5v6l-1 1v1h-1v-1h-1v-107z" fill="#31302d" stroke="#31302d"/>
  <path d="m470 760v7h-1v1h-24v-4l1-3q0-1 0-1l1-1q1-1 2-4t11-2q9 1 9 1 1 0 1 6z" fill="#e1e1e1" stroke="#e1e1e1"/>
  <path d="m727 612h4t1 1v1q1 2 0 2-2 1-2 1h-8v-2q-1-2 0-2 1-1 5-1z" fill="#915634" stroke="#915634"/>
  <path d="m325 780h5q2 0 4 2t2 4v4h-3q-1 0-1-1l-1-1-1-1q-1-1-4-2l-4-2q-1-1-1-1 1-1 4-2z" fill="#374343" stroke="#374343"/>
  <path d="m652 319l1-1 14 1q14 1 14 1 1 0 1 0v1l1 2q1 2-1 2-1-1-1 0h-1q-2 1-2 2v2q0 1 1 1 1 1-5 1-5 1-6-1h-1v-1h-1v-1h-2v4q0 4 1 4h1v1h1v1h-5v-1h-1v-1h-1v-1h-1v-1h-1q0-1-1-1v-5q-1-5-3-6l-2-1q-1-1-1-1-1 0 1-1z" fill="#40291a" stroke="#40291a"/>
  <path d="m698 327h1v2h1l1 1h1q1 0 1 1t1 1 1 1q1 0 1 3 0 2-2 4t-6 4l-4 1q-1 1-1 1-1 0-12 1l-11 1v-4l8-2q7 0 10-3 4-3 4-5v-3t1-1q1 0 1 0v-1l2-1q2-2 2-1z" fill="#dccfd5" stroke="#dccfd5"/>
  <path d="m631 486h1v1q-1 1 2 2h2q0 1 2 1h1q-1 1-1 2-1 0-2 4-2 3-4 3t-2-3q0-4-1-4h-1t-1-1q-1 0-1-1v-1h2q2 0 2-1 0-2 1-2z" fill="#c79273" stroke="#c79273"/>
  <path d="m628 526q4 0 4 1t-4 1q-5 1-5 0 1-2 5-2z" fill="#c69171" stroke="#c69171"/>
  <path d="m632 486q-1 0-1 1-1 0-1 1t-2 2h-1l-1-1v-1q-1-2-2-2t0-2q0-2 5-2t4 2-1 2z" fill="#c58f70" stroke="#c58f70"/>
  <path d="m784 35h202v611l-1 1v1h-1q-1 0-4 0t-4-2l-1-1v-1q-1 0-1 0 0-1-1-2t-5-4q-4-2-6-3l-3-1q-1-1-3-3-2-3-7-4t-5-2-6-3l-6-1v-1t-8-4q-7-3-7-2t-1 1 0-3q0-2-5-2-5-1-8-2-4-2-7-3l-2-2v-1t-1 0h-7q-7 0-8-2-1 0-17-5-15-5-20-7-4-2-16-4t-13-2l-1-1v-1q-1 0-1 0 0-1-1-1v-1q-1-1-5-4l-4-2t-1-1-8-1q-7-1-8-16l-1-15v-132q0-8 4-11 3-2 4-5 0-3 2-3 1-1 1-2v-1q1 0 3-5 4-5 5-11t3-8l1-2v-4q0-4 1-4 1-1 1-11 1-10-1-10-1-1-1-4-1-2-4-6-4-4-11-4-6-1-7-8l-1-7v-254q1-11 2-12z" fill="#fcfcfc" stroke="#fcfcfc"/>
  <path d="m581 319h4l4 1h1v1q0 1-1 4v3h-1t0 1-1 3-4 6l-3 4h-1l-2 1-2 1h-1q-2 0-8 0h-6v-1h-1v-1h-1v-1h-1v-1h3v-6l5-1q5-1 9-5 2-4 4-5 1-1 0-2t1-1 2-1zm-3 13h-3q-1 0 1-4 2-3 3-2 1 0 0 3t-1 3z" fill="#603b24" stroke="#603b24"/>
  <path d="m342 746v-3h1q0 1 1 1h2l-1 6q-1 7 2 10t3 6v2h-1l-1 1h-7l-6-1h-2v-2l1-2v-1l1-1q1-1 1-2 0-2 1-2t1-5q1-4 2-4t2-3z" fill="#c3c2c1" stroke="#c3c2c1"/>
  <path d="m668 529h3v1q1 1 0 2v1h-1l-1 1h-1l-1-1h-1v-2q1-1 2-2z" fill="#e3a886" stroke="#e3a886"/>
  <path d="m732 553v1l1 5q1 5 0 6t-1 3v3q-1 1-1 1h-1t0 1l-1 1q-1 0-1 1t-1 1-2 2l-1 2h-2v1l-1 1v1h-1q0 1 0 1t-5 2q-4 1-7 4l-3 4h-1q-2 0-5 2t-4 3l-1 2h-3q-3 1-9 3-5 2-12 4-6 0-6 3l-1 2h-3l-3 1h-1l1 1q0 1 2 1h2l-3 1q-3 1-3 1h1v2h-1q-1 0-1-1-1-1-3-1t-7-1l-5-1h-19v-2h4v-1h1q0-1 1-3l2-2t1 0q1-1 2-10 1-8 5-10t4-4 4-3l5-1h3q2 0 4-1t12-3q9 0 9-1h1l3-1q3-2 4-2v-1l11-5q10-5 11-6v-1h1l3-1q3-1 3-2t3-2q3 0 3-1t3-3q3-3 3-4t2-2q2 0 3 4t1 5z" fill="#eaeaea" stroke="#eaeaea"/>
  <path d="m34 549l1 112q1 112 2 113 1 2 46 2t87-1h43l51 1q51 2 51 2-1 0-1 2v1l-1 1q-1 2-2 4v1l5-1q6-2 6-2t0-1l4 2q3 1 4 2l1 1 1 1q0 1 1 1h3v-3 7h-2q-2 0-4 2-2 3-2 5 0 3-3 3h-3v1t-1 1h-191l-50-1-51-1h-1v-3h1q1-1 1-4l1-3v-3q1 0 1-1v-2q0-1-2-4-2-4-6-4l-3-1h-5q-5 1-6 1t-1 2l-1 3v1h-1v-1h-1v-204q0-27 1-31l1-4v1h1v1h3q2 1 3 2 1 2 3 2h2v-1l1-1q1-1 2-2h3q1 0 2-2l2-2h1q1-1 2 2t1 3z" fill="#89aeae" stroke="#89aeae"/>
  <path d="m661 398h-3q-2 0-1 2t3 3q1 0 2 1 0 2 0 2h1l3 2q3 3 3 4v1h-1q-1-1-6-2-4-2-7 0-2 3-4 3h-2t1-1q0-1 1-3l1-3h-4l-4-1h-1v-1h2l2-1h3q2-1 4-4t4-3q3 1 3 1z" fill="#e2a07c" stroke="#e2a07c"/>
  <path d="m527 656l-1-3 2 3q3 4 11 4h8t-1 1q0 1-8 1-7 2-11 5l-4 4v-1q0-1-1-1h-1v-1q1-1 2-4l2-4h1q1 0 1-1 1 0 0-3z" fill="#7b6b64" stroke="#7b6b64"/>
  <path d="m568 312h1v1q0 1-1 1h-1l-3 1h-3v2h9q10 1 10 1h-8v1h-1q-1 1-10 2l-9 2h-1q-1 1-1 1-1 0-3 0-3-1-1-3l2-2 2-1q2-2 2-2v-1l4-1q3-2 7-2t5 0z" fill="#c58868" stroke="#c58868"/>
  <path d="m698 305l-1-1 3 1q3 1 7 2 3 2 4 3 0 1 3 2 2 0 4 4t3 6v2q1 0 1 0v1h1q1 0 1 1 0 2-1 2h-1v-1q0-1-2-2t-5-3-6-4q-3-3-6-5l-3-1-1-1h-1v-1h-1q-1 0-1-1t1-2 1-2z" fill="#503422" stroke="#503422"/>
  <path d="m714 616h2v1l-1 1q0 1 2 0 2 0 3-1h10v1h4l1 1q1 1 1 1h-5v1h-1v5q0 5 2 8 2 2 2 6v3l1 1h-2v-1h-1v-2h-7l-7 1t-1 1q0 1-1 1l-2-1v-1t-1 0q-1-1-2-10-1-10-25-11l-23-1 25-2q25 0 26-1 0-1 0-1z" fill="#d1997d" stroke="#d1997d"/>
  <path d="m664 557h1l1 1q2 0 2 1h1v1q-1 1-2 3t-3 2l-1 1h-3q-3 0-4 2 0 1-16 0h-16l2-1 1-1 14-1q14-1 15-3 0-3 3-3t4-1q1 0 1-1z" fill="#6f4d3c" stroke="#6f4d3c"/>
  <path d="m749 251v23q-1 0-1-20t-2-21q-1-1-4-1t-3 5l1 5-1 1-1 1v1h-1v-1h-1v-1l-1-5v-4h-4v1h-1v1h-9v-1h-1v-1h-1v-1h1v-1h7l1-2q2-2 6-3 5 0 6-1 0-2 1-1 1 0 3 2 1 1 3 1 1 0 2 23z" fill="#221309" stroke="#221309"/>
  <path d="m457 322h1q1 0-1 6-3 6-2 18t1 16v3l-1 1v2h-1q-1 0-2-4v-4h-1t-1-1q0-1-1-9t0-13 2-8 3-3l1-1q1 0 1-1v-1t1-1z" fill="#9d8171" stroke="#9d8171"/>
  <path d="m625 780l-1-2h1q1 0 1 1h1l3 5q4 4 3 6-1 3-1 4-2 2-2 2v1t-1-1l-1-2v-1q0-1 0-3v-2q0-1-1-1h-1q0-1-3-3l-3-2h-1v-1h-1v-1h2v1h1v1h3q2 0 1-2z" fill="#435858" stroke="#435858"/>
  <path d="m4 537l1-3h1v4q0 3 0 36v194q0 19 2 20 1 0 1 4l-1 5v1t-1 0v1q-1 0-1 1v5h7v1h1v1h-1v1h-7v-1h-1v-1h-2v-1h-1v-137q0-127 1-127 0-1 1-4z" fill="#384747" stroke="#384747"/>
  <path d="m687 538v-1h1v1q1 1 2 1 2 0 2-1t1-1h1v1q0 1 1 1l-3 3q-4 4-8 10t-6 8q0 1-1 1v1h-2v1l-1 1v4h7l1 1h2v1q0 1 1 1v1q-1 0-4 2l-3 1h-1q0 1-9 1-10 2-12 3t-4 1h-14v1l-1 1v1h-6v-1h1l1-1 1-1h2v-1l1-2 1-2v-1h-4l-2-1q-3-1-6-1l-2-1-1-1h-1v-1h-1v-1h-1v-1h-1v-1h8l-1 1-2 1h16q16 1 16 0 1-2 4-2h3l1-1q2 0 3-2t2-3v-1l1-2q1-1 5-2 4 0 4-1t3-4q4-3 6-5t0-4q0-2-1-3z" fill="#a87960" stroke="#a87960"/>
  <path d="m740 645l8 1q9 2 10 2h1t4 1l4 1h1v1h-1v1h-17v1h-2q-1-1-4-1l-2-1q0-1-4-1h-5v-1h-1v-1h6q3 0 2-1 0-1 0-2z" fill="#b47454" stroke="#b47454"/>
  <path d="m246 730v16q0 11 0 12v1l8 1q9 0 9 1h1v1h-10q-9 0-10-1-1 0-2 4 0 4-1 4h-1v-2l1-19q1-19 1-20t3-3q2-2 2-1-1 2-1 6z" fill="#5b6161" stroke="#5b6161"/>
  <path d="m472 317h2v71t-1 1l-1 1v-2q0-3-1-7l-1-4v-17q0-16-2-20 0-4-4-5-3-1-3-3-1-2 3-3t4-3v-2t-2-2h-3v-1h-1v-1h1v-1h1q0-1 2-1h4q1 0 2-1z" fill="#726a5f" stroke="#726a5f"/>
  <path d="m852 740h1t0 2q1 1-2 2-2 0-3 2-2 3-6 6-5 2-17 3l-12 1-1-1h-1v-1h10l-2-1q-2-1 1-1 2 0 2-1v-1l6-1q6-1 11-2t5-2q1-1 4-3 2-2 4-2z" fill="#7d7c7c" stroke="#7d7c7c"/>
  <path d="m678 453h-2q-2 0-2-2t2-3l1-1 1-1q0-1 2-1 1 0 0 3-1 4-2 4 0 0 0 1z" fill="#ac795d" stroke="#ac795d"/>
  <path d="m607 570h2l6-1h7v1h1l1 1q0 1 0 1 0 1-9 1-9 1-9-1-1-2 1-2z" fill="#da9a77" stroke="#da9a77"/>
  <path d="m523 675v-1h1q1 0 1 4 0 3 1 3 2 0 2 3 0 2-2 4-2 1-7 6-5 6-7 8-3 2-3 2h-1l-1 1-1 1-1 1v1h-2v-1l1-1v-2h-4v1l-1 1v1h-1v-6h1q0-1 0-1-1 0 1-1t2-2 1-1 1-5v-6l-1-1v-1h-1q-2 1-12 1h-9l-1-1h-1v-1h1l8-1q8-1 20-3 13-3 14-2 1 2 1 1 1-1 0-2z" fill="#dd9f7f" stroke="#dd9f7f"/>
  <path d="m504 432h2q1 0 1 1v9q1 9 1 9v1h1v1h1v5l1 2q1 1 1 10v8l2 9q1 9 1 9h1v1l1 1 1 1v4l1 2q1 3 1 3l2 4q2 4 3 4v1q0 1 1 1 0 0 0 1h1q0 1 1 1v4q0 4 0 10v5q0 1 0 1h-1v1h-1v1l-2 8q0 7-1 7 0 1-3 1h-3v1q-1 0-5 1l-4 2h-4v-64q0-65 0-66z" fill="#f0eeec" stroke="#f0eeec"/>
  <path d="m639 490h-1q-2 0-2-1l1-2q1-1 3-2 1 0 0 3 0 2-1 2z" fill="#bb886b" stroke="#bb886b"/>
  <path d="m683 126v-6l14 2q15 3 15 4 1 0 2 1h2v1h1v1l1 1 1 2q1 2 3 28t2 27v1l1 7q1 7 1 7t0 1h1v1h1v2h-18q-17 0-18-1-2-1-2-3v-3h-1v-1h-1v-16q0-16-1-16t-1-15l-1-14v-2l-1-2v-1l-1-6z" fill="#080808" stroke="#080808"/>
  <path d="m6 768v-18 35h1v1h1v-1l1-3q0-2 1-2t6-1h5l-1 1q-1 2 0 2t1 1q-1 1-1 1h-1l-4 2q-3 2-4 6l-1 5v1h-1v1h-1v1h-2v-2h2v-1l1-5q0-4-1-4-2-1-2-20z" fill="#577272" stroke="#577272"/>
  <path d="m570 478h2t0 1h1q0 1 1 1v2q-1 2-2 2t-1 1h-1q0-1-1-2l-1-2v-1q1-2 2-2z" fill="#c08b6d" stroke="#c08b6d"/>
  <path d="m679 479q2-1 2 2 1 2-1 2-2 1-2-2 0-2 1-2z" fill="#b88163" stroke="#b88163"/>
  <path d="m737 450h2q2 0 3 0v1q0 1 1 1v3l-1 3v1h-1v1h-2v1h-1v-9h-1v1l-1 1v-3t1-1z" fill="#e0a684" stroke="#e0a684"/>
  <path d="m640 406h4l4 1h4l-1 3q-1 2-1 3-1 1-1 1h-4q-3 0-7 0l-3 1h-2v-2h-3v-1l4-3q4-3 6-3z" fill="#b77454" stroke="#b77454"/>
  <path d="m556 486h1t1 1l1 3q1 2 2 3t1 1h1l1 1h1v3l-1 2h-4v-2h-1v-1h-1q0-1-2-3l-3-3q0-1 1-2 0-2 2-3z" fill="#9d7055" stroke="#9d7055"/>
  <path d="m521 669h1q1 0 1 1v2q-1 2 0 2 0 0 1 1v1q0 1-1 1 0 1-1-1-1-1-14 2-12 2-20 3l-8 1-2-1-1-1h-1v-1l1-1v-1h8q8 0 8-1t5-2q6-1 6-2 1-2 9-2 7-1 8-1z" fill="#a36748" stroke="#a36748"/>
  <path d="m1212 11q0 1 0 1t1 4q1 3-1 4-1 2-4 3l-4 2h-1q-1-1-3-1-1-2-3-6-1-4-4-4h-3v2h-1v-2l1-1v-1h1l1-1h2v-1q0-1 1-2l1-2v-3h1q1 0 1 3 0 4 2 3t5-2q2-1 4 1t3 3z" fill="#82a2a2" stroke="#82a2a2"/>
  <path d="m0 142v-136l1 7q1 7 1 133v126h2l1-2v-2h1v6l1 1 1 1v1l1 2 1 2v1t-1 0v1h-1v-1h-2v1l-1 119v124l1 5v3h-1l-1-1v-1h-1v-1h-1v-125q0-124-1-126l-1-3v-135z" fill="#222b2b" stroke="#222b2b"/>
  <path d="m418 722v-1l2 1q2 0 2 1t4 2q3 1 6 3 2 1 3 2 0 2 6 2t6 2v1q-1 0-1 1h-6q-5 0-8-2t-7-4l-3-2h-1l-1-1-1-1h-1q-1 0-2-2l-1-1h1q1-1 2-1z" fill="#7e6a5f" stroke="#7e6a5f"/>
  <path d="m24 525l-1-3 3 2q2 1 4 3 0 2 1 4v2q-1 0-1 1h-2q0-1-4-4l-4-2-1-1v-1h1q1 0 4 1 2 1 0-2z" fill="#4a6161" stroke="#4a6161"/>
  <path d="m784 756v-1h4q5 0 5 3l1 3v7h-1v1h-5l-4-1-1-6v-6q1 0 1 0z" fill="#dfdfdf" stroke="#dfdfdf"/>
  <path d="m538 450h-1 2q2 0 2 1 1 1 1 1l1 2q1 2 3 3h1v1q-1 0-2 0l-1 1v3h-1v-1l-1-1h-1q-1 0-3 0t-4-2q-1-2-1-3-1-1 2-1h3l1 1q1 0 1-2t-2-3z" fill="#ca9071" stroke="#ca9071"/>
  <path d="m652 468v-1h1q1 0 1 1v6l-2 1-1 1h-2l-1 1q-1 1-6 1h-5t1-1v-1h5v-1l5-1q5-2 5-4-1-1-1-2z" fill="#d1906d" stroke="#d1906d"/>
  <path d="m966 642h2q1 0 2 1 0 1 0 2h1l1 2q0 1 0 2h1l2 1q1 1 2 2v1h-1q-1-1-6-1t-8 5q-3 4-4 4-1 1-4 3-2 3-6 5l-3 2v-1h1v-2q0-2 1-4v-3h-1l-1-1h-6v-1h-1v-2h1l1 1h3l5-1q4-1 10-6 5-5 6-5h1l1-1h1v-1l-1-1v-1z" fill="#c4c4c4" stroke="#c4c4c4"/>
  <path d="m616 745v-1h30q31 0 32 1 0 1 26 3 25 0 33 1 9 1 9 2t0 9v9h-64l-62-1h-3v-1l1-1v-1t2-1q2-2 2-7t0-7q-2-1-4-2l-2-1v-1t0-1z" fill="#e5e5e5" stroke="#e5e5e5"/>
  <path d="m601 595l1-4h2q2 0 2 3 0 2-1 10v9q0 1 1 1 0 1 1 1v1h4v1h-3q-3-1-8-1h-6q-1 0-1-1-1 0-1-1v-1l2 1q1 0 2 0h3v-1h1v-7q0-7 1-11z" fill="#8d8a8a" stroke="#8d8a8a"/>
  <path d="m498 711h1l-1 2q-2 2-2 28-1 25-3 26l-2 1h-15v-1l-1-23q0-22 1-22h2t0-1l2-2q3-1 10-5 6-2 8-3z" fill="#b8d2d2" stroke="#b8d2d2"/>
  <path d="m484 614h10l-1 1h-9q-9 1-14 1h-4l-1 1-1 1h1l3 1 2 1h1l-3 1h-2l-7-1q-7-2-7-4 0-3 13-3 13 1 19 1z" fill="#e3a27e" stroke="#e3a27e"/>
  <path d="m62 33l-10-1h265l-12 1-12 1h103q12 0 12 1h-4l-3 1h-53q-53 0-76 1-24 1-25 0h-1v1q0 1-1 102v102h-1v-3l-1-1-1-1v-21q0-20-1-97t-1-79q-1-2-6-3l-5-1h-9l-4-1q-5-1-26-1h-70q-49 0-58-1z" fill="#4d5251" stroke="#4d5251"/>
  <path d="m462 319h1v1h-1v1h1v1h3q2 2 2 2v2q0 2-4 3t-3 3q0 2 3 3 4 1 4 5 2 4 2 20v25h-1v1h-2v-1l-1-1v-2h-1v-1h-1v-2q0-2-1-2 0-1-2-5-1-5-3-6l-2-1v-3q0-4-1-13t0-17v-7q0-1 1-1 0 0 1 1t1-1-1-2l-1 1v-1q1-2 3-2t3-1z" fill="#eaaf8b" stroke="#eaaf8b"/>
  <path d="m608 6h1v1q-1 1-1 1v1h1v1h2q-1 1-1 4v4l1 2q0 3 5 4 4 0 6-2t3-2h1v1q0 1-2 2v1h-1v1q-1 1 0 1v1h-1v3l74 1 74 1h7v2h-4v1h-22q-1 1-2 2t-2-1l-2-1h-3q0-1 2-1 1 0 1-1t-62-1-63 0q-2 0-4 0-1 0-52 0h-52l-16-1h-15v-1h61q61 0 64-1l3-1h-2l-1-1q-1-1-1-7l-1-7 2-3q1-4 2-4z" fill="#475c5c" stroke="#475c5c"/>
  <path d="m1002 36l12-1 3 1q3 0 3 0v9l1 3 1 4v12l-1 2q-1 2-2 230-1 227 0 304l1 76v4q0 3 1 3v1q-1 0-2 42t-14 42-14-27l-1-27v-260q0-260 0-339t12-79z" fill="#b2cece" stroke="#b2cece"/>
  <path d="m732 536l1 4q1 3 2 8 0 5 1 5t1 1v1h-1q-1-1-2-1h-2v-1q0-1-1-5t-3-4q-2 1-2 2t-3 4q-3 2-3 3t-3 1q-3 1-3 2t-3 2l-3 1v-1h-1v1h-1l-1-1v-1h1v-2h1v-1h1l6-4q6-3 6-4 1-2 2-2t2-2 3-4q1-1 2-4 0-3 1-3t1 3q1 2 1 2z" fill="#908179" stroke="#908179"/>
  <path d="m905 2h1q2 1 1 3t-1 3v1h1l1 1 2-2q2-2 3-2t1 1v1t-4 2q-3 1-3 8v6h-3v-1h-1v-1h-1l1-7q1-7 1-9 2-3 1-3 0-1 0-1z" fill="#4f6666" stroke="#4f6666"/>
  <path d="m608 488q0-3 2-2 2 0 2 2t-2 2-2-2z" fill="#c59072" stroke="#c59072"/>
  <path d="m542 314h1l3 1q4 1 5 0h1v1t-2 2l-2 1h-2q-3 1-6 3l-4 4t-1 1q0 1-1 1t-5 4l-4 3v-1l1-1v-1h1v-1h1v-2h-1v-1h-1v-1h1v-1h1v-1l4-3q3-4 6-6t4-2z" fill="#d39672" stroke="#d39672"/>
  <path d="m622 240v4h-2q-1 0-4 0h-3v-2l-1-2-1-1q-1-1-2-3 0-1 3-2 3 0 3 2 0 1 4 0 3 0 3 4z" fill="#27160a" stroke="#27160a"/>
  <path d="m678 534l2-1 1 1q1 2 0 4t-2 2h-1v-1h-1v-1q-1 0-1-2t2-2z" fill="#c59071" stroke="#c59071"/>
  <path d="m533 538v2l1 5q1 5 6 9 6 5 6 6v1h-2q-3 1-3 1h-1t-4-5-6-5-2 6q0 6-2 7l-1 1h-2v-1h1q0-1 0-1 0-2-1-1l-1 1t0-1 1-1l1-1v-2h-7v-1h3q3 0 3-1 1 0 1-7l2-8v-1h1v-1h1t0-1l1 1 1 1v-1h1v-1h1v-1q0-1 1 0z" fill="#837770" stroke="#837770"/>
  <path d="m749 428l-1 8q0 9-1 10v2q-1 0-2 2l-2 2q-1 0-1-1v-3q0-3-2-3-2 1-2 3l-1 2q1 0 1 0v2h-2v-2h-3v-1h-1v-1l-1-1-1-1v-1h1v-1h2q2 0 2-2v-1l1-1q0-1 2-1 2-1 4 1 3 1 5-6 1-6 2-6z" fill="#976e57" stroke="#976e57"/>
  <path d="m622 2h45-13q-13 0-20 1l-7 1h-1v1l1 1v1q-1 1-2 1l-1 1v-1q0-1 0-1 0-1-1-3l-1-2z" fill="#495c5c" stroke="#495c5c"/>
  <path d="m36 530l1 7 1 7v-3l1-1 1-1v228h1q1 1 5 1h4l79 1h79v1h-169v1h1v1h33q33 0 117 1h83v1h-60v1h-43q-42 1-87 1t-46-2q-1-1-2-113l-1-112v-7q0-6 1-8v-3h1q0-1 0-1z" fill="#677c7c" stroke="#677c7c"/>
  <path d="m29 277l2 1-1 4q-2 3-5 5-3 3-7 2-5-1-7-2-1-2-2-3v-2q1 0 1 0v-1h2l1 1h1v1t4 0 4-1 2-2q1 0 2-2t3-1z" fill="#425959" stroke="#425959"/>
  <path d="m336 22h1l-1 3q-1 3-2 4 0 1 54 1t74 1h34l16 1h-52q-52 0-64 1l-12 1h-91l12-1 12-1h-96v-1h96q1 0 1-1l5-1q5-1 7-5 3-4 4-3 2 1 2 1z" fill="#364747" stroke="#364747"/>
  <path d="m297 640l3-2 1 1 1 1v1q-1 1-3 1t-3 4q0 3 1 9t2 7l1 2h4q3 0 3 0l-4 3q-3 3-4 4t-1 7v6h-1v1h-1v1h-3v-1h1l1-1h1v-3l-1-5q-1-5-1-5 0-1-1-6t-3-7-4-3l-3-1-1 1h-1v-2h3q4-1 7-4t3-5v-2t3-2z" fill="#b7b6b6" stroke="#b7b6b6"/>
  <path d="m793 744v-2h1l2 2q1 2 5 4 3 1 4 1 0 1 9 1h8v1q0 1-2 1-3 0-1 1l2 1h-10v1h-7q-1-1-2-1-2-2-4-2-3 0-4 1v1h-2v-1l1-1 1-1v-4l-1-3z" fill="#7e7c7c" stroke="#7e7c7c"/>
  <path d="m742 35h-63q-63 1-119 1h-56v42q0 43 0 44v1h2q1-1 6-1h6v2q0 2 0 22v21h-1v-18l-1-18v-1h-2q-3 0-4 1t-4 1l-3 1v-3l-1-2v-1l-1 53v79h1l1 1h-1v1l1 3v21q-1 18-1 35v50h-2v-30q0-30-1-32v-136q-1-134-1-134t-4-1l-3-1t-41-1h-42q0-1-12-1h-12l12-1q12-1 64-1h104q51 0 52 0 2 0 4 0 1 0 63 0t62 1-1 1q-2 0-2 1z" fill="#2f3232" stroke="#2f3232"/>
  <path d="m691 422l-2-3h2v1h1v1h1v1h1v1h1v1h1v1h1v1l4 4q5 5 4 8 0 3 1 3h1v2h-1l-1-1h-4v-1h-1v-1q0-2-2-3l-1-1v-2q-1-2-2-6t-4-6z" fill="#df9d7a" stroke="#df9d7a"/>
  <path d="m519 502l1-2v1h1v1h1v3h2q3 0 3 1v2l1 2v1l1 1 1 1v2l3 1q3 1 3 0t3-1h3v2h-1v1h-5v2h1l1 1q1 0 1 1v1h-1q-1-1-2-1 0 0-4-1l-4-1q0-1-1-1v-1q-1 0-1 0 0-1-1-1v-1q-1 0-3-4l-2-4t-1-3l-1-2 1-1z" fill="#9f7760" stroke="#9f7760"/>
  <path d="m1199 778l1-2 6 1q6 1 8 3 2 4 2 4h1v1h1v2q-1-1-2-1t-1 1v1h-1t-2-3q-3-3-6-3t-5 1l-1 1h-2t0-3q0-2 1-3z" fill="#313f3f" stroke="#313f3f"/>
  <path d="m11 2l-2-2h599t-4 1l-3 1h-282q-282 0-287 1l-4 1 1 2q1 2 1 6 0 2-1 2t-2 0q-1-1-4-4-3-4-6-4l-3-1v-1q0-1-3-2z" fill="#3d4d4d" stroke="#3d4d4d"/>
  <path d="m676 494q2-2 4-1t0 3q-2 1-2 2t-1 2q-1 0-2-2-1-3 1-4z" fill="#ce9676" stroke="#ce9676"/>
  <path d="m637 501v-1h4v1h1l-1 2q-1 2-1 2h-1q-1 0-2 1l-1 2h-1q-1 0-1-1l-1-1q-1 0-1-1v-1h1l1-1h2v-2h1z" fill="#c48f6f" stroke="#c48f6f"/>
  <path d="m512 587h1l1 1h2l3 2q3 2 6 4 3 3 3 7t0 6q-1 1-2 2-1 0-2 1 0 2-1 4v1h1l1 1h-1q-2 0-2-1h-1v-1q-1-1-1-1 0-1-6-1-7 0-8 2-1 0-8 1l-6 1v-1h1l1-1h-5l4-1q4 0 4-1t1-1q1 1 3 0 1-1 2-9 0-9-1-9t-1-1-1-1l-2-1h-1v-1q-1 0-1-1h6q6 0 8 0 1 0 2 0 0 0 0-1z" fill="#d39b7d" stroke="#d39b7d"/>
  <path d="m932 622v-1l6 1q6 2 6 3t5 2 7 4q2 2 3 3h-1t0 1h-3q-2-1-3-1l-1-2h-1q-1 0-6-1-4-1-5-1-1-2-5-2l-5-2h-1v-1l-1-1v-1h3q2 1 2 0v-1zm-1 4t0-1h1v1t-1 0z" fill="#737171" stroke="#737171"/>
  <path d="m400 744v-1h1q1 0 1 2 1 1 18 1 18 0 19-2 1 0 3 0 3 0 4 0h1v-1h1v4q0 4-1 4h-1v-1q0-1 0-2v-2 1h-1v1h-3v1t-5 1q-5 2-5 3t-12 1q-11 1-12 0v-2h-7v-4h-2q-2 0-2-1h1l2-1h1t-1-2z" fill="#8b8a8a" stroke="#8b8a8a"/>
  <path d="m641 324l3-1v1q-1 0-1 1h-1v3l2 2q3 2 5 3 3 1 3 2t2 2 2 2 1 1 2-1h1v1q0 1-1 1t-1 1v1h-1l-1-1h-4v1l1 2v2h-1v2h-1v1h-1v-1l-1 1v1h-1v-2l-1-1-1-2t-2-4l-2-3v-1t-1 0q-1-1-1-1v-1t-1 0q-1-1-1-1v-1q0-1 0-5t3-5z" fill="#936052" stroke="#936052"/>
  <path d="m791 730v3h-1v1h-1v1h1v2h1l1 1 1 1 1 1v2h-1t-2 0l-1 1h-1q0 1-1 1t-1-2-1-6v-4t0-1h2q2 0 2-1 0 0 1 0z" fill="#605c5b" stroke="#605c5b"/>
  <path d="m639 405h4v1h-3q-2 0-6 3l-4 3v1t-1 1q0 1-4 1h-6l-2-1h-2v-2h8l6-3q6-3 10-4z" fill="#e9a783" stroke="#e9a783"/>
  <path d="m524 348h9q3 0 6 2 3 0 5 0h1l4 1q4 0 4-1v-1l1 1q1 0 8 0t8-2q1 0 2-1h1v1l-1 1v1h6q6 0 7-1l1-1h4v4h-1v1h-1v1l-1 1v1h-1v1q0 1-5 4l-5 3-2 1h-5l-4-1h-8v-1h-1v-1h-6v1h-1v1h1v3h1v1h1l1 1q1 1 5 1h4v1h-6q-7 1-8 1-2 0-2-1t-3-2-8-5-11-5q-7-1-7-3-1-1-1 0 0 2-2 2t-3-2q-1 0-2 0t-1-1l-1-1h-2v2l-1 2 1-7q1-7 1-7 1 0 4 1 2 1 8 2t6 1z" fill="#edb08e" stroke="#edb08e"/>
  <path d="m700 515q1-1 2 2 0 2-2 2t-2-2 2-2z" fill="#c28d71" stroke="#c28d71"/>
  <path d="m679 35h66l1 1q0 1 1 47v46h-1q0 1-1 1t-4-4-16-6l-13-3v-1t-1 0h-1t-3-1-14-3-13-4l-1-1h-4q-4 0-4-1-1-1-13-3-12-1-12-1l-1 1h-1q0 1 0 1h-1q-1 0-2-1t-13-1-13 1-1 14v35q0 20 1 21t1 9v16q0 9-1 10v1h-17q-17-1-17-1-1 0-1-7l-1-7v-26q1-27 2-30l1-2v-8q0-9 1-9 0-1 1-8l2-7h-8q-9 0-9 1-1 0-9 3-8 4-9 8l-1 4v4q-1 0-1 1l-1 2q0 2-1 18 0 16-2 17-1 1-3 22 0 22-1 22h-3q-2 0-4 2l-3 1q0-1-8 0h-8v-3q1-4 1-20v-16t1 0v-3h1v-21q0-20 0-22v-2h-6q-5 0-6 1h-2v-1q0-1 0-44v-42h56q56 0 119-1z" fill="#f4f4f4" stroke="#f4f4f4"/>
  <path d="m664 528q0 1-2 2t-2 2-2 2q-2 0-2-1v-2q0-1 1-3l1-3h2q2 0 3 1 1 2 1 2z" fill="#cc9576" stroke="#cc9576"/>
  <path d="m512 643h2q1 1-1 2t-3 2q0 1-7 3t-14 2l-7 1h-2q-2-1-6-1h-4v-1h-1v-1h1l1-1 1-1h6q5-2 6-2t6-1h14q7 0 7-1t1-1z" fill="#b07151" stroke="#b07151"/>
  <path d="m599 744h5q4 0 4 1t0 1v1l-2 2q-2 2-2 9 0 6 0 6 0 1 1 2v2h-3q-2 0-3 0h-1q0-1-1-1v-11l1-11v-1h1z" fill="#c3c3c3" stroke="#c3c3c3"/>
  <path d="m1191 14h2q3 0 4 4 2 4 3 6 2 0 3 1h1v1q0 1-1 2v2q-1 0-1-1t-4-2-5-2q-1-2-2-2l-1-1-1-3v-3h1v-2h1z" fill="#668a8a" stroke="#668a8a"/>
  <path d="m364 703h1v17q1 17 3 22 3 6 4 6t4 5q2 5 5 5 3 1 5 4 2 2 5 3t3 2q1 1 22 1t23-2 2-2h1v-1h1v-1h1v6q0 2 2 2h1v1q0 1 5 1h5l-60 1h-60v-1h6l2-1h2v-2h1l1-1h1v-2q0-3-3-6t-2-10l1-6q0-1-1-2-1-2 2-4 2-2 2-4l1-2h-1t-1 0-2-1q0-2-1-2l-1-1h1v-1q1 0 4-1 3-2 5-5t3-7q1-5 3-8t4-3z" fill="#181a19" stroke="#181a19"/>
  <path d="m552 464v2l-1 2q0 2 1 2 2 1 2 2v2h-1v1h-1q-1-1-2-2 0-1-6-4-4-3-3-5l2-1h2q1 0 4 0t3 1z" fill="#b27d5f" stroke="#b27d5f"/>
  <path d="m715 124v-1l4 1q4 0 12 2 7 2 8 4t3 4 2 2l1 2q1 2 1 34v33h-1v1h-3l-3-1h-3v-1q0-1-5-2-4-1-5-8l-2-6v-1q0-1-2-27t-3-28l-1-2v-2q0-1-1-1v-1q-1 0-1 0 0-1-1-1v-1z" fill="#e6e6e6" stroke="#e6e6e6"/>
  <path d="m732 648v1h1v1h5q4 0 4 1h-2q-1 1-2 1l-1 1-1 1-1 1-1 1v2l1 6q1 6 2 6h1v1h1v1h1v1l1 1h-3l-1-1-1-1h-1t-7-1-8 1q-2 2-3 2h-1t0-2q0-1-2-3-2-3-22-3l-21-2h-2v-2h2l19 1q20 0 21-7 1-6 2-6t2-1h1t1-1l1-1q0-1 6 0 7 1 8 1z" fill="#d2987c" stroke="#d2987c"/>
  <path d="m685 508l1-2 2 1q2 1 3 2 0 1 1 1h1v2q-1 2-1 2h-2q-1 0-2 0 0-1-2-3t-1-3z" fill="#a7775a" stroke="#a7775a"/>
  <path d="m680 311h4q4 0 4 1 1 2 4 1 2 0 3-1 0-1 1-1h1v3q-1 3 0 4v1l3 1q2 2 3 4 0 1-2 1t-2 1v1h-1q0-1-3 2l-3 2v-2h1v-1l1-1q2-2 2-3h-1v-1h-1v-1h-4q-5 0-6-1h-2v-1t-1 0-14-1l-14-1 12-1 12-1h1v-1h-1v-1h-2v-1l2-1q2 0 3-1z" fill="#ae795e" stroke="#ae795e"/>
  <path d="m527 520l-2-3 2 1q1 1 2 2 0 1 3 2 4 0 5 0h1t0 1h1l3 2q2 2 3 3 0 1 1 1 1 1 1 1h-1q-1 0-1 1v1h2l1 4q2 4 6 6 3 3 3 4 1 1 1 1v1h1v1h1v2h-1v-1h-3v-1h-1v-1h-1l-1-1q-1-1-2-2-1-2-4-3-3-2-8-5l-5-3v3q0 3-1 3v-2q-1-1-1 0v1h-1v1h-1v1l-1-1-1-1v-5q0-6 0-9t-1-5z" fill="#b78469" stroke="#b78469"/>
  <path d="m273 773h60v1h139q138 1 138 2v2l-2 2q-1 3-2 3t-1 1q-1 1-1 4v4l1 3q1 3 2 3t1 1v1t0 1h1q0 1 1 1h1v1h1v1h-1v1h-25q-26 1-32 1h-195l-13-1-12-1h-1v-1h-1v-1h1v-1q1 0 2-2t1-3v-2q0-1-1-1v-1q1 0 1 0v-6q0-2-2-4t-4-2h-14q-1 0-2 1v-1q0-2 1-2 0 0-51-2l-51-1v-1h60v-1z" fill="#86aaaa" stroke="#86aaaa"/>
  <path d="m665 538q1-1 0 2-1 4-1 1t1-3z" fill="#d99f7e" stroke="#d99f7e"/>
  <path d="m1218 787v5q0 5-2 8t-3 3v1h4q4 0 5 0v1q0 1-1 2v1h-1t-35 0l-35-2h7q7 0 25-1h17v-1l-1-2v-1l-1-1v-1q1 0 1 0v-1h2l1 1q1 1 4 1t6-4 4-6v-3q0-1 1-1t2 1z" fill="#334141" stroke="#334141"/>
  <path d="m612 601l1-5v1l1 1v1h1l1 4q1 5 2 5h4q3 0 4 0h2l-2 2q-1 2-1 3h-1v1h-4v2h19t-13 2q-13 0-14 0v-1h-1v-1h-4l-1-1h-1v-2h1l1 1h4v-1h1v-4q0-3 0-8z" fill="#828181" stroke="#828181"/>
  <path d="m614 747h2l2 1q2 1 4 2 0 2 0 7t-2 7q-2 1-2 1v1l-1 1v1h3l62 1h63v1h2v-1h1v-1h1v1h1v1h1v1h1v1h-255l-1-1v-1h68l16-1q15-1 16-1t1-1h1q1 0 2 1 0 0 2 0h3v-2q-1-1-1-2 0 0 0-6 0-7 2-9l2-2h2q3-1 4 0z" fill="#2f3131" stroke="#2f3131"/>
  <path d="m17 527l2-1t1 1q0 1 0 1h1l3 2q4 3 4 4v2q0 1-1 1-1 1-1 1l-2 2q-3 2-6 2h-4l-1-1q-1-1-1-5l-1-4h-1q-1 0 1-2l2-1h1q0-1 0-1 1 0 3-1z" fill="#86a6a6" stroke="#86a6a6"/>
  <path d="m534 537v-3l5 3q5 3 8 5 3 1 4 3 1 1 2 2l1 1h1v1h1v1h3v1l4 5q3 5 4 5v1h1v1l1 1 1 2v4h-3l-3-1h-2q-1-1-2-2 0-1-3-2t-3-2-4-1l-4-1v-1t-1 0q-1-1-5-6-5-4-6-9l-1-5q1 0 1-3z" fill="#f5b691" stroke="#f5b691"/>
  <path d="m380 738l-1-8 2 2q1 1 2 4t4 5q3 3 5 3h3v1l1 1v1h1q0 1 2 1h2v4h7v1h-6q-5-1-9-3t-8-2q-4-2-5-10z" fill="#bebebe" stroke="#bebebe"/>
  <path d="m532 468v2t-2 0q-1 0-2-2v-3l-3-1q-3-1-3-3 0-1 4-1 4 1 6 4 0 2 0 4z" fill="#b88567" stroke="#b88567"/>
  <path d="m598 538v2q0 2 2 3 1 1 1 1h1v2l-1 1v1h-2q-2 0-3-1-2-1-2 0t-2 1h-2t-1-2l-1-1v-1t-1 0v-2l1-3v-1l1 1 1 1 1 1q1 1 2-2t3-2q2 0 2 1z" fill="#bf8b6b" stroke="#bf8b6b"/>
  <path d="m624 555q2-1 2 1 0 1-2 2-2 0-2-2 0-1 2-1z" fill="#cc9677" stroke="#cc9677"/>
  <path d="m743 483l1-5 1 2q1 2 2 2v38l-1 37v1h-2q-1 0-1-1-1 0-3-1l-3-1v-1q-1 0-1 0 0-1-1-6t-2-8l-1-4v-3q0-3-1-3 0 0-1-5l-2-4v-2l1-6q1-6 1-7 1 0 3-4l2-4h1v-1l1-1q1 0 1-2l1-3v-1q0-1 1-2 2 0 3-5z" fill="#e8e8e8" stroke="#e8e8e8"/>
  <path d="m321 624l3-1v1h-1v1h-1v2h3l3-1h11t-5 1q-4 1-5 1-1 1-8 3-7 3-10 5l-3 2-2 1-3 1h-1l-1-1-1-1h2v-2l1-1 1-1 2-1q1-1 2-2 2-1 6-3 4-3 7-4z" fill="#918f8f" stroke="#918f8f"/>
  <path d="m319 2h291v1t1 1q0 1-1 2h-2t0 1-2 3l-2 3 1 7q0 6 1 7l1 1h2l-3 1q-3 1-64 1h-61v1h-19q-20-1-74-1t-54-1q1-1 2-4l1-3v-1q-1-1-1-4t-7-6l-7-3q0-1-2-1-1-1-5 3-3 3-4 8t0 6h2q1 0 1 0h2v2h2v4h-1v1h-96l-92 1q-91 0-93 2t-2 121v119l-1 1-1 1v-1h-1v-1h-1v-2h1v-3q-1-2-1-3-2-2-4-4l-2-2h-11l-1 4q-2 3-1 3h1q0 1-2 1h-1v-1h-1v1l-1 2-1 2v-4h-1v-121q1-121 1-127v-6h2v-1l1-1 1-1v2l1 1 1 1v1h-1l1 3q0 3 0 3t1 0v3q-1 2 0 2v1h13l1-1h1v-2h1l1-1 1-2q0-2-3-2h-2v-1q0-1 1-3v-2q1 0 2 0t1-2q0-4-1-6l-1-2 4-1q5-1 287-1z" fill="#89aeae" stroke="#89aeae"/>
  <path d="m708 523h1l-1 1q0 2 2 2 1 0 2 0h1v1q-1 1-9 7l-9 5h-1q-1-1-1-1 1 0 1 0v-2l3-5q3-5 6-6 3 0 4-1 0-1 1-1z" fill="#8c624b" stroke="#8c624b"/>
  <path d="m168 34h22q21 0 26 1l4 1h9t-1 1l-2 1h-4q-5 1-5 365v364h2q2 1 9 1h8v1h-107l-79-1h159v-1q1-1 1-363t-1-364-35-2l-35-2h-7l18-1q18-1 18-1z" fill="#859696" stroke="#859696"/>
  <path d="m229 36l5 1q5 1 6 3 0 2 1 79t1 97v21l1 1 1 1v3h1v460h-1q-2-1-2 4v6l-1 2v1h-3v-327q0-328-1-338t-3-11l-2-1h-6l2-1q1-1 1-1z" fill="#778b89" stroke="#778b89"/>
  <path d="m282 654l3 1q3 1 5 3t3 7 1 6 1 5l1 5v3h-1l-1 1h-2q0-1-4-3-3-2-10-4l-6-1h-1v-1h-1v-4h-1l1-1v-5h1v4h3v-1l1-2q1-2 1-3 0 0 3-4l2-5h1q0-1 0-1z" fill="#e4e4e4" stroke="#e4e4e4"/>
  <path d="m747 448v-1l-1 9q0 8 0 9t1 9v8q-1 0-2-2l-1-2t-1-1q0-1-2-2-1-1-1-3 0-3-4-4-4-2-2-4 0-1 0-2-1 0-1-3l-1-3h1l1-1 2-1 1-1v-1h1v9h1v-1h2v-1h1v-1l1-3v-3l2-2q1-2 2-2z" fill="#94735e" stroke="#94735e"/>
  <path d="m975 769h-10v-2q0-2 5-3 4 0 10-1 6 0 5 3 0 2-10 3z" fill="#bbb8b8" stroke="#bbb8b8"/>
  <path d="m550 363v-1h6v1h1v1h8l4 1h4v1h-9q-9 0-6 2l3 2h-3q-4 0-5-1l-1-1h-1v-1h-1v-3h-1v-1h1z" fill="#ca8b67" stroke="#ca8b67"/>
  <path d="m680 325h1q0 1 1 2 0 2-2 2h-2v-2q0-1 2-2z" fill="#5c514c" stroke="#5c514c"/>
  <path d="m571 544h2v1l1 1v4q0 3 0 4h-2q-1 0-4-3l-4-3q0-1-1-2v-1h1q1 0 1 1l1 1v1h1v1h1v-3q1-2 3-2z" fill="#bd876a" stroke="#bd876a"/>
  <path d="m545 346v-1l4 1q3 2 4 2v2q0 1-4 1l-4-1h-1q-2 0-5 0-3-2-6-2h-8l1-1h1l1-1 2-4q2-5 4-5t2 3q1 4 3 5t4 1q1 0 2 0z" fill="#bc7e70" stroke="#bc7e70"/>
  <path d="m474 388v195h-1l-1 1h-11l-1-1q0-1-1-2l-1-1t1-2v-1h1q0 1 0 1h1t5 1q4 0 3-5-1-4 0-4 1-1 1-2v-3l1-87q1-87 1-88l1-1q1-1 1-1z" fill="#5c6561" stroke="#5c6561"/>
  <path d="m1200 260h12v1h1v1h1v1l1 2q1 2 1 2 0 1 0 2 1 1-2 0l-3-1q-1-1-1-1-1-1-5-1t-4 1-1 1q-2 0-2 4v4h-1v1h-1v-3h-2v-2h-1v-2l1-2 1-1q1-1 3-4 1-3 2-3z" fill="#374949" stroke="#374949"/>
  <path d="m0 678v-136t1 126l1 126v11h1v1h2v1h1v1h7v-1h1v-1h17q17 0 58 0h243q11 0 19 0h198l40 2q40 0 51 0t22-1l10-1h190l32 2q31 0 41 0t23-1l14-1h178l35 2q35 0 35 0h2t1-1l1-1h2v-1h1v-1h1v10h-1228v-136z" fill="#0e1111" stroke="#0e1111"/>
  <path d="m521 613v1h-7q-6-1-6 0 0 2 6 2 7 0 7-1h1q0 1 2 1h2v1h1v1h1v1h1v1h5t-3 1l-3 1q-1 0-4-2-2-2-10-2-7 0-25 1l-18 1h-1l-2-1-3-1h-1l1-1 1-1h4q5 0 14-1h8v1l6-1q7-1 8-1 1-2 8-2t7 1z" fill="#b57a5e" stroke="#b57a5e"/>
  <path d="m406 607h2q2 0 2 1 0 2 2 2h2v1l-3 13q-3 14-4 14-1 1-1 5v4l-1 1v1h-2v-1l1-1v-1l1-4q0-3-3-2h-2v-1q0-1 2-1 2-1 2-2 0-2 2-10 0-8 1-12 1-5-1-5h-2v-1t1 0h1t0-1z" fill="#9c8476" stroke="#9c8476"/>
  <path d="m545 560t1 1l4 1q4 0 4 1t3 2 3 2q1 1 2 2v1h-1v1h1v1h-2t-2-2h-3l-1-1q-1-1-2-2 0-1-2-1t-6-2l-3-2 2-1q1-1 2-1z" fill="#91786c" stroke="#91786c"/>
  <path d="m420 588h5v1l-1 1v1l-1 1v1l-3 2q-2 2-3 4-1 1-3 2t-2 3q0 1-3 2-3 0-3 0v1t-1 1q-1 0-1 0v1h-4q-5 1-6 2 0 1-6 1-5 1-5 2-1 1-6 2-5 0-15 3-9 3-14 3-4 2-6 3l-3 1h-11l-3 1h-3v-2h1v-1h1v-1l1-1h1v-1h1v-1l5-2q5-2 8-2t4-1q0-1 3-3 3-1 15-5 10-4 17-5 7-2 14-5t11-3q5-2 10-3 4-2 5-2h1q0-1 0-1z" fill="#20201f" stroke="#20201f"/>
  <path d="m627 789v-2h1q1 0 1 3-1 2-1 3v1t-4 3q-3 3-6 4-4 1-4 2t-2 1l-1 1v-1h1v-1h-1v-1h-1q-2 0-2-1v-1h1q1 0 2 0t0-2l-1-2h3v1h1v1h3q3 0 7-4 3-4 3-5z" fill="#5b7c7c" stroke="#5b7c7c"/>
  <path d="m564 301h3v1q-1 0-1 0 0 1 0 2 1 0 1 2 1 2-5 2l-6 1v4h-1v1h-3v1h-1q-1 1-5 0l-3-1v-1q-1-1-2-2t0-2l1-2 2-1q3-2 10-3 8-1 8-1t2-1z" fill="#422816" stroke="#422816"/>
  <path d="m521 642h1l2 4q2 5 2 6v1l1 3q1 3 0 3 0 1-1 1h-1l-2 4q-1 3-2 4v1q-1 0-8 1-8 0-9 2 0 1-6 2-5 1-5 2t-8 1h-13l-2-1h-4v-1h-1v1q-1 0-2 0t-1-1q-1-1-2-1-2 0-2 1t-1 0q0-1-5-1-4 0-4 1t-2 1h-5v-1h-1v-1h-1v-1h-1v-1h-1v-1h-1v-1l-1-1-1-1v-2h1v1h1v1h3q3 1 3 1 2 0 1-1 0-1 1-1t2 1q0 2 3 0 3 0 10 0t9 0h3l1-1 1-1h3v-1h1v-1h-11l1-1 1-1h4q2 0 4-1l2-1h3l1-1 2-1h-2l-5-1-5-1h11v-1l-1-1v-1l7-1q7 0 14-2t7-3q1-1 3-2t1-2h-1 3q4-1 5-1z" fill="#f0af8b" stroke="#f0af8b"/>
  <path d="m626 544q2 0 2 2 0 1-2 1-3 0-3-1 1-2 3-2z" fill="#cd9776" stroke="#cd9776"/>
  <path d="m507 442v-8h1q2 1 4 4 1 2 2 4 0 2 4 2 3 0 4 0h2v3q0 3-4 3t-4 1-1 2v2h-1q0-1 0-1-1 0-2 2l-2 2v-5h-1v-1h-1v-1t-1-9z" fill="#98745e" stroke="#98745e"/>
  <path d="m862 688v-2h2l1 2q1 2 2 3v1h2q1 1 1 3v3q0 1 2 2 1 0 2 8 0 7 0 20-2 14-3 17t-5 7q-2 4-8 7-5 3-6 4 0 1-3 2t-3 2q-1 1-23 1h-24v-1h-1v-2l-1-1v-2l1-1v-3l1-1v-1h3q3 0 3-1h7l1 1 12-1q12-1 17-3 4-3 6-6 1-2 3-2 3-1 2-2 0-2 0-2l1-1q1-1 2-2v1q0 1 1 1 1-1 2-3 1-3 2-4 1 0 3-5 0-5 1-17t-1-17-2-5z" fill="#dddedd" stroke="#dddedd"/>
  <path d="m498 713l1-2 1 1q0 1 1 15l1 14v4h1v1l1 2h8q9 0 10-1h1v1q-1 0-1 1-1 1-10 2l-9 1v2l1 3v5q0 4 0 5h1q0 1 42 1h42v1h-61l-36-1h-1l2-1q2-1 3-26 0-26 2-28z" fill="#94abab" stroke="#94abab"/>
  <path d="m0 410v-133l1 3q1 2 1 126v125h1v1h1v1l1 1-1 3q-1 3-1 4-1 0-1 127v126l-1-126q-1-126-1-126v-132z" fill="#0b0f0f" stroke="#0b0f0f"/>
  <path d="m604 502l2 2v5l-1 1v8h-3q0-1-2-3 0-2 0-6 1-4 0-4-2-1-2-3t1-2q2 0 5 2z" fill="#bb8768" stroke="#bb8768"/>
  <path d="m602 525l3-1 2 2q1 2 1 3-1 1-2 1t-2 0h-4q-2 0-2-2t4-3z" fill="#c99373" stroke="#c99373"/>
  <path d="m677 414l1-2 5 3q5 3 5 4h1l2 3q3 2 4 6t2 6v2q-1 0-1 1t-2 1h-2t-2-2l-1-3v-1q-1-1-2-4-2-2-5-6l-4-2v-1h-1v-1h-1q-1 0-1-1 1 0 2-3z" fill="#b37250" stroke="#b37250"/>
  <path d="m972 651h3q0 1 1 1 0 0 0 1h5q4 0 4 1 1 2 1 10v8t-12 2-22 3l-10 1v-4l1-1 1-1v-1h1l3-2q4-2 6-5 3-2 4-3 1 0 4-4 3-5 4-5 2 0 6-1z" fill="#e5e5e5" stroke="#e5e5e5"/>
  <path d="m1221 785l1-1v10q0 10 0 10-1 0-5 0h-4v-1q1 0 3-3t2-8v-6h1v-1h1v1l1-1z" fill="#749595" stroke="#749595"/>
  <path d="m524 447v-3l1 1q1 1 2 0 0-1 1-1h2v6h8q2 1 2 3t-1 2l-1-1h-3q-3 0-2 1 0 1 1 3 2 2 4 2t3 0h1l1 1v2l-2 1q-1 2 3 5 6 3 6 4 1 1 2 2v1h2l1-1 1-1 1 2v4q0 1 1 1h2v1h-4v2q0 1 1 1t1 1v1h-1q-1-1-3 2l-1 2h-1q0 1 0 2-1 1-7 1t-6 4v5h-1l-1 1h-2v-1h-1v-2h-2v-1q0-1 0-4t-4-4q-4 0-6-3l-1-2v-1q-1 0-1 0t0-2 1-3q1-2-1-3h-1q-1-1-1-2t0-5-1-10l-2-6v-2q1-2 1-2 0-1 4-1t4-3zm8 21v2t-2 0q-1 0-2-2v-3l-3-1q-3-1-3-3 0-1 4-1 4 1 6 4 0 2 0 4zm12 12h-1l-1-1q-2-2-1-5 1-2 3 0t2 4-2 2z" fill="#e5ab88" stroke="#e5ab88"/>
  <path d="m746 408l1-5h2v25q-1 0-2 6-2 7-5 6-2-2-4-1-2 0-2 1l-1 1v-1l1-2v-3l-1-1q-1-1-1-5t2-5l2-2h5v-1q1-1 1-5 2-3 2-8z" fill="#aa7c62" stroke="#aa7c62"/>
  <path d="m640 323h4l-3 1q-3 1-3 6 0 4 2 6 2 1 2 2v1h-1q-1-1-3-3l-2-3h-1v-1h-2v1h-1v13q0 12 2 16 0 3 1 8 1 6 1 7v1h1v1h1v5h-4v-1h-1v-1h-1v-1h-1v-1h-1v-2q0-3-2-4 0-1 0-22t1-24q1-2 4-3t7-2z" fill="#e2a17e" stroke="#e2a17e"/>
  <path d="m827 721h-1q-1 0-1 1t-1 1-1 1q-1 1-4 4-4 2-7 4-4 1-4 2t-5 2h-5l1-1 1-1h-2v-2h4q5 0 8-3t5-4 3-2q0-1 2-2 3 0 4-1 0-2 2-2t2 1q-1 1-1 2z" fill="#7c6961" stroke="#7c6961"/>
  <path d="m572 319v-1h8l10 1q10 1 10 1 1 0 2 1 0 1 0 1h1t1 1q0 1 0 1h1l3 4q2 3 2 4t-1 1v-1q-1-2-2-3t-3 1q-3 0-4 2v2h-2q-2 0-3 1h-1v-1q0-1 3-4 3-2 3-2v-2h-2v-1h-1v-1h-3q-2 0-3 2l-1 3h-2v-2l1-3q1-2 1-3v-1h-1l-4-1h-13z" fill="#997266" stroke="#997266"/>
  <path d="m577 486l1-1 1 1q1 0 1 0v2q0 1-2 2-2 0-2-2t1-2z" fill="#c48e6f" stroke="#c48e6f"/>
  <path d="m700 489v2h1v1h1l1 1h1v1q0 2-1 3t-3-1q-1-2-3-2-2-1-2-2v-1l1-1q2 0 2 0 1 0 2-1z" fill="#ae7e60" stroke="#ae7e60"/>
  <path d="m893 603v-1h1q1 0 3 2t6 4q3 1 8 2 5 0 5 2-1 3 0 3t1-1 7 2q8 4 8 4v4h-1v1h1v1h-3v-1l-1-1v-1h-4q-2-1-3-2-1-2-3-2-1 1-13-1t-13-4q0-1-2-1h-3v-1h5v-6h1v-1h1v-1t-1-1z" fill="#383838" stroke="#383838"/>
  <path d="m603 466l3 2q2 2 16 4 14 0 15 0 1-2 3-2h1q-1 1-1 2l-2 1v2h5v1h-5v1q-1 1-1 1h-8q-8 0-9 2 0 1-3 2-2 0-2-1v-1q-1-1-1-1 0-1-2-1-3 0-6-3-2-3-5-3h-3v-3q0-1 2-2 3-1 3-1z" fill="#ae6f4d" stroke="#ae6f4d"/>
  <path d="m420 595l3-2-1 2q-2 2-2 6t-1 5q-1 0-2 2t-2 2h-3q-1 0-1 1t-1 1 0-2q0-3-2-2h-3v-1q0-1 3-1 4-1 4-2 0-2 2-3t3-2q1-2 3-4z" fill="#826554" stroke="#826554"/>
  <path d="m628 19v-1h1q1 0 3 1h2v1t-4 2q-3 3-3 4t-2 1h-2v-1q-1 0 0-1v-1h1q0-1 1-2v-1q1 0 1-1h1q1 0 1-1z" fill="#4f6767" stroke="#4f6767"/>
  <path d="m1028 762l2-1 1 1q1 0 2 3t75 4h74t1-1l1-1q0-1 0 3v4h-82q-81 0-130 1h-50v3h-1q-1 0-5-1-4 0-4 1t2 2h2-4q-2 0-4 1h-2v-3q0-2-68-3l-68-1h50v-1h32q33-1 38 0h6l64-1q63 0 66 0h2v-2q0-1 1-2 1 0-1-3t0-3z" fill="#3a4848" stroke="#3a4848"/>
  <path d="m648 289l8 3q8 3 8 3 0 1 1 1h1l-1 1q-1 1 0 1 1 1 0 2t-1 1v-1t-1 0h-3l-1-1q-1-1-5-1l-5-1h-1q0-1-2-2l-2-2v-1t-1 0v-2q0-1 2-1 2 1 3 0z" fill="#503422" stroke="#503422"/>
  <path d="m925 800q-1 1-1 1v1h-2v1h-1v1h1l16 1q15 1 24 1h10l-14 1q-13 1-23 1t-41 0l-32-2h24q24-1 25-2 1-2 3-2 2-1 3-2 1 0 1 0v-1l1-1q1 0 1 0l1-2q1 0 3 0t2 2q-2 2-1 2z" fill="#334040" stroke="#334040"/>
  <path d="m316 780h13-4q-3 1-4 2 0 0 1 1 0 1 0 1t-6 2l-5 1v-1q1-2 2-4l1-1q1-1 2-1z" fill="#4e6363" stroke="#4e6363"/>
  <path d="m4 5l-2-5h7l2 2q3 1 3 2v2q0 2-1 2-1-1-2-1l-1-1v1t-2 1q-1 2-4-3z" fill="#6a8888" stroke="#6a8888"/>
  <path d="m722 466q2 0 2 2 1 2 2 2 2 0 2 2t-4 0q-3-2-3-3-1-2 1-3z" fill="#c08e6f" stroke="#c08e6f"/>
  <path d="m129 32l92-1v1h-169l10 1q9 1 58 1h48t-18 1l-18 1-45 1q-45 1-46 3-1 1-1 250v249l-1 1-1 1v3l-1-7-1-7t0 1h-1v-4q-1-4-1-129v-243q0-119 2-121t93-2z" fill="#6d8080" stroke="#6d8080"/>
  <path d="m547 600v-2h2q1 1 2 2 0 1 5 2 5 0 12 2 7 1 8 2 0 2 3 2t3 1h-2q-2 1-2 1l-1 1q-1 0-1 1v2q0 2-1 2h-1v-1q0-1 0-3v-2h-3q-3 0-7-2-5 0-9-2h-4v-1h-1v-1q0-1-2-2-1 0-1-2z" fill="#8d8b8b" stroke="#8d8b8b"/>
  <path d="m692 362h5v2l-1 1v1h-2l-2 1-1 1h-1l-2 1q-2 1-2 1-1 0-4 1t-4 0l-1-1t1-1q0-1 0-2l-2-1v-1l5-1q5-1 6-2 1 0 5 0z" fill="#ba7959" stroke="#ba7959"/>
  <path d="m514 455h1l2 6q1 6 1 10t0 5 1 2-3 0h-4v-8q0-9-1-10l-1-2 2-2q1-2 2-2 0 0 0 1z" fill="#8e6853" stroke="#8e6853"/>
  <path d="m87 37l45-1h7l35 2q34 0 35 2t1 364-1 363v1h-163q-4 0-5-1h-1v-477q0-249 1-250 1-2 46-3z" fill="#fdfdfd" stroke="#fdfdfd"/>
  <path d="m864 686h-2v2t2 5 1 17-1 17q-2 5-3 5-1 1-2 4-1 2-2 3-1 0-1-1v-6h1q1 0 1-1 0 0 0-17 0-18-1-22l-1-4v-1q0-1 0-1l2 1q1 1 1-1 0-1 3-1 2 1 2 1z" fill="#838383" stroke="#838383"/>
  <path d="m652 321l2 1q2 1 3 6v5q0 1 1 1v2h1v1h1v2q-1 1-1 1h-1q-2 0-2-1t-2-2-2-2-3-2q-2-1-5-3l-2-2v-3h1l3-1q2 0 2-1t2-1 2-1z" fill="#d6cdcf" stroke="#d6cdcf"/>
  <path d="m473 677h4v1l-1 1v1h1l1 1 2 1h-1v1q0 1-1 1-2 0-2 1t-6 2l-5 1v1h-1v1h-4l-1-2-1-1v-1l1-2 1-2 2-2q3 0 4-1l2-1h5v-1z" fill="#d79572" stroke="#d79572"/>
  <path d="m808 588h6l1 3q1 3 3 4t4 5q2 5 2 5v1h1q1 0 1-2 0-1 1-1l1 3q1 2 3 7 1 5 2 9 1 5 0 6v2h-1v7h1v1l1 5q2 5 4 9 2 5 2 6l-1 8q-1 8-1 18 0 11-1 14l-1 4v1q-2 1-1 2 0 1 1 1h1v1q0 1-1 1-2 1-3 6-1 4-2 5t-3 2h-1q0-1 1-2 0-1-2-1t-2 2v2h-1q-1 0-3 0t-2 1q-1 1-3 2t-5 4-8 3h-4t-2-1q-1 0-1-1 1-2-1-4-2-3-11-6t-9-4-5-2-5-2-4-1q-3-1-8-3l-4-2q-1 0-1-1-1 0-6-2l-5-2v-1t-2-1v-13l9-2q9 0 9-1l6 1q7 0 8 1t4 1h4l1 1 1 1h2v-5h-1v-1h-1l-2-1-2-1h-2q-2 0-2-1t-9-1l-9-1h-2q-2-1-4-2l-3-1-1-1v-1h-1v-1h-1v-1h-1q-1 0-2-6l-1-6v-2l1-1 1-1 1-1 1-1q1 0 2-1h2l2 1q3 0 4 1h2l11 1q11 0 11 0v1h1v1h2v-1h1v-1h1v-1h1v-6h-1v1h-5q-2 0-8 0h-6q-1 0-10-2l-8-1q-1-1-3-1h-2l-1-1v-3q0-4-2-6-2-3-2-8v-5h1v-1h27q21 0 24 0h4v-1h1v-1h1v-4h-6q-6 0-26 0t-21 0l-1-1v-1t-2-4q-1-3-2-3-1-1-1-5 1-4-1-5l-1-1h2q2 0 3-1t1-1q1 0 1 0v-1l4-1q3-2 5-2h5q3 0 3-1h9q8-1 14-2t6-2h3q3-1 11 1 7 2 8 3t6 1zm-10 61l-7 1-1-1q0-2 3-3 4-2 6-7t4-5q1 1 3 4 2 2 0 6t-8 5zm-2 37h-1l-1-1-1-1h-2v-1h-1v-5l4-1q4-2 8-6 4-5 5-5t2 5-4 9q-4 4-5 5-2 1-4 1zm6 16q0-3 0 3t-1 9q-2 4-7 4-4 0-2-3 1-3 5-6 3-3 5-7z" fill="#f8b994" stroke="#f8b994"/>
  <path d="m802 702q0-3 0 3t-1 9q-2 4-7 4-4 0-2-3 1-3 5-6 3-3 5-7z" fill="#df9d7a" stroke="#df9d7a"/>
  <path d="m605 406h1q2 0 2 1t3 3q3 1 3 1 0 1 0 1h1t1 1v1t1 0l2 1h2v1h-3q-2 0-2 2v3l1 1v1h-3l-4 1h-1v1h-1v-1q0-1 0-5t-6-5h-6l-1-1h-1v-1h-2v-4l6-1q7-1 7-1z" fill="#b87656" stroke="#b87656"/>
  <path d="m675 107h4q0 1-4 1h-4v2h2l3 2q4 1 4 4 0 2 1 9l1 7v2h1v1h1v2h1l1 14q0 15 1 15t1 16v18q0 2-3 3t-15 1l-12 1v-1t-1 0v-8q-1-8-1-40l-1-32q-1-1-1-1v-1t-1 0v-1h-1v-5q0-5-1-5-1-1-2-3l-1-3q0-1 0-1t-2 0h-2v-1q0-1 4-1 3 0 13 2 9 1 10 2 0 1 4 1z" fill="#e4e4e4" stroke="#e4e4e4"/>
  <path d="m894 744h-1q-1 0-1 7-1 7-2 7-2 1-2 2 0 2-1 3l-1 1v4h2l5 1h5v1h-9v1h1v1h6v1h-6q-5-1-38 0h-44q-12-1-14-1h-2v-3h1v-1h1v-4l1-4 1-4v4q0 3 1 3v1l1 1v2h1v1h24q22 0 23-1 0-1 3-2t3-2q1-1 6-4 6-3 8-7 4-4 5-7t3-17q0-13 0-20-1-8-2-8-2-1-2-2v-2q1-1 4 2 2 2 6 10t6 14q2 5 4 8 2 2 3 6t1 6 0 2z" fill="#181919" stroke="#181919"/>
  <path d="m667 304v-1l2 1q2 0 2 2t5 3q4 1 5 1v1h-1q-1 1-3 1l-2 1h-1v-1h-4q-3 0-4-1 0-1-8-1l-9-1h-1v-1h-2v-2h17l2-1q1-1 2-1z" fill="#a86a47" stroke="#a86a47"/>
  <path d="m697 312v-1h2l1 1 3 1q3 2 6 5 3 2 6 4t4 2 1 0 1 0v-1q1 0 1 1v2q0 1 1 2h-1q-2 0-6-2t-4-2q0 2 2 5 3 3 4 3t6 1h5v1h-10v3h-1q0-1-2-1-1-1-1 0v1h-3q0-1 0-1t0-3v-3h-2q-1 0-4 1l-2 1q0-1-1-1 0-1-1-1h-1l-1-1h-1v-3q0-1 2-1t2-1q-1-2-3-4l-3-1v-1q-1-1-1-4v-2t1 0z" fill="#aa7154" stroke="#aa7154"/>
  <path d="m453 584h10l5 2q6 0 7 1t11 1h10q0 1 1 1v1h1l2 1q1 0 1 1t1 1 1 9q-1 8-2 9-2 1-3 0-1 0-1 1t-4 1l-4 1h-5q-6 0-19-1-13 0-13 3 0 2 7 4l7 1v1h19l-2 1q-2 1-3 1l10 1q11 0 11 1t-1 1q-1 1 0 1h1l-1 1q-1 0-1 1t3 2q2 0 0 4-1 4-2 4-2 1-2 2v1h-1v1h-1v1h-6q-5 1-6 1t-6 2h-6l-1 1-1 1h-1v1h1v1h4q4 0 6 1h2v1l1 1v1h-11l5 1 5 1h2l-2 1-1 1h-3l-2 1q-2 1-4 1h-4l-1 1-1 1h11v1h-1v1h-3l-1 1-1 1h-3q-2 0-9 0t-9 0-5 1q-3 0-6-1h-3v-1h-1v-3q-1-2-1-2 0-1-2-2l-2-1v-2h1l1-1-1-1v-1h2v1q1 0 1-2t2-3h1l2 1q2 1 5 1h4l1-1 1-1h1v-1h1v-3h-1l-2-1q-2-1-4-2-3-1-3-8l-1-7h-3v4h-1v1h-1v1h-1q-1 0-1 1l-1 3v4q-1 0-1 4v3h-2l-1 1h-1l-1 1-1 1-1-4q-1-4-1-3t-2 0-2-11v-10h1v1h1v-5h-2v1l-1 1q-1 2-1 1-1-1-1 0-1 0-1 1v2l-1-4-1-4v-8h1q1 0 2-2t2-2q1-1 1-5t2-6l1-2 7-3q6-2 10-4 5-2 13-2z" fill="#fcbc97" stroke="#fcbc97"/>
  <path d="m571 493q2-1 3 0 0 1 1 4 0 3-2 1-2 0-3-3-2-2 1-2z" fill="#d09978" stroke="#d09978"/>
  <path d="m1214 788h1v2q-1 2-4 6t-6 4-4-1l-1-1q0-1-2-3l-2-2v-5q0-2 2-3l1-1h1l1-1q2-1 5-1t6 3q2 3 2 3z" fill="#81a1a1" stroke="#81a1a1"/>
  <path d="m1021 66l1-2v221q0 221 0 308v87l-1 2v1q-1 0-1-3v-4l-1-76q-1-77 0-304 1-228 2-230z" fill="#323b3b" stroke="#323b3b"/>
  <path d="m590 744h4v12q-1 12-3 13h-2v-1h-42q-42 0-42-1h-1q0-1 0-5v-5l-1-3v-2l9-1q9-1 10-2 0-1 1-1v-1l31-1q32 0 33-2 1 0 3 0z" fill="#ebebeb" stroke="#ebebeb"/>
  <path d="m846 666h2v2q1 3 2 3t3 5q3 6 3 8v2t0 1v1l1 4q1 4 1 22 0 17 0 17 0 1-1 1h-1v5q-1 1-2 2l-1 1h-1q-2 0-4 2-3 2-4 3 0 1-5 2t-11 2l-6 1h-8q-9 0-9-1-1 0-4-1-4-2-5-4l-2-2v-2l-1-1-1-1-1-1h-1v-2h-1v-1h1v-1h4v2h1v1h8q5-1 5-2t4-2q3-2 7-5 5-4 5-5 1 0 2-1h2q2-1 5-7l3-7t1-1q1 0 1-1t1-1 2-4q1-3 3-4 1 0 0-16 0-15 2-14z" fill="#e9e9e9" stroke="#e9e9e9"/>
  <path d="m377 685l1 1t1 2v3l-1 1t-1 0v17q1 17 1 18t1 2v1l1 8q1 8 5 10 4 0 8 2t9 3h6v1q1 1 12 0 12 0 12-1t5-3q5-1 5-1v-1h3v-1h1v-1l1 2v2h-1v6q0 4 0 4t0 1l-1 3v2h-1v-4h-1v1h-1v1h-1t-2 2-23 2-22-1q0-1-3-2t-5-3q-2-3-5-4-3 0-5-5-3-5-4-5t-4-6q-2-5-3-22v-18q1-1 1-2 1 0 2-4 1-3 2-3 1-1 2-2 1-2 2-2 1-1 2-2v-1q1 0 1-1z" fill="#dedede" stroke="#dedede"/>
  <path d="m25 262l-1-2 2 2q2 2 4 4 0 1 1 3v2q-1 0-1 1h-1q-1 0-5-4l-4-3h1q1 1 3 0 2 0 1-3z" fill="#4a5f5f" stroke="#4a5f5f"/>
  <path d="m586 546l1-2q1 0 1 0v4q0 2 0 2v2q0 2-1 2h-1l-1 1h-1l-1-1q-1 0 0-4 0-3 1-3 2 0 2-1z" fill="#e1a683" stroke="#e1a683"/>
  <path d="m29 794h2l-1 3q0 3-1 4h-1v3h1l51 1 50 1h-41q-41 0-58 0h-18v-1h1l1-1q1 0 1-2 1-1 3 0 2 0 2 1 1 1 1-2 2-3 3-5 2-2 4-2z" fill="#516969" stroke="#516969"/>
  <path d="m19 265h1l4 3q5 4 6 3h1v1q-1 1-1 2v1q0 1 1 2v1l-2-1q-2-1-3 1t-2 2q-2 1-2 2t-4 1-4 0v-1h-1l-1-1h-2l-1-2-1-2v-1l-1-1-1-1v-2l1-2 1-2v-1h1v1h1q2 0 2-1h1q1-1 3-1 2-2 3-1z" fill="#7fa0a0" stroke="#7fa0a0"/>
  <path d="m12 264l1-4h11l1 2q1 3-1 3-2 1-3 0h-2q-1-1-3 1-2 0-3 1h-2q-1 0 1-3z" fill="#2c3939" stroke="#2c3939"/>
  <path d="m728 522v-1l2 4q1 5 1 5 1 0 1 3v3t-1-2q0-3-1-3t-1 3q-1 3-2 4-2 2-3 4t-2 2-2 2q0 1-6 4l-6 4h-1v1h-1v1q0 1 1 2v1h-1l-1-1h-3q-3 0-4 2 0 1-4 2h-4v1h-1q0 1-1 1-2 0-3 3l-1 2h-2l-1-1h-7v-4l1-1v-1h2v-1q1 0 1-1 2-2 6-8t8-10l3-3 8-5q7-5 8-6 1 0 1 0v-1t1-1l5-4q4-5 6 0 2 4 3 2t1-2z" fill="#f0b38f" stroke="#f0b38f"/>
  <path d="m612 671q4 0 4 3t-4 3-3-3 3-3z" fill="#c3c2c2" stroke="#c3c2c2"/>
  <path d="m718 642l7-1h7v2h1v1h4q2 0 3 1 0 1 0 2 1 1-3 1l-4 1h-1v-1q-1 0-8-1-6-1-6 1 0 1-1 1h-1v-1q0-1 1-1v-1h-1q-1 0-2-2l-1-2h1q1 0 1 1t1 1 1-1q1-1 1-1z" fill="#91593a" stroke="#91593a"/>
  <path d="m322 8q0 1-2 3t-3 2q-1 1-1 6l-1 5h-1t-1 0h-2q-1-1 0-6t4-8q4-4 5-3 2 0 2 1z" fill="#445a5a" stroke="#445a5a"/>
  <path d="m14 6v-1l3 1q3 0 6 4 3 3 4 4v2q-1 2-1 3v3h-2l-6 1h-5v-1q-1 0-1 0t0-3l-1-3h1v-1l-1-1-1-1v-2l1-1q1-1 2-2 1 0 1-2z" fill="#86a6a6" stroke="#86a6a6"/>
  <path d="m514 613h6q0 1 0 1h1v1q0 1-7 1-6 0-6-2 0-1 6-1z" fill="#844a28" stroke="#844a28"/>
  <path d="m654 2h251q1 1 1 2v2q-1 0-2 1 0 1-1 8l-1 7h1v1h1v1h3l2 1q2 1 2 1h-1l1 1q1 0 0 2-1 3-1 3h-126l-2 1h-2v2h1l1-1h4v1h-2q-1 1-2 12v12l-1-1-1-1v-11q0-10-4-10l-3-1v-1h4v-2h-7l-74-1-74-1v-3h3q2 0 2-1t3-4q4-2 4-2v-4q0-2-2-3-1-1-3-4l-1-3h-1l-1-1v-1h1l7-1q7-1 20-1z" fill="#86abab" stroke="#86abab"/>
  <path d="m591 493v-1l2 1q1 0 2 1v2h-1t0 1h-2q-1-1-1-2l-1-2h1z" fill="#d9a07d" stroke="#d9a07d"/>
  <path d="m752 737v-20h2l1 1 11 5q10 5 11 7 1 1 1 20v18h-1l-13 1h-12v-1l-1-6v-5h1v-20z" fill="#b9d3d3" stroke="#b9d3d3"/>
  <path d="m568 435v-1h4l2 2q2 2 1 4 0 2-1 3h-2l-1-1q-1-2-2-3l-2-1v-2l1-1z" fill="#b18065" stroke="#b18065"/>
  <path d="m733 478q2-1 1 2 0 2-2 2-1 0-1-2 1-2 2-2z" fill="#cb9675" stroke="#cb9675"/>
  <path d="m550 330t1 2l1 3 1 1q1 2 1 2h1v1h1v1h1v1h1v1h1v1h1v1h6q6 0 8 0h1v1l1 1v1h-4q-1 1-2 1-1 2-8 2t-8 0l-1-1v-1q-1 0-4-2l-4-1q0-1-2-1l-2-1v-1l-1-1v-7l1-1q1-1 2-1v-1l3-1q3 0 4 0z" fill="#e1ced3" stroke="#e1ced3"/>
  <path d="m456 365l2 1q2 1 3 6 2 4 2 5 1 0 1 2v2h1v1h1v2l1 1v1h2v-1h1v-8l1 4q1 4 1 7v2q0 1-1 88l-1 87v-86q0-86-2-87-1 0-5-4-3-4-5-8-2-3-2-8l-1-4q-1-1-1-1v-1q1 0 2-1z" fill="#8a7e75" stroke="#8a7e75"/>
  <path d="m536 326v1h1v-1h1v1l1 1v1h1l1 1h1t0 1h1v1q-1 0-2 1l-1 1v7l1 1v1l2 1q2 0 2 1v1q-1 0-2 0-2 0-4-1t-3-5q0-3-2-3t-4 5l-2 4-1 1h-1v-1h-1v-1h-1v-1h-3l-3-1h-2v-5h2v-2h3q3 0 3-1h1l4-3q4-4 5-4t1-1q1-1 1-1z" fill="#935d47" stroke="#935d47"/>
  <path d="m465 240l1-3v1h1l1 1q2 1 2 3v2q-1 0-2 1-2 0-2 1 0 2-1 0l-1-2 1-4z" fill="#11100f" stroke="#11100f"/>
  <path d="m912 780h1l-3 2q-3 2-3 8l1 6 1 1 1 1h1v1h1v1h2q2 0 2-1t1-1h1v2t-1 0q-1 1-3 2-2 0-3 2-1 1-25 2h-39l30-1 30-1h1q1 0-2-3-2-2-2-9 0-8 1-10l1-1h2q2-1 4-1z" fill="#4e6363" stroke="#4e6363"/>
  <path d="m544 480h-1l-1-1q-2-2-1-5 1-2 3 0t2 4-2 2z" fill="#a37458" stroke="#a37458"/>
  <path d="m604 537q2-1 2 1 0 1-2 1-2 1-2-1 0-1 2-1z" fill="#d59c7b" stroke="#d59c7b"/>
  <path d="m668 498q2 0 2 2t-2 3q-3 0-2-2 0-2 2-3z" fill="#c79172" stroke="#c79172"/>
  <path d="m594 424v2q-1 2-1 2h-1q-1 0-2-1-1 0-1-1v-2h2q3 0 3 0z" fill="#c18b6c" stroke="#c18b6c"/>
  <path d="m666 457h2q1 0 1 1t5 3q4 1 4 2h1l3 1q2 1 2 4-2 2-2 2 0-1-1-1v-1q-1 0-1 0h-2q-2 0-8-4l-5-3v-1q-1-1-1-2t2-1z" fill="#b2724f" stroke="#b2724f"/>
  <path d="m621 10h1l3 4q3 3 3 4v1q0 1-1 1h-1q-1 0-1 1h-1q0 1-2 2t-6 1q-5-1-5-4l-1-2v-4q0-3 1-4l3-2q4-2 5 0t2 2z" fill="#87a6a6" stroke="#87a6a6"/>
  <path d="m1223 269v128q-1 128-1 128v-115q0-114-1-122t-2-6l-2 1v-1q1-1 1-2 0 0 0-2v-1q0-1-1 0h-1q-1 1-1 1h-1v1h-1v1h-2v-1l1-1 1-1 1-1h1v-1h1v-1h3v1h1v-1h2v-2q0-3 1-3z" fill="#597373" stroke="#597373"/>
  <path d="m566 414h1v2q-1 3 0 4-1 1-4 6l-4 4-2 2q-1 3-2 6-1 2-1 2 0-1-1 0h-1t0-1-1-3l-1-4h1q1-1 5-6 4-6 5-6l2-3q2-3 3-3z" fill="#ab6b4a" stroke="#ab6b4a"/>
  <path d="m651 118v5h3q0 1 0 1h1l1 32q0 32 1 40v8t1 1v1t1 0l7 1 7 1h-1l-10 1q-10 1-26 1-17 0-18-10l-2-11v-7q0-8-1-9t-1-21v-20l1-4 1-4v-6q2-6 18-6 16 1 16 2 0 0 1 4z" fill="#090909" stroke="#090909"/>
  <path d="m462 726h4q4 1 4 12v12h-10q-10 0-10-1l-1-5v-5l1-1v-1h1v-1h1v-2q0-1-1-2l-2-2h1l5-2q5 0 6-1t1-1z" fill="#110f0e" stroke="#110f0e"/>
  <path d="m31 22l-1 2-1 1h-1v2h-1l-1 1h-13v-1q-1 0 0-2v-2h5l6-1h2v-2h2q3 0 3 2z" fill="#486060" stroke="#486060"/>
  <path d="m516 169h1l-1 17q0 16-1 20v3h8q8-1 8 0h-1q-1 1-2 1 0 0-2 3-1 3-8 3h-8v-1t-2-2v-3h1v-1h1q2-1 3-4 1-4 1-20 1-16 2-16z" fill="#776d69" stroke="#776d69"/>
  <path d="m782 540v-1l1 15q1 15 8 16 7 0 8 1t1 1v1h-1q-1 1-2 1-1 1-7 1t-7-15l-1-16v-4z" fill="#ceaa95" stroke="#ceaa95"/>
  <path d="m614 513l1 1h1v-1h1v1h1v1h1v1h1v3h-1v1h-2v1h-1q0 1-6 1h-6v-1h-1v-1h-1v-2h3v-6h3q4 0 6 1z" fill="#daa17f" stroke="#daa17f"/>
  <path d="m332 796l3-3q0 1 1 1v2q0 1-1 3t-2 2v1h-1v1h1v1h1l12 1 13 1h-8q-8 0-19 0h-11q1-1 1-1v-1h3q3 0 3-3 0-2 4-5z" fill="#4f6767" stroke="#4f6767"/>
  <path d="m781 304l1-3 1 7q1 7 7 8 7 0 11 4 3 4 4 6 0 3 1 4 2 0 1 10 0 10-1 11-1 0-1 4v4h-1v-7h-4v5q-1 5-2 5t-2 4q0 5-1 5t-1 1q0 2-1 4l-1 3v1h-1v1h-1l1 2q1 2 1 1 0 0 1 0v2q0 1-1 2-2 0-2 3-1 3-4 5-4 3-4 11v8l-1-4-1-4v-50q0-50 1-53z" fill="#ba8e73" stroke="#ba8e73"/>
  <path d="m519 335h5q0 1-3 1h-3v2h-2v5h2l3 1h3v1h1v1h1v1l-1 1h-1t-6-1-8-2q-3-1-4-1 0 0-1 7l-1 7v8h-1v1h-1v-30h1v1h1v1h1v1h2l1-3q0-3 3-3t8 1z" fill="#c28767" stroke="#c28767"/>
  <path d="m1188 2h7l1 1v3l-1 2q-1 1-1 2v1h-2l-1 1h-1v1l-1 1v5l1 3 1 1q1 0 2 2 1 1 5 2t4 2 1 1v1q0 1 3 1 2 0 3-2t3-2q3 0 4-2t2-2h3v2l1 2v-4l1 122v123q-1 0-1 3v2h-2v1h-1v-1h-2v1h-1v1h-2v-5q0-1-2-1-2-1-2-2v-1h2q2 0 2-2v-3h-1v-1h-1v-1h-12q-1 0-2 3-2 3-3 4l-1 1-1 2v4h-2v-4q-1-5-1-12v-8h-1v1q-1 0-1 3v2l-1-107q-1-107-1-110-1-3-2-3h-1q-1-1-1-1h-80l-79 1q-1 0-1 8v8l-1-4-1-3v-8t0-2q-1-3-50-3l-50-2-1-1v-1h4v-1h1q0-1 2-3 3-3 4-3 1-1 1-3 1-2-1-4t-3-4q-1-3-3-4l-1-1v-1q0-2 131-2 132 0 134 0zm28 266t1 1q0 1-1 1 0-1 0-2z" fill="#84a8a8" stroke="#84a8a8"/>
  <path d="m322 8l7 3q7 3 7 6t1 4v1h-1t-2-1q-1-1-4 3-2 4-7 5l-4 1-1 1h-1v-1l1-1v-3h-2v-2h-1l1-5q0-5 1-6 1 0 3-2t2-3z" fill="#799797" stroke="#799797"/>
  <path d="m727 508h1v14t-1 2-3-2q-2-5-6 0l-5 4h-1t0 1q-1 1-1 1-1 0-1-1t-1-1-1-1v-1t1 0v-1q0-1 1-1 0-1-1-2-1-2-1-3v-3h2q1 0 2 1h2v1h2v-1t1-1l2-1q1-1 2-3t3-2q3 0 3 0z" fill="#825e4a" stroke="#825e4a"/>
  <path d="m571 319h10q0 1-2 1t-1 1 0 2q-2 1-4 5-4 4-9 5l-5 1v6h-4v-1h-1v-1h-1t-1-2l-1-1-1-3q-1-2-1-2v-2h-5v-2l3-1q4-1 4-1v-1l9-2q9-1 10-2z" fill="#341f12" stroke="#341f12"/>
  <path d="m254 762h10l6 1q6 1 10 2 5 1 6 2 0 1 2 2h2v1h-3v2h9v1h-106q-84-1-117-1h-33v-1h-1v-1h169v-1h32q1-1 1-1l1-4q1-3 2-3 1 1 10 1z" fill="#141818" stroke="#141818"/>
  <path d="m735 672h1l1 1 1 1h3l3 1q2 1 4 2h2v1q0 1-1 1t-1 1q0 2 0 2h-2q-1 0-2-1 0-1-6-2t-9-2-7-1q-3 0-3 2l-1 1v1h-1l-1 1h-1v-1l-1-2v-2q0-1 1-2h2q1 0 3-2 1-2 8-1t7 1z" fill="#a76b4e" stroke="#a76b4e"/>
  <path d="m587 399v1q-1 0-1 1t-3 3l-3 3v1h-1v1h-1v1q-1 0-1 1h-1q0 1 0 1-1 0-1 1h-1q0 1-4 4l-3 3q-1-1-1-3v-2t1-1 1-2v-1h1v-1l1-1q2-1 2-1v-1t1-1h1t1 0v-1q1 0 1-1 0 0 1 0v-1l3-3q4-4 5-3 1 0 1 1 0 0 1 1z" fill="#b06f4e" stroke="#b06f4e"/>
  <path d="m627 7v-1h1l1 3q2 3 3 4 2 1 2 3v3h-2q-2-1-3-1h-1q0-1-3-4l-3-4 1-1h1l1-1q1 0 2-1z" fill="#4c6262" stroke="#4c6262"/>
  <path d="m652 358l-1-4 1 1q2 1 2 2v1h2q2 1 4 3 1 1 1 2l1 1q2 2 2 2v1h-1q-1-1-5-3-5-2-6-6z" fill="#e09e7a" stroke="#e09e7a"/>
  <path d="m458 576l-4 1q-5 1-4 2 0 1 4 1h4l1 1q1 1 1 2l1 1h-8q-8 0-13 2-4 2-10 4l-7 3v-1l1-1v-1l1-1v-1h-4l-1 1h-1v-2l4-1q4 0 5-3t2-5q2-2 4-2t4-1h10q10 1 10 1z" fill="#c39074" stroke="#c39074"/>
  <path d="m561 550v-2h3l3 2q3 2 4 3h1q0 1 1 1h1l2 1q2 1 2 2v1h-1l-1 1h-4q-3-1-6-4l-4-3q0-1-1-1v-1z" fill="#8b6049" stroke="#8b6049"/>
  <path d="m636 518q1 0 2 1 0 2-1 3-2 0-2-2-1-2 1-2z" fill="#e4a986" stroke="#e4a986"/>
  <path d="m666 296l8 2q7 2 14 3t8 2q0 1 0 1h1l1 1q0 1-1 2t-1 2 1 1h1v1h-2q0 1 0 1-1 0-4 1t-4-1q0-1-4-1h-3v-1q-1 0-5-1-5-1-5-3t-2-2l-2-1h-1l-1-1h-2v-2l1-1q2-1 1-1t0-1 1-1z" fill="#50311d" stroke="#50311d"/>
  <path d="m401 639h2q2 0 2 3l-1 4v2t-1 0v1q-1 0-1 1 0 0-1 3l-1 3v1q0 1-3 1t-3 2q-1 2-2 3l-1 1h-1v5l-1 1q-1 2-1 2l-2 5q-2 5-3 10t-1 5h-2t0-1h-1v-3q-1-2-1-2l-1-1q-1 0-1 1h-2q-1 1-2 0 0-2-7 0t-13 3q-6 2-12 3-6 2-14 4-8 1-8 2t-6 2-6 2-1 2q-1 0-1 4t0 15v11h-1l1 1 1 1h-3v-1h-1v-1h-1v-1h-1v-1q-1 0-5-2t-6-5q-3-3-6-4-4-1-16-2t-12 1l-1 1h-2l-2-1v-4q0-5 1-5 1-1 3-4 1-4 3-9 1-5 2-5t1-1q1-1 2-4t3-8l2-5 1-1 1-1v-1h2v4h1v1h1l6 1q7 2 10 4 4 2 4 3h1v1h3v-1h1v-1h1v-6q0-6 1-7t4-4l4-3 11-3q10-3 11-3 1-2 4-3t14-3 19-4q7 0 13-3t11-3q5-2 8-2h2q1 0 1-1z" fill="#0d0d0d" stroke="#0d0d0d"/>
  <path d="m578 104h8l-2 7q-1 7-1 8-1 0-1 9v8t-1-9q0-9-1-12 0-3-13 1l-13 4-1 1-1 1v1l-1 1v1h-2v-1l1-1v-3l1-4q1-4 9-8 8-3 9-3 0-1 9-1z" fill="#444343" stroke="#444343"/>
  <path d="m704 464h1q1 1 1 4t-2 4q-1 0 1 2 1 2 2 4v1h-1q0-1-2-1-1 0-2 0 0 1-2 2l-2 2t-1-1-3 0l-2 1v-1q0-1 1-1t1-1q-1-1-1-6l-1-5h5q3 1 4 0v-2h1v-1q1-1 2-1z" fill="#bd8a6b" stroke="#bd8a6b"/>
  <path d="m739 491l-1 3q0 2-1 2h-1t0 1l-1 1-2 4q-2 4-3 4 0 1-1 7l-1 6v-11h-1t-3 0q-2 0-3 2t-2 2q-1 1-1 2v1h-1l-1 1h-2v-1h1v-1h1v-1h-1v-1h-1v-3q0-2 1-6l2-4h1v-5q0-3 2-3 3-1 8 1 4 0 6 1 1 1 2-1 0-2 1-3 1 0 1 1t1 1z" fill="#b98b71" stroke="#b98b71"/>
  <path d="m582 136l-1 2q-1 3-2 30v26h-1v8l-1 4v4h-1q-2 0-3 1t-2-1q-1-1-18-1h-16v-2h2l2-1q1 0 1-22 2-21 3-22 2-1 2-17 1-16 1-18l1-2q1 0 1-1 1 0 1-1h1v-1l1-1 1-1 13-4q13-4 13-1 1 3 1 12 1 9 1 9z" fill="#090908" stroke="#090908"/>
  <path d="m716 592h3l-4 6q-3 6-3 9 2 3 2 4v1h1v1h1v2h-1v1h-1t0 1q-1 1-26 1l-25 2h-7q0-1-1-1v-2h3l3-1h1v-1t1-1v-1l7-1q8 0 14-3 5-3 8-3 4-1 4-2v-1q0-1 4-1 3 0 4-1 0-1 2-2t2-1l3-3q3-3 5-3z" fill="#ebe9e8" stroke="#ebe9e8"/>
  <path d="m528 622v10q-1 9-2 9-1 1-2 1h-3q-1 0-5 1h-4q-1 0-1 1t-7 1h-8v-1h1v-1h1v-1q0-1 2-2 1 0 2-4 2-4 0-4-3-1-3-2t1-1l1-1h-1q-1 0-1-1t-9-2l-10-1q1 0 3-1l2-1h-19v-1h2l3-1 18-1q18-1 25-1 8 0 10 2 3 2 4 2z" fill="#e1a17f" stroke="#e1a17f"/>
  <path d="m565 452v1h1v1q0 2 2 2h3v1h1v2h-1v1h-1q-2 0-3 0l-1 1h-1v-2q-1-2-2-2-2-1-3 1l-1 2q-1 0 0-2l1-2v-2q1-1 0-2-2 0-2-2 0-1 3 0 3 0 3 1t1 1z" fill="#cb9272" stroke="#cb9272"/>
  <path d="m514 487l-2-9h4q3 0 3 0h1q2 1 1 3-1 3-1 3 0 2 0 2t1 0v1l-1 2q0 2 0 3 2 1 1 4t0 4v1h-1v-1l-1 2-1 1v-4l-1-1-1-1v-1h-1t-1-9z" fill="#8c6d5c" stroke="#8c6d5c"/>
  <path d="m711 117v-1l14 3q14 3 17 7 2 4 3 4t1-1h1v1q-1 2-2 4l-1 2t-2-2-3-4-8-4q-8-2-12-2h-4 1v1h1v1h1v4l-1-1v-1h-1v-1l-1-1h-1l1-2q0-2 3-3l3-1h-1l-4-1q-3-1-4-1t-1-1z" fill="#999898" stroke="#999898"/>
  <path d="m20 780l1-1 3 1q4 0 6 4 2 3 2 4v1t-1 1v1q-1 0-1 0v1h-1q-1 0-2-2t-5-4l-3-2q1-1 1-2 0 0 0-2z" fill="#465b5a" stroke="#465b5a"/>
  <path d="m718 337h1l4 1q3 1 2 2-1 0-1 2t5 2h5t-8 2q-7 2-8-2-1-3-4-3h-2v2h-1v1h-2v-1l1-1v-2q2-2 2-2v-1h1q1-1 1-1h2q2 0 2 1z" fill="#d59270" stroke="#d59270"/>
  <path d="m588 300v2l2 1 2 1 4-2q4 0 4 0 0 2 0 2t-1 1q-1 0-1 1t-4 2q-3 2-13 2l-10 1v-1h3l2-1 1-1h1v-3h1v-1h1q1 0 1-1h3q2 0 2-1 1-2 2-2z" fill="#b07251" stroke="#b07251"/>
  <path d="m638 581v-1h11l-5 1q-4 1-4 3t-4 4-5 10q-1 9-2 10-1 0-1 0h-2q-1 0-4 0h-4 5v-1q1 0 1-1 0 0 1-5l1-5h-1l-1-1-1-1h-3q-3 0-4 3l-1 2h-1v-1l-1-1v-4q1-3 1-5t-4-2l-5-1v-1h-1v-1h33v-1l1-1z" fill="#7c7c7c" stroke="#7c7c7c"/>
  <path d="m725 584h5q6 0 10-1h3v1h-1q-2 0-2 1 1 1 3 2t2 1h-2q-2 0-5 2l-4 1q-1 1-1 1h-1q-2 0-4-1-3-1-4-2v-3q0-2 1-2z" fill="#9a715a" stroke="#9a715a"/>
  <path d="m923 6v-1l1 1q2 1 3 4 1 2 3 4t1 4q0 2-1 3-1 0-4 3-2 2-2 3h-1v1h-4v1l1 1 50 2q49 0 50 3 0 2 0 2v-1t-3 0l-3-1v-1h-12q-13 0-14 1h-2q0-1-2 0h-198v-1h-4l-1 1h-1v-2h2l2-1h126l2-1q2-1 2-3 1-2 5-5 5-4 4-7-1-2-2-4-1-1-2-1v-1h3v1h1v-1h1v-2q0-1-1-2z" fill="#252d2d" stroke="#252d2d"/>
  <path d="m729 333l2 1q3 1 4 5 1 3 0 4t-1 1h-5q-5 0-5-2t1-2q1-1-2-2l-4-1v-3h10v-1z" fill="#b2714e" stroke="#b2714e"/>
  <path d="m629 458h11q9 0 14 0t6 2q2 0 4 1h1l5 3q6 4 8 4h2t0 1h1q0 1 1 1v1q0 1 1 3l1 2v1h1v1h3v2h1l1 1q0 1 1 1h1t1 0v-1h1q2-1 3 0t1 1q-1 0-1 1h-1v1l-1 4v3l-3 5q-2 6-4 6-1 0-1 2l-1 1v1l-1 2q-1 1 1 3t2 3v2q0 1 0 4v2h2q2 0 4 0h3v1l-1 1-3 2q-3 1-3 3t0 3v2h1v-1h1v3h-1l-1 1h-3l-1 1t-1 2v3h-1l-1 1h-7v-4h1v-1h1v1h1q1 0 2-2t0-4l-1-1v-1h-3v-2l1-1v-2h-1v-1h-5v2q0 1-1 1h-1q0-1-2-1t-3 0q-1-1-1 0 0 0-1-2-1-1-3-1h-2q-1-1-3 0t-2-1q-1-2-4-3l-3-1-1-2v-1h1v1h1q1 0 3-2 1-2 1-5 1-3-1-3l-1-1v-2h1l1-1h1v-4h-4v1l-1 1q-1 1-2 2l-1 2v1l1 1h-3v-2h-1q-1 0-1-1 0 0 1-2l1-2h-1v-1h-4v1h-1v2h-2l-1 1h-1v1q0 1 1 1l1 1q0 1 1 1h1q0 1-1 2t-1 0h-4 2v1h-1v1h-1v1l-1-1-1-1v-1l-1-1-1-1t-1-1q-1 0-1-1t2-1q1-1 1-6l1-6h-1v1h-1v-1h-1v1h-1q-1 0-2 0-2 0-4-1t-4 1-2 1q-1-1-2-1h-1q-1-1-1-2-2-1-4-2-2 0-2 1v2h-1q-1-1-3 0-1 0-2 2 0 2-1 2h-1v-1q0-1 0-2t-1-1l-2-1v1h-1l1 2q0 1 1 2l-1 1q-1 0-1 1v1h-2v3-1h-2v-3l-1-1q-1-2-1-4 0-1-2-2-1 0-2-2v-4t-1 0l-1-1q0-1-2-1-1 0-2-2v-2q0-1-1-1v-1q-1 0-1 0h-2q-1 0-2 2v1q-1 1-2 1l-2 1h-1v-1l1-1v-1h-2l1-1 1-1h2v-3q0-3 3-3t3-1l3-2q3-1 8-4t6-3v-1h1v-1l6-2q5-2 8-2 2 0 4 2 2 0 12 0 9 0 9 0zm-34 11l2-3h6l3 2q2 2 16 4 14 0 14 0 1 0 2-1h1q0-1 1-1h1l2-1q3-1 3-1l3-1h3l1 1h1v6l-2 1-1 1h-2l-1 1q-1 1-6 1h-13q-8 0-9 2 0 1-3 2-2 0-2-1v-1h-1t0-1h-3l-3-1h-2q-2 0-6 0h-3l-1-1-1-1h-2v-1h-1v-1q0-2 3-5zm84 10q2-1 2 2 1 2-1 2-2 1-2-2 0-2 1-2zm-81 7v4l-2-1q-2 0-2-4t2-4 2 1 0 4zm34 0q0 1-1 1v1q0 1 3 1h2l1-2q1-1 3-2 1 0 0 3 0 2-1 2-1 1-1 2-1 0-2 4-2 3-3 3-2 1-3-3 0-4-2-5l-1-1h-1t0-1v-1q-1-2-2-2t0-2q0-2 5-2t4 2-1 2zm-24 2q0-3 2-2 2 0 2 2t-2 2-2-2zm68 6q2-2 4-1t0 3q-2 1-2 2t-1 2q-1 0-2-2-1-3 1-4zm-8 4q2 0 2 2t-2 3q-3 0-2-2 0-2 2-3zm-12 21q2-1 2 1t-2 2q-2-1-2-2t2-1z" fill="#f0b38e" stroke="#f0b38e"/>
  <path d="m1216 278v-1h2v3q0 1-1 2h-1t0 1q-1 1-1 1h-1t-1 0h-1l1-2q1-3 2-4 1 0 1 0z" fill="#242c2c" stroke="#242c2c"/>
  <path d="m720 583h2q1 1 1 1l-2 2q-2 2-1 2t0 2q0 2-1 2h-3q-2 0-5 3l-3 3v-2q0-1-2-2h-1l3-4q3-3 7-4 5-2 5-2t0-1z" fill="#9c9998" stroke="#9c9998"/>
  <path d="m558 468h1q1 1 2 2 0 2 1 2 2 1 2 2v1l1 1v2h-1l-1 1-1 1h-1v1h-3q-1 0-1-1v-2h1v-3q0-3-1-5v-1q1 0 1-1z" fill="#97664b" stroke="#97664b"/>
 </g>
</svg>
